<svg width="32" height="32" viewBox="0 0 32 32" fill="none" xmlns="http://www.w3.org/2000/svg">
<path d="M10.166 12.5H21.8327M10.166 16H17.166M26.182 17.7815V11.3672C26.182 9.35133 26.182 8.34341 25.5193 7.71718C24.8565 7.09094 23.7899 7.09094 21.6567 7.09094H10.3436C8.21039 7.09094 7.14377 7.09094 6.48107 7.71718C5.81836 8.34341 5.81836 9.35133 5.81836 11.3672V17.7815C5.81836 19.7973 5.81836 20.8052 6.48107 21.4314C7.14377 22.0577 8.21039 22.0577 10.3436 22.0577H12.6325C12.9681 22.0577 13.2799 22.221 13.4578 22.4899L15.8463 26.1013C15.9174 26.2087 16.083 26.2087 16.154 26.1013L18.596 22.4092C18.7406 22.1905 18.9942 22.0577 19.2671 22.0577H21.6567C23.7899 22.0577 24.8565 22.0577 25.5193 21.4314C26.182 20.8052 26.182 19.7973 26.182 17.7815Z" stroke="#A1A1AA" stroke-width="1.5" stroke-linecap="round" stroke-linejoin="round"/>
</svg>
