<?xml version="1.0" encoding="UTF-8"?>
<!--Generator: Apple Native CoreSVG 232.5-->
<!DOCTYPE svg
PUBLIC "-//W3C//DTD SVG 1.1//EN"
       "http://www.w3.org/Graphics/SVG/1.1/DTD/svg11.dtd">
<svg version="1.1" xmlns="http://www.w3.org/2000/svg" xmlns:xlink="http://www.w3.org/1999/xlink" width="3300" height="2200">
 <!--glyph: "", point size: 100.0, font version: "19.2d2e1", template writer version: "128"-->
 <style>.SFSymbolsPreviewWireframe {fill:none;opacity:1.0;stroke:black;stroke-width:0.5}
</style>
 <g id="Notes">
  <rect height="2200" id="artboard" style="fill:white;opacity:1" width="3300" x="0" y="0"/>
  <line style="fill:none;stroke:black;opacity:1;stroke-width:0.5;" x1="263" x2="3036" y1="292" y2="292"/>
  <text style="stroke:none;fill:black;font-family:sans-serif;font-size:13;font-weight:bold;" transform="matrix(1 0 0 1 263 322)">Weight/Scale Variations</text>
  <text style="stroke:none;fill:black;font-family:sans-serif;font-size:13;text-anchor:middle;" transform="matrix(1 0 0 1 559.711 322)">Ultralight</text>
  <text style="stroke:none;fill:black;font-family:sans-serif;font-size:13;text-anchor:middle;" transform="matrix(1 0 0 1 856.422 322)">Thin</text>
  <text style="stroke:none;fill:black;font-family:sans-serif;font-size:13;text-anchor:middle;" transform="matrix(1 0 0 1 1153.13 322)">Light</text>
  <text style="stroke:none;fill:black;font-family:sans-serif;font-size:13;text-anchor:middle;" transform="matrix(1 0 0 1 1449.84 322)">Regular</text>
  <text style="stroke:none;fill:black;font-family:sans-serif;font-size:13;text-anchor:middle;" transform="matrix(1 0 0 1 1746.56 322)">Medium</text>
  <text style="stroke:none;fill:black;font-family:sans-serif;font-size:13;text-anchor:middle;" transform="matrix(1 0 0 1 2043.27 322)">Semibold</text>
  <text style="stroke:none;fill:black;font-family:sans-serif;font-size:13;text-anchor:middle;" transform="matrix(1 0 0 1 2339.98 322)">Bold</text>
  <text style="stroke:none;fill:black;font-family:sans-serif;font-size:13;text-anchor:middle;" transform="matrix(1 0 0 1 2636.69 322)">Heavy</text>
  <text style="stroke:none;fill:black;font-family:sans-serif;font-size:13;text-anchor:middle;" transform="matrix(1 0 0 1 2933.4 322)">Black</text>
  <line style="fill:none;stroke:black;opacity:1;stroke-width:0.5;" x1="263" x2="3036" y1="1903" y2="1903"/>
  <g transform="matrix(0.2 0 0 0.2 263 1933)">
   <path d="m46.2402 4.15039c21.5332 0 39.4531-17.8711 39.4531-39.4043s-17.9688-39.4043-39.502-39.4043c-21.4844 0-39.3555 17.8711-39.3555 39.4043s17.9199 39.4043 39.4043 39.4043Zm0-7.42188c-17.7246 0-31.8848-14.209-31.8848-31.9824s14.1113-31.9824 31.8359-31.9824c17.7734 0 32.0312 14.209 32.0312 31.9824s-14.209 31.9824-31.9824 31.9824Zm-17.9688-31.9824c0 2.14844 1.51367 3.61328 3.75977 3.61328h10.498v10.5957c0 2.19727 1.46484 3.71094 3.61328 3.71094 2.24609 0 3.71094-1.51367 3.71094-3.71094v-10.5957h10.5957c2.19727 0 3.71094-1.46484 3.71094-3.61328 0-2.19727-1.51367-3.71094-3.71094-3.71094h-10.5957v-10.5469c0-2.24609-1.46484-3.75977-3.71094-3.75977-2.14844 0-3.61328 1.51367-3.61328 3.75977v10.5469h-10.498c-2.24609 0-3.75977 1.51367-3.75977 3.71094Z"/>
  </g>
  <g transform="matrix(0.2 0 0 0.2 281.506 1933)">
   <path d="m58.5449 14.5508c27.2461 0 49.8047-22.6074 49.8047-49.8047 0-27.2461-22.6074-49.8047-49.8535-49.8047-27.1973 0-49.7559 22.5586-49.7559 49.8047 0 27.1973 22.6074 49.8047 49.8047 49.8047Zm0-8.30078c-23.0469 0-41.4551-18.457-41.4551-41.5039s18.3594-41.5039 41.4062-41.5039 41.5527 18.457 41.5527 41.5039-18.457 41.5039-41.5039 41.5039Zm-22.6562-41.5039c0 2.39258 1.66016 4.00391 4.15039 4.00391h14.3555v14.4043c0 2.44141 1.66016 4.15039 4.05273 4.15039 2.44141 0 4.15039-1.66016 4.15039-4.15039v-14.4043h14.4043c2.44141 0 4.15039-1.61133 4.15039-4.00391 0-2.44141-1.70898-4.15039-4.15039-4.15039h-14.4043v-14.3555c0-2.49023-1.70898-4.19922-4.15039-4.19922-2.39258 0-4.05273 1.70898-4.05273 4.19922v14.3555h-14.3555c-2.49023 0-4.15039 1.70898-4.15039 4.15039Z"/>
  </g>
  <g transform="matrix(0.2 0 0 0.2 304.924 1933)">
   <path d="m74.8535 28.3203c34.8145 0 63.623-28.8086 63.623-63.5742 0-34.8145-28.8574-63.623-63.6719-63.623-34.7656 0-63.5254 28.8086-63.5254 63.623 0 34.7656 28.8086 63.5742 63.5742 63.5742Zm0-9.08203c-30.1758 0-54.4434-24.3164-54.4434-54.4922 0-30.2246 24.2188-54.4922 54.3945-54.4922 30.2246 0 54.541 24.2676 54.541 54.4922 0 30.1758-24.2676 54.4922-54.4922 54.4922Zm-28.8574-54.4922c0 2.58789 1.85547 4.39453 4.58984 4.39453h19.7266v19.7754c0 2.68555 1.85547 4.58984 4.44336 4.58984 2.68555 0 4.54102-1.85547 4.54102-4.58984v-19.7754h19.7754c2.68555 0 4.58984-1.80664 4.58984-4.39453 0-2.73438-1.85547-4.58984-4.58984-4.58984h-19.7754v-19.7266c0-2.73438-1.85547-4.63867-4.54102-4.63867-2.58789 0-4.44336 1.9043-4.44336 4.63867v19.7266h-19.7266c-2.73438 0-4.58984 1.85547-4.58984 4.58984Z"/>
  </g>
  <text style="stroke:none;fill:black;font-family:sans-serif;font-size:13;font-weight:bold;" transform="matrix(1 0 0 1 263 1953)">Design Variations</text>
  <text style="stroke:none;fill:black;font-family:sans-serif;font-size:13;" transform="matrix(1 0 0 1 263 1971)">Symbols are supported in up to nine weights and three scales.</text>
  <text style="stroke:none;fill:black;font-family:sans-serif;font-size:13;" transform="matrix(1 0 0 1 263 1989)">For optimal layout with text and other symbols, vertically align</text>
  <text style="stroke:none;fill:black;font-family:sans-serif;font-size:13;" transform="matrix(1 0 0 1 263 2007)">symbols with the adjacent text.</text>
  <line style="fill:none;stroke:#00AEEF;stroke-width:0.5;opacity:1.0;" x1="776" x2="776" y1="1919" y2="1933"/>
  <g transform="matrix(0.2 0 0 0.2 776 1933)">
   <path d="m16.5527 0.78125c2.58789 0 3.85742-0.976562 4.78516-3.71094l6.29883-17.2363h28.8086l6.29883 17.2363c0.927734 2.73438 2.19727 3.71094 4.73633 3.71094 2.58789 0 4.24805-1.5625 4.24805-4.00391 0-0.830078-0.146484-1.61133-0.537109-2.63672l-22.9004-60.9863c-1.12305-2.97852-3.125-4.49219-6.25-4.49219-3.02734 0-5.07812 1.46484-6.15234 4.44336l-22.9004 61.084c-0.390625 1.02539-0.537109 1.80664-0.537109 2.63672 0 2.44141 1.5625 3.95508 4.10156 3.95508Zm13.4766-28.3691 11.8652-32.8613h0.244141l11.8652 32.8613Z"/>
  </g>
  <line style="fill:none;stroke:#00AEEF;stroke-width:0.5;opacity:1.0;" x1="792.836" x2="792.836" y1="1919" y2="1933"/>
  <text style="stroke:none;fill:black;font-family:sans-serif;font-size:13;font-weight:bold;" transform="matrix(1 0 0 1 776 1953)">Margins</text>
  <text style="stroke:none;fill:black;font-family:sans-serif;font-size:13;" transform="matrix(1 0 0 1 776 1971)">Leading and trailing margins on the left and right side of each symbol</text>
  <text style="stroke:none;fill:black;font-family:sans-serif;font-size:13;" transform="matrix(1 0 0 1 776 1989)">can be adjusted by modifying the x-location of the margin guidelines.</text>
  <text style="stroke:none;fill:black;font-family:sans-serif;font-size:13;" transform="matrix(1 0 0 1 776 2007)">Modifications are automatically applied proportionally to all</text>
  <text style="stroke:none;fill:black;font-family:sans-serif;font-size:13;" transform="matrix(1 0 0 1 776 2025)">scales and weights.</text>
  <g transform="matrix(0.2 0 0 0.2 1289 1933)">
   <path d="m14.209 9.32617 8.49609 8.54492c4.29688 4.3457 9.22852 4.05273 13.8672-1.07422l53.4668-58.9355-4.83398-4.88281-53.0762 58.3984c-1.75781 2.00195-3.41797 2.49023-5.76172 0.146484l-5.85938-5.81055c-2.34375-2.29492-1.80664-4.00391 0.195312-5.81055l57.373-54.0039-4.88281-4.83398-57.959 54.4434c-4.93164 4.58984-5.32227 9.47266-1.02539 13.8184Zm32.0801-90.9668c-2.09961 2.05078-2.24609 4.93164-1.07422 6.88477 1.17188 1.80664 3.4668 2.97852 6.68945 2.14844 7.32422-1.70898 14.9414-2.00195 22.0703 2.68555l-2.92969 7.27539c-1.70898 4.15039-0.830078 7.08008 1.85547 9.81445l11.4746 11.5723c2.44141 2.44141 4.49219 2.53906 7.32422 2.05078l5.32227-0.976562 3.32031 3.36914-0.195312 2.7832c-0.195312 2.49023 0.439453 4.39453 2.88086 6.78711l3.80859 3.71094c2.39258 2.39258 5.46875 2.53906 7.8125 0.195312l14.5508-14.5996c2.34375-2.34375 2.24609-5.32227-0.146484-7.71484l-3.85742-3.80859c-2.39258-2.39258-4.24805-3.17383-6.64062-2.97852l-2.88086 0.244141-3.22266-3.17383 1.2207-5.61523c0.634766-2.83203-0.146484-5.0293-3.07617-7.95898l-10.9863-10.9375c-16.6992-16.6016-38.8672-16.2109-53.3203-1.75781Zm7.4707 1.85547c12.1582-8.88672 28.6133-7.37305 39.7461 3.75977l12.1582 12.0605c1.17188 1.17188 1.36719 2.09961 1.02539 3.80859l-1.61133 7.42188 7.51953 7.42188 4.93164-0.292969c1.26953-0.0488281 1.66016 0.0488281 2.63672 1.02539l2.88086 2.88086-12.207 12.207-2.88086-2.88086c-0.976562-0.976562-1.12305-1.36719-1.07422-2.68555l0.341797-4.88281-7.4707-7.42188-7.61719 1.26953c-1.61133 0.341797-2.34375 0.195312-3.56445-0.976562l-10.0098-10.0098c-1.26953-1.17188-1.41602-2.00195-0.634766-3.85742l4.39453-10.4492c-7.8125-7.27539-17.9688-10.4004-28.125-7.42188-0.78125 0.195312-1.07422-0.439453-0.439453-0.976562Z"/>
  </g>
  <text style="stroke:none;fill:black;font-family:sans-serif;font-size:13;font-weight:bold;" transform="matrix(1 0 0 1 1289 1953)">Exporting</text>
  <text style="stroke:none;fill:black;font-family:sans-serif;font-size:13;" transform="matrix(1 0 0 1 1289 1971)">Symbols should be outlined when exporting to ensure the</text>
  <text style="stroke:none;fill:black;font-family:sans-serif;font-size:13;" transform="matrix(1 0 0 1 1289 1989)">design is preserved when submitting to Xcode.</text>
  <text id="template-version" style="stroke:none;fill:black;font-family:sans-serif;font-size:13;text-anchor:end;" transform="matrix(1 0 0 1 3036 1933)">Template v.5.0</text>
  <text style="stroke:none;fill:black;font-family:sans-serif;font-size:13;text-anchor:end;" transform="matrix(1 0 0 1 3036 1951)">Requires Xcode 15 or greater</text>
  <text id="descriptive-name" style="stroke:none;fill:black;font-family:sans-serif;font-size:13;text-anchor:end;" transform="matrix(1 0 0 1 3036 1969)">Generated from annotation</text>
  <text style="stroke:none;fill:black;font-family:sans-serif;font-size:13;text-anchor:end;" transform="matrix(1 0 0 1 3036 1987)">Typeset at 100.0 points</text>
  <text style="stroke:none;fill:black;font-family:sans-serif;font-size:13;" transform="matrix(1 0 0 1 263 726)">Small</text>
  <text style="stroke:none;fill:black;font-family:sans-serif;font-size:13;" transform="matrix(1 0 0 1 263 1156)">Medium</text>
  <text style="stroke:none;fill:black;font-family:sans-serif;font-size:13;" transform="matrix(1 0 0 1 263 1586)">Large</text>
 </g>
 <g id="Guides">
  <g id="H-reference" style="fill:#27AAE1;stroke:none;" transform="matrix(1 0 0 1 339 696)">
   <path d="M0.993654 0L3.63775 0L29.3281-67.1323L30.0303-67.1323L30.0303-70.459L28.1226-70.459ZM11.6885-24.4799L46.9815-24.4799L46.2315-26.7285L12.4385-26.7285ZM55.1196 0L57.7637 0L30.6382-70.459L29.4326-70.459L29.4326-67.1323Z"/>
  </g>
  <line id="Baseline-S" style="fill:none;stroke:#27AAE1;opacity:1;stroke-width:0.5;" x1="263" x2="3036" y1="696" y2="696"/>
  <line id="Capline-S" style="fill:none;stroke:#27AAE1;opacity:1;stroke-width:0.5;" x1="263" x2="3036" y1="625.541" y2="625.541"/>
  <g id="H-reference" style="fill:#27AAE1;stroke:none;" transform="matrix(1 0 0 1 339 1126)">
   <path d="M0.993654 0L3.63775 0L29.3281-67.1323L30.0303-67.1323L30.0303-70.459L28.1226-70.459ZM11.6885-24.4799L46.9815-24.4799L46.2315-26.7285L12.4385-26.7285ZM55.1196 0L57.7637 0L30.6382-70.459L29.4326-70.459L29.4326-67.1323Z"/>
  </g>
  <line id="Baseline-M" style="fill:none;stroke:#27AAE1;opacity:1;stroke-width:0.5;" x1="263" x2="3036" y1="1126" y2="1126"/>
  <line id="Capline-M" style="fill:none;stroke:#27AAE1;opacity:1;stroke-width:0.5;" x1="263" x2="3036" y1="1055.54" y2="1055.54"/>
  <g id="H-reference" style="fill:#27AAE1;stroke:none;" transform="matrix(1 0 0 1 339 1556)">
   <path d="M0.993654 0L3.63775 0L29.3281-67.1323L30.0303-67.1323L30.0303-70.459L28.1226-70.459ZM11.6885-24.4799L46.9815-24.4799L46.2315-26.7285L12.4385-26.7285ZM55.1196 0L57.7637 0L30.6382-70.459L29.4326-70.459L29.4326-67.1323Z"/>
  </g>
  <line id="Baseline-L" style="fill:none;stroke:#27AAE1;opacity:1;stroke-width:0.5;" x1="263" x2="3036" y1="1556" y2="1556"/>
  <line id="Capline-L" style="fill:none;stroke:#27AAE1;opacity:1;stroke-width:0.5;" x1="263" x2="3036" y1="1485.54" y2="1485.54"/>
  <line id="left-margin-Ultralight-S" style="fill:none;stroke:#FF3B30;stroke-width:0.5;opacity:1.0;" x1="519.289" x2="519.289" y1="600.785" y2="720.121"/>
  <line id="right-margin-Ultralight-S" style="fill:none;stroke:#00AEEF;stroke-width:0.5;opacity:1.0;" x1="600.133" x2="600.133" y1="600.785" y2="720.121"/>
  <line id="left-margin-Regular-S" style="fill:none;stroke:#00AEEF;stroke-width:0.5;opacity:1.0;" x1="1407.56" x2="1407.56" y1="600.785" y2="720.121"/>
  <line id="right-margin-Regular-S" style="fill:none;stroke:#00AEEF;stroke-width:0.5;opacity:1.0;" x1="1492.13" x2="1492.13" y1="600.785" y2="720.121"/>
  <line id="left-margin-Black-S" style="fill:none;stroke:#00AEEF;stroke-width:0.5;opacity:1.0;" x1="2887.7" x2="2887.7" y1="600.785" y2="720.121"/>
  <line id="right-margin-Black-S" style="fill:none;stroke:#00AEEF;stroke-width:0.5;opacity:1.0;" x1="2979.1" x2="2979.1" y1="600.785" y2="720.121"/>
  <line id="left-margin-Regular-M" style="fill:none;stroke:#00AEEF;stroke-width:0.5;opacity:1.0;" x1="1396.32" x2="1396.32" y1="1030.79" y2="1150.12"/>
  <line id="right-margin-Regular-M" style="fill:none;stroke:#00AEEF;stroke-width:0.5;opacity:1.0;" x1="1503.37" x2="1503.37" y1="1030.79" y2="1150.12"/>
 </g>
 <g id="Symbols">
  <g id="Black-L" transform="matrix(1 0 0 1 2859.72 1556)">
   <path class="SFSymbolsPreviewWireframe" d="M3.26684-69.0503L3.26684-1.37973C3.26684 13.7021 11.9025 22.2978 27.0458 22.2978L93.8518 22.2978C104.78 22.2978 110.484 20.5196 117.55 13.5023L135.284-4.03795C142.255-10.9721 144.08-16.7943 144.08-27.4324L144.08-69.0503C144.08-84.1289 135.457-92.7076 120.314-92.7076L27.0458-92.7076C11.8854-92.7076 3.26684-84.131 3.26684-69.0503ZM23.2593-66.2158C23.2593-70.8109 25.4634-72.7327 29.7822-72.7327L117.577-72.7327C121.89-72.7327 124.1-70.8109 124.1-66.195L124.1-33.7118L106.539-33.7118C93.7729-33.7118 87.8372-27.7816 87.8372-15.0362L87.8372 2.30419L29.7822 2.30419C25.4634 2.30419 23.2593 0.38096 23.2593-4.21415L23.2593-66.2158ZM103.551-13.7462C103.551-16.5971 104.985-18.0344 107.849-18.0344L123.177-18.0344L103.551 1.38009L103.551-13.7462ZM115.456-58.0164C115.456-53.8787 112.099-50.5235 107.963-50.5235L38.1342-50.5235C33.9989-50.5235 30.6413-53.8787 30.6413-58.0164L30.6413-58.0164C30.6413-62.1541 33.9989-65.5093 38.1342-65.5093L107.963-65.5093C112.099-65.5093 115.456-62.1541 115.456-58.0164L115.456-58.0164ZM84.8295-35.4882C84.8295-31.3506 81.4718-27.9954 77.3366-27.9954L38.1342-27.9954C33.9989-27.9954 30.6413-31.3506 30.6413-35.4882L30.6413-35.4882C30.6413-39.6259 33.9989-42.9811 38.1342-42.9811L77.3366-42.9811C81.4718-42.9811 84.8295-39.6259 84.8295-35.4882L84.8295-35.4882ZM71.1763-12.9601C71.1763-8.82243 67.8187-5.46724 63.6834-5.46724L38.1342-5.46724C33.9989-5.46724 30.6413-8.82243 30.6413-12.9601L30.6413-12.9601C30.6413-17.0978 33.9989-20.453 38.1342-20.453L63.6834-20.453C67.8187-20.453 71.1763-17.0978 71.1763-12.9601L71.1763-12.9601Z"/>
  </g>
  <g id="Heavy-L" transform="matrix(1 0 0 1 2564.15 1556)">
   <path class="SFSymbolsPreviewWireframe" d="M2.7854-68.7153L2.7854-1.7023C2.7854 12.7584 10.9271 20.8071 25.5421 20.8071L92.5636 20.8071C102.729 20.8071 107.884 19.2364 114.444 12.7645L134.154-6.66292C140.587-13.0144 142.23-18.335 142.23-28.0443L142.23-68.7153C142.23-83.1612 134.098-91.1948 119.483-91.1948L25.5421-91.1948C10.9022-91.1948 2.7854-83.1711 2.7854-68.7153ZM20.295-66.4418C20.295-71.4714 22.831-73.7265 27.6714-73.7265L117.354-73.7265C122.166-73.7265 124.73-71.4714 124.73-66.4116L124.73-33.1068L104.908-33.1068C93.3288-33.1068 87.8998-27.6725 87.8998-16.1854L87.8998 3.31448L27.6714 3.31448C22.831 3.31448 20.295 1.05377 20.295-3.9758L20.295-66.4418ZM102.012-14.9495C102.012-17.7207 103.365-19.0641 106.17-19.0641L123.587-19.0641L102.012 2.17836L102.012-14.9495ZM115.434-57.7199C115.434-53.9502 112.375-50.8936 108.608-50.8936L35.2561-50.8936C31.4892-50.8936 28.4298-53.9502 28.4298-57.7199L28.4298-57.7199C28.4298-61.4895 31.4892-64.5461 35.2561-64.5461L108.608-64.5461C112.375-64.5461 115.434-61.4895 115.434-57.7199L115.434-57.7199ZM83.9512-35.7658C83.9512-31.9962 80.8918-28.9395 77.125-28.9395L35.2561-28.9395C31.4892-28.9395 28.4298-31.9962 28.4298-35.7658L28.4298-35.7658C28.4298-39.5354 31.4892-42.5921 35.2561-42.5921L77.125-42.5921C80.8918-42.5921 83.9512-39.5354 83.9512-35.7658L83.9512-35.7658ZM69.9185-13.8118C69.9185-10.0421 66.8591-6.98546 63.0922-6.98546L35.2561-6.98546C31.4892-6.98546 28.4298-10.0421 28.4298-13.8118L28.4298-13.8118C28.4298-17.5814 31.4892-20.638 35.2561-20.638L63.0922-20.638C66.8591-20.638 69.9185-17.5814 69.9185-13.8118L69.9185-13.8118Z"/>
  </g>
  <g id="Bold-L" transform="matrix(1 0 0 1 2268.83 1556)">
   <path class="SFSymbolsPreviewWireframe" d="M2.16379-68.2043L2.16379-2.16677C2.16379 11.4567 9.7136 18.8293 23.6349 18.8293L91.1357 18.8293C100.293 18.8293 104.771 17.4994 110.657 11.7507L132.832-10.0624C138.57-15.6595 139.999-20.3322 139.999-28.8658L139.999-68.2043C139.999-81.7928 132.456-89.1622 118.535-89.1622L23.6349-89.1622C9.68213-89.1622 2.16379-81.8161 2.16379-68.2043ZM16.6129-66.5725C16.6129-72.1425 19.5604-74.7973 25.0849-74.7973L117.084-74.7973C122.542-74.7973 125.556-72.1425 125.556-66.5345L125.556-32.4477L103.038-32.4477C92.8726-32.4477 88.0743-27.6262 88.0743-17.6744L88.0743 4.43863L25.0849 4.43863C19.5604 4.43863 16.6129 1.77139 16.6129-3.79858L16.6129-66.5725ZM100.136-16.5403C100.136-19.2576 101.414-20.5058 104.203-20.5058L124.21-20.5058L100.136 3.11237L100.136-16.5403ZM115.544-57.1229C115.544-53.8464 112.884-51.1897 109.61-51.1897L31.5516-51.1897C28.2779-51.1897 25.6183-53.8464 25.6183-57.1229L25.6183-57.1229C25.6183-60.3994 28.2779-63.0562 31.5516-63.0562L109.61-63.0562C112.884-63.0562 115.544-60.3994 115.544-57.1229L115.544-57.1229ZM82.9258-35.9879C82.9258-32.7114 80.2662-30.0546 76.9926-30.0546L31.5516-30.0546C28.2779-30.0546 25.6183-32.7114 25.6183-35.9879L25.6183-35.9879C25.6183-39.2644 28.2779-41.9211 31.5516-41.9211L76.9926-41.9211C80.2662-41.9211 82.9258-39.2644 82.9258-35.9879L82.9258-35.9879ZM68.4095-14.8528C68.4095-11.5763 65.7499-8.91959 62.4763-8.91959L31.5516-8.91959C28.2779-8.91959 25.6183-11.5763 25.6183-14.8528L25.6183-14.8528C25.6183-18.1293 28.2779-20.7861 31.5516-20.7861L62.4763-20.7861C65.7499-20.7861 68.4095-18.1293 68.4095-14.8528L68.4095-14.8528Z"/>
  </g>
  <g id="Semibold-L" transform="matrix(1 0 0 1 1973.08 1556)">
   <path class="SFSymbolsPreviewWireframe" d="M1.73525-67.852L1.73525-2.48698C1.73525 10.5592 8.87702 17.4658 22.32 17.4658L90.1514 17.4658C98.6133 17.4658 102.625 16.3019 108.046 11.0519L131.92-12.406C137.18-17.483 138.461-21.709 138.461-29.4322L138.461-67.852C138.461-80.8494 131.323-87.761 117.881-87.761L22.32-87.761C8.84101-87.761 1.73525-80.882 1.73525-67.852ZM14.0744-66.6626C14.0744-72.6051 17.3057-75.5355 23.3017-75.5355L116.899-75.5355C122.802-75.5355 126.126-72.6051 126.126-66.6193L126.126-31.9933L101.75-31.9933C92.5582-31.9933 88.1947-27.5944 88.1947-18.7009L88.1947 5.21361L23.3017 5.21361C17.3057 5.21361 14.0744 2.26611 14.0744-3.67641L14.0744-66.6626ZM98.8421-17.637C98.8421-20.317 100.069-21.4997 102.847-21.4997L124.639-21.4997L98.8421 3.75627L98.8421-17.637ZM115.619-56.7114C115.619-53.7748 113.235-51.3938 110.301-51.3938L28.9977-51.3938C26.0641-51.3938 23.6801-53.7748 23.6801-56.7114L23.6801-56.7114C23.6801-59.6479 26.0641-62.029 28.9977-62.029L110.301-62.029C113.235-62.029 115.619-59.6479 115.619-56.7114L115.619-56.7114ZM82.2189-36.141C82.2189-33.2044 79.8349-30.8234 76.9013-30.8234L28.9977-30.8234C26.0641-30.8234 23.6801-33.2044 23.6801-36.141L23.6801-36.141C23.6801-39.0775 26.0641-41.4586 28.9977-41.4586L76.9013-41.4586C79.8349-41.4586 82.2189-39.0775 82.2189-36.141L82.2189-36.141ZM67.3693-15.5706C67.3693-12.634 64.9853-10.253 62.0517-10.253L28.9977-10.253C26.0641-10.253 23.6801-12.634 23.6801-15.5706L23.6801-15.5706C23.6801-18.5071 26.0641-20.8881 28.9977-20.8881L62.0517-20.8881C64.9853-20.8881 67.3693-18.5071 67.3693-15.5706L67.3693-15.5706Z"/>
  </g>
  <g id="Medium-L" transform="matrix(1 0 0 1 1677.1 1556)">
   <path class="SFSymbolsPreviewWireframe" d="M1.41032-67.5849L1.41032-2.72977C1.41032 9.87877 8.24269 16.4319 21.323 16.4319L89.405 16.4319C97.3399 16.4319 100.997 15.3939 106.067 10.522L131.229-14.183C136.126-18.8657 137.295-22.7529 137.295-29.8616L137.295-67.5849C137.295-80.1341 130.465-86.6985 117.385-86.6985L21.323-86.6985C8.20323-86.6985 1.41032-80.1737 1.41032-67.5849ZM12.1496-66.7309C12.1496-72.9559 15.5961-76.0952 21.9497-76.0952L116.758-76.0952C122.999-76.0952 126.558-72.9559 126.558-66.6835L126.558-31.6488L100.772-31.6488C92.3197-31.6488 88.286-27.5702 88.286-19.4792L88.286 5.80124L21.9497 5.80124C15.5961 5.80124 12.1496 2.64123 12.1496-3.58378L12.1496-66.7309ZM97.8613-18.4685C97.8613-21.1204 99.0494-22.2533 101.818-22.2533L124.965-22.2533L97.8613 4.2445L97.8613-18.4685ZM115.676-56.3993C115.676-53.7205 113.501-51.5485 110.825-51.5485L27.0612-51.5485C24.3854-51.5485 22.2104-53.7205 22.2104-56.3993L22.2104-56.3993C22.2104-59.0781 24.3854-61.2501 27.0612-61.2501L110.825-61.2501C113.501-61.2501 115.676-59.0781 115.676-56.3993L115.676-56.3993ZM81.6828-36.257C81.6828-33.5783 79.5078-31.4063 76.8321-31.4063L27.0612-31.4063C24.3854-31.4063 22.2104-33.5783 22.2104-36.257L22.2104-36.257C22.2104-38.9358 24.3854-41.1078 27.0612-41.1078L76.8321-41.1078C79.5078-41.1078 81.6828-38.9358 81.6828-36.257L81.6828-36.257ZM66.5805-16.1148C66.5805-13.436 64.4055-11.264 61.7297-11.264L27.0612-11.264C24.3854-11.264 22.2104-13.436 22.2104-16.1148L22.2104-16.1148C22.2104-18.7935 24.3854-20.9655 27.0612-20.9655L61.7297-20.9655C64.4055-20.9655 66.5805-18.7935 66.5805-16.1148L66.5805-16.1148Z"/>
  </g>
  <g id="Regular-L" transform="matrix(1 0 0 1 1381.34 1556)">
   <path class="SFSymbolsPreviewWireframe" d="M0.986494-67.2365L0.986494-3.04645C0.986494 8.99121 7.41531 15.0833 20.0226 15.0833L88.4315 15.0833C95.679 15.0833 98.8746 14.2096 103.485 9.8308L130.328-16.5008C134.751-20.6692 135.774-24.1146 135.774-30.4217L135.774-67.2365C135.774-79.2011 129.345-85.3126 116.738-85.3126L20.0226-85.3126C7.37136-85.3126 0.986494-79.2499 0.986494-67.2365ZM9.63905-66.8201C9.63905-73.4135 13.3661-76.8253 20.1861-76.8253L116.574-76.8253C123.256-76.8253 127.121-73.4135 127.121-66.7674L127.121-31.1994L99.4978-31.1994C92.0087-31.1994 88.405-27.5387 88.405-20.4944L88.405 6.5677L20.1861 6.5677C13.3661 6.5677 9.63905 3.13051 9.63905-3.46295L9.63905-66.8201ZM96.582-19.5532C96.582-22.1682 97.7194-23.2363 100.477-23.2363L125.39-23.2363L96.582 4.88133L96.582-19.5532ZM115.751-55.9923C115.751-53.6498 113.848-51.7504 111.509-51.7504L24.5353-51.7504C22.1959-51.7504 20.2935-53.6498 20.2935-55.9923L20.2935-55.9923C20.2935-58.3349 22.1959-60.2342 24.5353-60.2342L111.509-60.2342C113.848-60.2342 115.751-58.3349 115.751-55.9923L115.751-55.9923ZM80.9837-36.4084C80.9837-34.0659 79.0812-32.1666 76.7418-32.1666L24.5353-32.1666C22.1959-32.1666 20.2935-34.0659 20.2935-36.4084L20.2935-36.4084C20.2935-38.751 22.1959-40.6503 24.5353-40.6503L76.7418-40.6503C79.0812-40.6503 80.9837-38.751 80.9837-36.4084L80.9837-36.4084ZM65.5516-16.8246C65.5516-14.482 63.6492-12.5827 61.3098-12.5827L24.5353-12.5827C22.1959-12.5827 20.2935-14.482 20.2935-16.8246L20.2935-16.8246C20.2935-19.1671 22.1959-21.0665 24.5353-21.0665L61.3098-21.0665C63.6492-21.0665 65.5516-19.1671 65.5516-16.8246L65.5516-16.8246Z"/>
  </g>
  <g id="Light-L" transform="matrix(1 0 0 1 1085.41 1556)">
   <path class="SFSymbolsPreviewWireframe" d="M0.394305-66.2648L0.394305-3.78532C0.394305 7.23608 6.54279 12.8701 18.4167 12.8701L88.5252 12.8701C94.6707 12.8701 97.412 12.0594 101.26 8.48797L129.92-19.8026C133.678-23.2401 134.623-26.066 134.623-31.3985L134.623-66.2648C134.623-77.1627 128.474-82.8863 116.601-82.8863L18.4167-82.8863C6.51396-82.8863 0.394305-77.2451 0.394305-66.2648ZM7.02778-65.9496C7.02778-72.931 11.0423-76.5332 18.5793-76.5332L116.438-76.5332C123.74-76.5332 127.989-72.931 127.989-65.9163L127.989-31.3251L99.1813-31.3251C92.2979-31.3251 89.151-28.0796 89.151-21.9457L89.151 6.52483L18.5793 6.52483C11.0423 6.52483 7.02778 2.88086 7.02778-4.10053L7.02778-65.9496ZM95.4808-21.2982C95.4808-24.1642 96.7325-25.3033 99.8361-25.3033L126.563-25.3033L95.4808 5.17385L95.4808-21.2982ZM116.705-54.101C116.705-52.3389 115.274-50.9098 113.514-50.9098L21.0768-50.9098C19.3165-50.9098 17.8856-52.3389 17.8856-54.101L17.8856-54.101C17.8856-55.8631 19.3165-57.2922 21.0768-57.2922L113.514-57.2922C115.274-57.2922 116.705-55.8631 116.705-54.101L116.705-54.101ZM80.6773-35.778C80.6773-34.0159 79.2464-32.5869 77.4861-32.5869L21.0768-32.5869C19.3165-32.5869 17.8856-34.0159 17.8856-35.778L17.8856-35.778C17.8856-37.5402 19.3165-38.9692 21.0768-38.9692L77.4861-38.9692C79.2464-38.9692 80.6773-37.5402 80.6773-35.778L80.6773-35.778ZM64.825-17.455C64.825-15.6929 63.3941-14.2639 61.6338-14.2639L21.0768-14.2639C19.3165-14.2639 17.8856-15.6929 17.8856-17.455L17.8856-17.455C17.8856-19.2172 19.3165-20.6462 21.0768-20.6462L61.6338-20.6462C63.3941-20.6462 64.825-19.2172 64.825-17.455L64.825-17.455Z"/>
  </g>
  <g id="Thin-L" transform="matrix(1 0 0 1 789.732 1556)">
   <path class="SFSymbolsPreviewWireframe" d="M-0.388912-64.9797L-0.388912-4.76254C-0.388912 4.91478 5.38881 9.9429 16.2927 9.9429L88.6492 9.9429C93.3372 9.9429 95.4775 9.21554 98.3171 6.71197L129.379-24.1695C132.259-26.6404 133.1-28.6469 133.1-32.6903L133.1-64.9797C133.1-74.4668 127.323-79.6773 116.42-79.6773L16.2927-79.6773C5.38-79.6773-0.388912-74.5936-0.388912-64.9797ZM3.57418-64.7984C3.57418-72.2929 7.96893-76.1469 16.4543-76.1469L116.257-76.1469C124.381-76.1469 129.137-72.2929 129.137-64.7907L129.137-31.4913L98.7628-31.4913C92.6803-31.4913 90.1377-28.795 90.1377-23.8651L90.1377 6.46813L16.4543 6.46813C7.96893 6.46813 3.57418 2.55068 3.57418-4.94378L3.57418-64.7984ZM94.0244-23.6062C94.0244-26.804 95.4273-28.037 98.9884-28.037L128.114-28.037L94.0244 5.56073L94.0244-23.6062ZM117.968-51.5996C117.968-50.6051 117.16-49.7981 116.166-49.7981L16.5025-49.7981C15.5082-49.7981 14.701-50.6051 14.701-51.5996L14.701-51.5996C14.701-52.5941 15.5082-53.4011 16.5025-53.4011L116.166-53.4011C117.16-53.4011 117.968-52.5941 117.968-51.5996L117.968-51.5996ZM80.2721-34.9442C80.2721-33.9497 79.4649-33.1427 78.4706-33.1427L16.5025-33.1427C15.5082-33.1427 14.701-33.9497 14.701-34.9442L14.701-34.9442C14.701-35.9387 15.5082-36.7457 16.5025-36.7457L78.4706-36.7457C79.4649-36.7457 80.2721-35.9387 80.2721-34.9442L80.2721-34.9442ZM63.8639-18.2888C63.8639-17.2943 63.0567-16.4873 62.0624-16.4873L16.5025-16.4873C15.5082-16.4873 14.701-17.2943 14.701-18.2888L14.701-18.2888C14.701-19.2833 15.5082-20.0903 16.5025-20.0903L62.0624-20.0903C63.0567-20.0903 63.8639-19.2833 63.8639-18.2888L63.8639-18.2888Z"/>
  </g>
  <g id="Ultralight-L" transform="matrix(1 0 0 1 493.551 1556)">
   <path class="SFSymbolsPreviewWireframe" d="M-0.790071-64.3214L-0.790071-5.26306C-0.790071 3.72582 4.79774 8.44361 15.2048 8.44361L88.7127 8.44361C92.6541 8.44361 94.4867 7.75895 96.8098 5.80232L129.102-26.4062C131.532-28.382 132.32-29.9688 132.32-33.352L132.32-64.3214C132.32-73.0859 126.733-78.0336 116.327-78.0336L15.2048-78.0336C4.79918-78.0336-0.790071-73.2355-0.790071-64.3214ZM1.80526-64.2088C1.80526-71.966 6.39476-75.949 15.3658-75.949L116.165-75.949C124.709-75.949 129.725-71.966 129.725-64.2141L129.725-31.5764L98.5484-31.5764C92.8762-31.5764 90.643-29.1614 90.643-24.8482L90.643 6.43909L15.3658 6.43909C6.39476 6.43909 1.80526 2.38156 1.80526-5.37569L1.80526-64.2088ZM93.2785-24.7883C93.2785-28.1561 94.7588-29.4372 98.5542-29.4372L128.909-29.4372L93.2785 5.75889L93.2785-24.7883ZM118.614-50.3184C118.614-49.7171 118.127-49.2287 117.525-49.2287L14.1596-49.2287C13.5577-49.2287 13.0699-49.7171 13.0699-50.3184L13.0699-50.3184C13.0699-50.9197 13.5577-51.4081 14.1596-51.4081L117.525-51.4081C118.127-51.4081 118.614-50.9197 118.614-50.3184L118.614-50.3184ZM80.0645-34.5171C80.0645-33.9158 79.5768-33.4274 78.9748-33.4274L14.1596-33.4274C13.5577-33.4274 13.0699-33.9158 13.0699-34.5171L13.0699-34.5171C13.0699-35.1184 13.5577-35.6069 14.1596-35.6069L78.9748-35.6069C79.5768-35.6069 80.0645-35.1184 80.0645-34.5171L80.0645-34.5171ZM63.3716-18.7159C63.3716-18.1146 62.8839-17.6262 62.2819-17.6262L14.1596-17.6262C13.5577-17.6262 13.0699-18.1146 13.0699-18.7159L13.0699-18.7159C13.0699-19.3172 13.5577-19.8056 14.1596-19.8056L62.2819-19.8056C62.8839-19.8056 63.3716-19.3172 63.3716-18.7159L63.3716-18.7159Z"/>
  </g>
  <g id="Black-M" transform="matrix(1 0 0 1 2875.44 1126)">
   <path class="SFSymbolsPreviewWireframe" d="M2.86449-61.5881L2.86449-8.82753C2.86449 3.25305 9.94143 10.3205 22.0282 10.3205L73.8307 10.3205C82.8039 10.3205 87.6324 8.77316 93.4395 2.97729L105.727-9.25547C111.499-15.0294 113.059-19.8873 113.059-28.7952L113.059-61.5881C113.059-73.6694 105.994-80.7316 93.9072-80.7316L22.0282-80.7316C9.93694-80.7316 2.86449-73.6689 2.86449-61.5881ZM20.2138-58.9238C20.2138-62.163 21.6751-63.3911 24.6698-63.3911L91.2656-63.3911C94.2618-63.3911 95.7217-62.163 95.7217-58.9183L95.7217-34.5906L83.8999-34.5906C73.0706-34.5906 68.0985-29.6264 68.0985-18.7939L68.0985-7.02466L24.6698-7.02466C21.6751-7.02466 20.2138-8.25264 20.2138-11.4918L20.2138-58.9238ZM81.3992-17.7878C81.3992-20.099 82.5946-21.3029 84.9106-21.3029L95.2372-21.3029L81.3992-7.51294L81.3992-17.7878ZM89.5969-52.882C89.5969-49.4387 86.8031-46.6465 83.3613-46.6465L31.549-46.6465C28.1072-46.6465 25.3134-49.4387 25.3134-52.882L25.3134-52.882C25.3134-56.3254 28.1072-59.1176 31.549-59.1176L83.3613-59.1176C86.8031-59.1176 89.5969-56.3254 89.5969-52.882L89.5969-52.882ZM66.4343-35.106C66.4343-31.6627 63.6405-28.8704 60.1987-28.8704L31.549-28.8704C28.1072-28.8704 25.3134-31.6627 25.3134-35.106L25.3134-35.106C25.3134-38.5493 28.1072-41.3416 31.549-41.3416L60.1987-41.3416C63.6405-41.3416 66.4343-38.5493 66.4343-35.106L66.4343-35.106ZM56.1258-17.33C56.1258-13.8867 53.3321-11.0944 49.8903-11.0944L31.549-11.0944C28.1072-11.0944 25.3134-13.8867 25.3134-17.33L25.3134-17.33C25.3134-20.7733 28.1072-23.5656 31.549-23.5656L49.8903-23.5656C53.3321-23.5656 56.1258-20.7733 56.1258-17.33L56.1258-17.33Z"/>
  </g>
  <g id="Heavy-M" transform="matrix(1 0 0 1 2579.78 1126)">
   <path class="SFSymbolsPreviewWireframe" d="M2.44848-61.3503L2.44848-9.07471C2.44848 2.49248 9.0684 9.0675 20.7064 9.0675L72.5628 9.0675C80.8917 9.0675 85.226 7.7171 90.6081 2.37986L104.659-11.517C109.968-16.7887 111.357-21.2134 111.357-29.3033L111.357-61.3503C111.357-72.9115 104.746-79.4766 93.1079-79.4766L20.7064-79.4766C9.0549-79.4766 2.44848-72.9155 2.44848-61.3503ZM17.5569-59.225C17.5569-62.8531 19.3161-64.3896 22.7547-64.3896L91.0596-64.3896C94.4867-64.3896 96.2574-62.8531 96.2574-59.2085L96.2574-33.9876L82.3341-33.9876C72.6098-33.9876 68.0908-29.4698 68.0908-19.7834L68.0908-6.03307L22.7547-6.03307C19.3161-6.03307 17.5569-7.57189 17.5569-11.2L17.5569-59.225ZM79.996-18.8031C79.996-21.0133 81.1019-22.1188 83.329-22.1188L95.5296-22.1188L79.996-6.75956L79.996-18.8031ZM89.4875-52.7666C89.4875-49.6296 86.9418-47.0858 83.8066-47.0858L29.0546-47.0858C25.9194-47.0858 23.3737-49.6296 23.3737-52.7666L23.3737-52.7666C23.3737-55.9037 25.9194-58.4475 29.0546-58.4475L83.8066-58.4475C86.9418-58.4475 89.4875-55.9037 89.4875-52.7666L89.4875-52.7666ZM65.604-35.4355C65.604-32.2984 63.0583-29.7546 59.9231-29.7546L29.0546-29.7546C25.9194-29.7546 23.3737-32.2984 23.3737-35.4355L23.3737-35.4355C23.3737-38.5726 25.9194-41.1164 29.0546-41.1164L59.9231-41.1164C63.0583-41.1164 65.604-38.5726 65.604-35.4355L65.604-35.4355ZM54.9633-18.1043C54.9633-14.9673 52.4176-12.4235 49.2824-12.4235L29.0546-12.4235C25.9194-12.4235 23.3737-14.9673 23.3737-18.1043L23.3737-18.1043C23.3737-21.2414 25.9194-23.7852 29.0546-23.7852L49.2824-23.7852C52.4176-23.7852 54.9633-21.2414 54.9633-18.1043L54.9633-18.1043Z"/>
  </g>
  <g id="Bold-M" transform="matrix(1 0 0 1 2284.24 1126)">
   <path class="SFSymbolsPreviewWireframe" d="M1.98311-61.0843L1.98311-9.35122C1.98311 1.64167 8.0918 7.66584 19.2278 7.66584L71.1444 7.66584C78.7525 7.66584 82.5341 6.53574 87.4407 1.71155L103.465-14.0468C108.254-18.7567 109.453-22.6968 109.453-29.8716L109.453-61.0843C109.453-72.0636 103.35-78.0726 92.2137-78.0726L19.2278-78.0726C8.06821-78.0726 1.98311-72.0726 1.98311-61.0843ZM14.5848-59.5619C14.5848-63.6251 16.6773-65.5065 20.6122-65.5065L90.8292-65.5065C94.7384-65.5065 96.8567-63.6251 96.8567-59.5332L96.8567-33.3131L80.5827-33.3131C72.0944-33.3131 68.0822-29.2946 68.0822-20.8903L68.0822-4.92384L20.6122-4.92384C16.6773-4.92384 14.5848-6.81038 14.5848-10.8736L14.5848-59.5619ZM78.4264-19.9389C78.4264-22.036 79.4321-23.0314 81.5598-23.0314L95.8567-23.0314L78.4264-5.9168L78.4264-19.9389ZM89.365-52.6376C89.365-49.8431 87.0968-47.5772 84.3047-47.5772L26.2642-47.5772C23.4721-47.5772 21.2039-49.8431 21.2039-52.6376L21.2039-52.6376C21.2039-55.432 23.4721-57.6979 26.2642-57.6979L84.3047-57.6979C87.0968-57.6979 89.365-55.432 89.365-52.6376L89.365-52.6376ZM64.6752-35.8041C64.6752-33.0096 62.407-30.7437 59.6148-30.7437L26.2642-30.7437C23.4721-30.7437 21.2039-33.0096 21.2039-35.8041L21.2039-35.8041C21.2039-38.5985 23.4721-40.8644 26.2642-40.8644L59.6148-40.8644C62.407-40.8644 64.6752-38.5985 64.6752-35.8041L64.6752-35.8041ZM53.6628-18.9706C53.6628-16.1761 51.3946-13.9102 48.6024-13.9102L26.2642-13.9102C23.4721-13.9102 21.2039-16.1761 21.2039-18.9706L21.2039-18.9706C21.2039-21.7651 23.4721-24.0309 26.2642-24.0309L48.6024-24.0309C51.3946-24.0309 53.6628-21.7651 53.6628-18.9706L53.6628-18.9706Z"/>
  </g>
  <g id="Semibold-M" transform="matrix(1 0 0 1 1988.33 1126)">
   <path class="SFSymbolsPreviewWireframe" d="M1.66229-60.9009L1.66229-9.54184C1.66229 1.05514 7.41853 6.69955 18.2085 6.69955L70.1666 6.69955C77.2778 6.69955 80.6783 5.72131 85.2572 1.25082L102.642-15.7908C107.073-20.1134 108.14-23.7195 108.14-30.2635L108.14-60.9009C108.14-71.4791 102.387-77.1048 91.5973-77.1048L18.2085-77.1048C7.388-77.1048 1.66229-71.4916 1.66229-60.9009ZM12.5358-59.7942C12.5358-64.1573 14.8581-66.2765 19.1353-66.2765L90.6704-66.2765C94.9119-66.2765 97.2698-64.1573 97.2698-59.7571L97.2698-32.8481L79.3752-32.8481C71.7391-32.8481 68.0763-29.1739 68.0763-21.6534L68.0763-4.15914L19.1353-4.15914C14.8581-4.15914 12.5358-6.2854 12.5358-10.6485L12.5358-59.7942ZM77.3443-20.7219C77.3443-22.741 78.281-23.6606 80.3401-23.6606L96.0821-23.6606L77.3443-5.3358L77.3443-20.7219ZM89.2806-52.5486C89.2806-49.9903 87.2037-47.916 84.648-47.916L24.3406-47.916C21.7849-47.916 19.708-49.9903 19.708-52.5486L19.708-52.5486C19.708-55.1069 21.7849-57.1811 24.3406-57.1811L84.648-57.1811C87.2037-57.1811 89.2806-55.1069 89.2806-52.5486L89.2806-52.5486ZM64.0349-36.0582C64.0349-33.4999 61.958-31.4256 59.4023-31.4256L24.3406-31.4256C21.7849-31.4256 19.708-33.4999 19.708-36.0582L19.708-36.0582C19.708-38.6165 21.7849-40.6907 24.3406-40.6907L59.4023-40.6907C61.958-40.6907 64.0349-38.6165 64.0349-36.0582L64.0349-36.0582ZM52.7662-19.5678C52.7662-17.0095 50.6893-14.9352 48.1336-14.9352L24.3406-14.9352C21.7849-14.9352 19.708-17.0095 19.708-19.5678L19.708-19.5678C19.708-22.1261 21.7849-24.2003 24.3406-24.2003L48.1336-24.2003C50.6893-24.2003 52.7662-22.1261 52.7662-19.5678L52.7662-19.5678Z"/>
  </g>
  <g id="Medium-M" transform="matrix(1 0 0 1 1692.23 1126)">
   <path class="SFSymbolsPreviewWireframe" d="M1.41903-60.7618L1.41903-9.68637C1.41903 0.610397 6.90803 5.96687 17.4356 5.96687L69.4252 5.96687C76.1596 5.96687 79.2711 5.10378 83.6015 0.901479L102.018-17.1132C106.177-21.1422 107.144-24.4949 107.144-30.5606L107.144-60.7618C107.144-71.0358 101.657-76.3709 91.1299-76.3709L17.4356-76.3709C6.87223-76.3709 1.41903-71.051 1.41903-60.7618ZM10.9822-59.9703C10.9822-64.5608 13.4787-66.8604 18.0154-66.8604L90.55-66.8604C95.0435-66.8604 97.5831-64.5608 97.5831-59.9268L97.5831-32.4955L78.4597-32.4955C71.4696-32.4955 68.0718-29.0823 68.0718-22.2319L68.0718-3.57932L18.0154-3.57932C13.4787-3.57932 10.9822-5.88733 10.9822-10.4779L10.9822-59.9703ZM76.5238-21.3156C76.5238-23.2757 77.4081-24.1377 79.4153-24.1377L96.2531-24.1377L76.5238-4.89526L76.5238-21.3156ZM89.2166-52.4811C89.2166-50.1019 87.2848-48.1729 84.9084-48.1729L22.8819-48.1729C20.5056-48.1729 18.5737-50.1019 18.5737-52.4811L18.5737-52.4811C18.5737-54.8603 20.5056-56.7893 22.8819-56.7893L84.9084-56.7893C87.2848-56.7893 89.2166-54.8603 89.2166-52.4811L89.2166-52.4811ZM63.5493-36.2508C63.5493-33.8716 61.6175-31.9426 59.2411-31.9426L22.8819-31.9426C20.5056-31.9426 18.5737-33.8716 18.5737-36.2508L18.5737-36.2508C18.5737-38.63 20.5056-40.559 22.8819-40.559L59.2411-40.559C61.6175-40.559 63.5493-38.63 63.5493-36.2508L63.5493-36.2508ZM52.0864-20.0206C52.0864-17.6414 50.1546-15.7124 47.7782-15.7124L22.8819-15.7124C20.5056-15.7124 18.5737-17.6414 18.5737-20.0206L18.5737-20.0206C18.5737-22.3998 20.5056-24.3288 22.8819-24.3288L47.7782-24.3288C50.1546-24.3288 52.0864-22.3998 52.0864-20.0206L52.0864-20.0206Z"/>
  </g>
  <g id="Regular-M" transform="matrix(1 0 0 1 1396.32 1126)">
   <path class="SFSymbolsPreviewWireframe" d="M1.10174-60.5804L1.10174-9.8749C1.10174 0.0303037 6.24216 5.01119 16.4275 5.01119L68.4582 5.01119C74.7011 5.01119 77.4357 4.29831 81.442 0.445813L101.203-18.838C105.009-22.484 105.846-25.5063 105.846-30.9481L105.846-60.5804C105.846-70.4578 100.705-75.4136 90.5203-75.4136L16.4275-75.4136C6.19948-75.4136 1.10174-70.4763 1.10174-60.5804ZM8.9558-60.2C8.9558-65.0872 11.6795-67.622 16.5546-67.622L90.3929-67.622C95.2151-67.622 97.9917-65.0872 97.9917-60.1482L97.9917-32.0356L77.2655-32.0356C71.1182-32.0356 68.0659-28.9629 68.0659-22.9866L68.0659-2.82302L16.5546-2.82302C11.6795-2.82302 8.9558-5.36812 8.9558-10.2553L8.9558-60.2ZM75.4536-22.09C75.4536-23.973 76.2696-24.76 78.209-24.76L96.4761-24.76L75.4536-4.32065L75.4536-22.09ZM89.1331-52.3931C89.1331-50.2474 87.3905-48.508 85.248-48.508L20.9794-48.508C18.8369-48.508 17.0943-50.2474 17.0943-52.3931L17.0943-52.3931C17.0943-54.5387 18.8369-56.2782 20.9794-56.2782L85.248-56.2782C87.3905-56.2782 89.1331-54.5387 89.1331-52.3931L89.1331-52.3931ZM62.9161-36.5021C62.9161-34.3565 61.1734-32.617 59.0309-32.617L20.9794-32.617C18.8369-32.617 17.0943-34.3565 17.0943-36.5021L17.0943-36.5021C17.0943-38.6478 18.8369-40.3873 20.9794-40.3873L59.0309-40.3873C61.1734-40.3873 62.9161-38.6478 62.9161-36.5021L62.9161-36.5021ZM51.1997-20.6112C51.1997-18.4656 49.4571-16.7261 47.3146-16.7261L20.9794-16.7261C18.8369-16.7261 17.0943-18.4656 17.0943-20.6112L17.0943-20.6112C17.0943-22.7568 18.8369-24.4963 20.9794-24.4963L47.3146-24.4963C49.4571-24.4963 51.1997-22.7568 51.1997-20.6112L51.1997-20.6112Z"/>
  </g>
  <g id="Light-M" transform="matrix(1 0 0 1 1100.31 1126)">
   <path class="SFSymbolsPreviewWireframe" d="M0.570809-59.7092L0.570809-10.5373C0.570809-1.54326 5.4599 3.0269 14.9877 3.0269L68.5422 3.0269C73.7971 3.0269 76.1244 2.37054 79.4471-0.7581L100.837-21.7983C104.047-24.789 104.814-27.2559 104.814-31.8238L104.814-59.7092C104.814-68.6302 99.9246-73.2383 90.3974-73.2383L14.9877-73.2383C5.43079-73.2383 0.570809-68.6789 0.570809-59.7092ZM6.61467-59.4197C6.61467-64.6546 9.5961-67.3601 15.1141-67.3601L90.2704-67.3601C95.6495-67.3601 98.7698-64.6546 98.7698-59.3852L98.7698-32.1483L76.9817-32.1483C71.3775-32.1483 68.7348-29.4478 68.7348-24.2878L68.7348-2.86146L15.1141-2.86146C9.5961-2.86146 6.61467-5.59195 6.61467-10.8269L6.61467-59.4197ZM74.4664-23.6545C74.4664-25.7624 75.3849-26.6131 77.6343-26.6131L97.5278-26.6131L74.4664-4.05839L74.4664-23.6545ZM89.9888-50.6974C89.9888-49.0722 88.669-47.7543 87.0458-47.7543L17.8786-47.7543C16.2554-47.7543 14.9355-49.0722 14.9355-50.6974L14.9355-50.6974C14.9355-52.3227 16.2554-53.6405 17.8786-53.6405L87.0458-53.6405C88.669-53.6405 89.9888-52.3227 89.9888-50.6974L89.9888-50.6974ZM62.6414-35.9369C62.6414-34.3117 61.3215-32.9938 59.6983-32.9938L17.8786-32.9938C16.2554-32.9938 14.9355-34.3117 14.9355-35.9369L14.9355-35.9369C14.9355-37.5622 16.2554-38.88 17.8786-38.88L59.6983-38.88C61.3215-38.88 62.6414-37.5622 62.6414-35.9369L62.6414-35.9369ZM50.5482-21.1764C50.5482-19.5512 49.2284-18.2333 47.6051-18.2333L17.8786-18.2333C16.2554-18.2333 14.9355-19.5512 14.9355-21.1764L14.9355-21.1764C14.9355-22.8017 16.2554-24.1195 17.8786-24.1195L47.6051-24.1195C49.2284-24.1195 50.5482-22.8017 50.5482-21.1764L50.5482-21.1764Z"/>
  </g>
  <g id="Thin-M" transform="matrix(1 0 0 1 804.53 1126)">
   <path class="SFSymbolsPreviewWireframe" d="M-0.131385-58.557L-0.131385-11.4135C-0.131385-3.62443 4.42529 0.402519 13.0835 0.402519L68.6533 0.402519C72.6015 0.402519 74.3901-0.179088 76.8088-2.35037L100.353-25.7134C102.774-27.8375 103.449-29.5698 103.449-32.982L103.449-58.557C103.449-66.2132 98.892-70.3613 90.2349-70.3613L13.0835-70.3613C4.41413-70.3613-0.131385-66.3018-0.131385-58.557ZM3.51834-58.3875C3.51834-64.0825 6.84064-67.0137 13.2088-67.0137L90.1085-67.0137C96.2241-67.0137 99.799-64.0825 99.799-58.376L99.799-32.2973L76.6065-32.2973C71.7203-32.2973 69.6194-30.0892 69.6194-26.0086L69.6194-2.91229L13.2088-2.91229C6.84064-2.91229 3.51834-5.88798 3.51834-11.5829L3.51834-58.3875ZM73.1606-25.7237C73.1606-28.1292 74.2147-29.0641 76.8743-29.0641L98.9187-29.0641L73.1606-3.71153L73.1606-25.7237ZM91.1206-48.4548C91.1206-47.5178 90.36-46.7576 89.4235-46.7576L13.7776-46.7576C12.8411-46.7576 12.0804-47.5178 12.0804-48.4548L12.0804-48.4548C12.0804-49.3918 12.8411-50.152 13.7776-50.152L89.4235-50.152C90.36-50.152 91.1206-49.3918 91.1206-48.4548L91.1206-48.4548ZM62.2781-35.1894C62.2781-34.2524 61.5174-33.4922 60.5809-33.4922L13.7776-33.4922C12.8411-33.4922 12.0804-34.2524 12.0804-35.1894L12.0804-35.1894C12.0804-36.1264 12.8411-36.8866 13.7776-36.8866L60.5809-36.8866C61.5174-36.8866 62.2781-36.1264 62.2781-35.1894L62.2781-35.1894ZM49.6865-21.924C49.6865-20.9869 48.9259-20.2268 47.9893-20.2268L13.7776-20.2268C12.8411-20.2268 12.0804-20.9869 12.0804-21.924L12.0804-21.924C12.0804-22.861 12.8411-23.6211 13.7776-23.6211L47.9893-23.6211C48.9259-23.6211 49.6865-22.861 49.6865-21.924L49.6865-21.924Z"/>
  </g>
  <g id="Ultralight-M" transform="matrix(1 0 0 1 508.294 1126)">
   <path class="SFSymbolsPreviewWireframe" d="M-0.491046-57.9669L-0.491046-11.8622C-0.491046-4.69039 3.89538-0.941677 12.1081-0.941677L68.7103-0.941677C71.9892-0.941677 73.5018-1.485 75.4574-3.16593L100.105-27.7187C102.123-29.3989 102.75-30.7549 102.75-33.5753L102.75-57.9669C102.75-64.9751 98.3631-68.8876 90.1517-68.8876L12.1081-68.8876C3.8934-68.8876-0.491046-65.0842-0.491046-57.9669ZM1.93241-57.8589C1.93241-63.7895 5.42931-66.8363 12.233-66.8363L90.0255-66.8363C96.5185-66.8363 100.326-63.7895 100.326-57.8591L100.326-32.3736L76.4143-32.3736C71.896-32.3736 70.0725-30.4178 70.0725-26.89L70.0725-2.93833L12.233-2.93833C5.42931-2.93833 1.93241-6.0396 1.93241-11.9702L1.93241-57.8589ZM72.4919-26.7835C72.4919-29.3414 73.6154-30.3194 76.4851-30.3194L99.6311-30.3194L72.4919-3.53387L72.4919-26.7835ZM91.7003-47.3061C91.7003-46.7216 91.2261-46.2471 90.6413-46.2471L11.6771-46.2471C11.0923-46.2471 10.618-46.7216 10.618-47.3061L10.618-47.3061C10.618-47.8906 11.0923-48.3652 11.6771-48.3652L90.6413-48.3652C91.2261-48.3652 91.7003-47.8906 91.7003-47.3061L91.7003-47.3061ZM62.092-34.8065C62.092-34.222 61.6177-33.7474 61.0329-33.7474L11.6771-33.7474C11.0923-33.7474 10.618-34.222 10.618-34.8065L10.618-34.8065C10.618-35.391 11.0923-35.8655 11.6771-35.8655L61.0329-35.8655C61.6177-35.8655 62.092-35.391 62.092-34.8065L62.092-34.8065ZM49.2452-22.3068C49.2452-21.7223 48.7709-21.2478 48.1861-21.2478L11.6771-21.2478C11.0923-21.2478 10.618-21.7223 10.618-22.3068L10.618-22.3068C10.618-22.8913 11.0923-23.3659 11.6771-23.3659L48.1861-23.3659C48.7709-23.3659 49.2452-22.8913 49.2452-22.3068L49.2452-22.3068Z"/>
  </g>
  <g id="Black-S" transform="matrix(1 0 0 1 2887.7 696)">
   <path class="SFSymbolsPreviewWireframe" d="M2.34-55.908L2.34-14.502C2.34-4.932 8.01 0.732 17.58 0.732L58.25 0.732C65.42 0.732 69.33-0.537 73.97-5.176L83.16-14.361C87.79-19 89.06-22.906 89.06-30.084L89.06-55.908C89.06-65.478 83.4-71.143 73.83-71.143L17.58-71.143C8.01-71.143 2.34-65.478 2.34-55.908ZM16.51-53.662C16.51-56.103 17.58-56.982 19.83-56.982L71.58-56.982C73.83-56.982 74.9-56.103 74.9-53.662L74.9-34.918L66.21-34.918C57.42-34.918 53.41-30.914 53.41-22.125L53.41-13.428L19.83-13.428C17.58-13.428 16.51-14.307 16.51-16.748L16.51-53.662ZM64.16-21.344C64.16-23.199 65.13-24.176 66.99-24.176L74.61-24.176L64.16-13.721L64.16-21.344ZM70.3-49C70.3-46.239 68.06-44 65.3-44L25.3-44C22.54-44 20.3-46.239 20.3-49L20.3-49C20.3-51.761 22.54-54 25.3-54L65.3-54C68.06-54 70.3-51.761 70.3-49L70.3-49ZM52.3-35C52.3-32.239 50.06-30 47.3-30L25.3-30C22.54-30 20.3-32.239 20.3-35L20.3-35C20.3-37.761 22.54-40 25.3-40L47.3-40C50.06-40 52.3-37.761 52.3-35L52.3-35ZM44.3-21C44.3-18.239 42.06-16 39.3-16L25.3-16C22.54-16 20.3-18.239 20.3-21L20.3-21C20.3-23.761 22.54-26 25.3-26L39.3-26C42.06-26 44.3-23.761 44.3-21L44.3-21Z"/>
  </g>
  <g id="Heavy-S" transform="matrix(1 0 0 1 2591.79 696)">
   <path class="SFSymbolsPreviewWireframe" d="M2.05205-55.816L2.05205-14.6287C2.05205-5.38138 7.3633-0.086049 16.6336-0.086049L57.1549-0.086049C63.9-0.086049 67.4395-1.19385 71.8033-5.5331L82.2938-15.9169C86.6028-20.2101 87.7359-23.8166 87.7359-30.4066L87.7359-55.816C87.7359-65.0633 82.4323-70.3476 73.1621-70.3476L16.6336-70.3476C7.35386-70.3476 2.05205-65.0633 2.05205-55.816ZM14.5369-54.0193C14.5369-56.7485 15.8287-57.8694 18.3761-57.8694L71.4195-57.8694C73.9669-57.8694 75.2588-56.7485 75.2588-54.0078L75.2588-34.3879L64.9072-34.3879C56.9928-34.3879 53.318-30.7181 53.318-22.805L53.318-12.575L18.3761-12.575C15.8287-12.575 14.5369-13.6962 14.5369-16.4254L14.5369-54.0193ZM63.0861-22.0124C63.0861-23.7522 63.9664-24.6369 65.7108-24.6369L74.7257-24.6369L63.0861-13.1102L63.0861-22.0124ZM70.097-49.118C70.097-46.5524 68.0152-44.472 65.4511-44.472L23.5629-44.472C20.9988-44.472 18.9169-46.5524 18.9169-49.118L18.9169-49.118C18.9169-51.6836 20.9988-53.764 23.5629-53.764L65.4511-53.764C68.0152-53.764 70.097-51.6836 70.097-49.118L70.097-49.118ZM51.625-35.354C51.625-32.7885 49.5431-30.7081 46.979-30.7081L23.5629-30.7081C20.9988-30.7081 18.9169-32.7885 18.9169-35.354L18.9169-35.354C18.9169-37.9196 20.9988-40 23.5629-40L46.979-40C49.5431-40 51.625-37.9196 51.625-35.354L51.625-35.354ZM43.389-21.5901C43.389-19.0245 41.3071-16.9441 38.743-16.9441L23.5629-16.9441C20.9988-16.9441 18.9169-19.0245 18.9169-21.5901L18.9169-21.5901C18.9169-24.1556 20.9988-26.236 23.5629-26.236L38.743-26.236C41.3071-26.236 43.389-24.1556 43.389-21.5901L43.389-21.5901Z"/>
  </g>
  <g id="Bold-S" transform="matrix(1 0 0 1 2295.99 696)">
   <path class="SFSymbolsPreviewWireframe" d="M1.73-55.713L1.73-14.7705C1.73-5.884 6.64-1.001 15.575-1.001L55.93-1.001C62.2-1.001 65.325-1.9285 69.38-5.9325L81.325-17.657C85.275-21.5635 86.255-24.835 86.255-30.7675L86.255-55.713C86.255-64.5995 81.35-69.458 72.415-69.458L15.575-69.458C6.62-69.458 1.73-64.5995 1.73-55.713ZM12.33-54.419C12.33-57.4705 13.87-58.862 16.75-58.862L71.24-58.862C74.12-58.862 75.66-57.4705 75.66-54.3945L75.66-33.795L63.45-33.795C56.515-33.795 53.215-30.499 53.215-23.5655L53.215-11.621L16.75-11.621C13.87-11.621 12.33-13.013 12.33-16.0645L12.33-54.419ZM61.885-22.76C61.885-24.371 62.665-25.1525 64.28-25.1525L74.855-25.1525L61.885-12.427L61.885-22.76ZM69.87-49.25C69.87-46.903 67.965-45 65.62-45L21.62-45C19.275-45 17.37-46.903 17.37-49.25L17.37-49.25C17.37-51.597 19.275-53.5 21.62-53.5L65.62-53.5C67.965-53.5 69.87-51.597 69.87-49.25L69.87-49.25ZM50.87-35.75C50.87-33.403 48.965-31.5 46.62-31.5L21.62-31.5C19.275-31.5 17.37-33.403 17.37-35.75L17.37-35.75C17.37-38.097 19.275-40 21.62-40L46.62-40C48.965-40 50.87-38.097 50.87-35.75L50.87-35.75ZM42.37-22.25C42.37-19.903 40.465-18 38.12-18L21.62-18C19.275-18 17.37-19.903 17.37-22.25L17.37-22.25C17.37-24.597 19.275-26.5 21.62-26.5L38.12-26.5C40.465-26.5 42.37-24.597 42.37-22.25L42.37-22.25Z"/>
  </g>
  <g id="Semibold-S" transform="matrix(1 0 0 1 1999.9 696)">
   <path class="SFSymbolsPreviewWireframe" d="M1.50796-55.642L1.50796-14.8682C1.50796-6.23053 6.14132-1.63181 14.8452-1.63181L55.0855-1.63181C61.0279-1.63181 63.8672-2.43501 67.7092-6.20787L80.6571-18.8567C84.3595-22.4966 85.234-25.5372 85.234-31.0163L85.234-55.642C85.234-64.2797 80.6038-68.8447 71.8999-68.8447L14.8452-68.8447C6.11404-68.8447 1.50796-64.2797 1.50796-55.642ZM10.8085-54.6945C10.8085-57.9683 12.5196-59.5463 15.6289-59.5463L71.1162-59.5463C74.2256-59.5463 75.9366-57.9683 75.9366-54.6611L75.9366-33.3862L62.4454-33.3862C56.1856-33.3862 53.144-30.3479 53.144-24.0898L53.144-10.9633L15.6289-10.9633C12.5196-10.9633 10.8085-12.542 10.8085-15.8157L10.8085-54.6945ZM61.0569-23.2754C61.0569-24.7976 61.7677-25.5079 63.2936-25.5079L74.9442-25.5079L61.0569-11.956L61.0569-23.2754ZM69.7135-49.341C69.7135-47.1447 67.9304-45.364 65.7365-45.364L20.2805-45.364C18.0865-45.364 16.3035-47.1447 16.3035-49.341L16.3035-49.341C16.3035-51.5373 18.0865-53.318 20.2805-53.318L65.7365-53.318C67.9304-53.318 69.7135-51.5373 69.7135-49.341L69.7135-49.341ZM50.3495-36.023C50.3495-33.8267 48.5664-32.046 46.3725-32.046L20.2805-32.046C18.0865-32.046 16.3035-33.8267 16.3035-36.023L16.3035-36.023C16.3035-38.2193 18.0865-40 20.2805-40L46.3725-40C48.5664-40 50.3495-38.2193 50.3495-36.023L50.3495-36.023ZM41.6675-22.705C41.6675-20.5087 39.8844-18.728 37.6905-18.728L20.2805-18.728C18.0865-18.728 16.3035-20.5087 16.3035-22.705L16.3035-22.705C16.3035-24.9013 18.0865-26.682 20.2805-26.682L37.6905-26.682C39.8844-26.682 41.6675-24.9013 41.6675-22.705L41.6675-22.705Z"/>
  </g>
  <g id="Medium-S" transform="matrix(1 0 0 1 1703.66 696)">
   <path class="SFSymbolsPreviewWireframe" d="M1.3396-55.5882L1.3396-14.9423C1.3396-6.49328 5.7632-2.11012 14.2918-2.11012L54.4452-2.11012C60.1392-2.11012 62.7618-2.81906 66.4424-6.41666L80.1506-19.7664C83.6654-23.2041 84.4598-26.0696 84.4598-31.2049L84.4598-55.5882C84.4598-64.0373 80.038-68.3796 71.5094-68.3796L14.2918-68.3796C5.7304-68.3796 1.3396-64.0373 1.3396-55.5882ZM9.6548-54.9035C9.6548-58.3457 11.4956-60.0652 14.7788-60.0652L71.0224-60.0652C74.3056-60.0652 76.1464-58.3457 76.1464-54.8633L76.1464-33.0763L61.6836-33.0763C55.9358-33.0763 53.0902-30.2334 53.0902-24.4874L53.0902-10.4645L14.7788-10.4645C11.4956-10.4645 9.6548-12.1848 9.6548-15.6271L9.6548-54.9035ZM60.429-23.6662C60.429-25.1211 61.0874-25.7775 62.5456-25.7775L75.0118-25.7775L60.429-11.5988L60.429-23.6662ZM69.5948-49.41C69.5948-47.328 67.9042-45.64 65.8248-45.64L19.2648-45.64C17.1854-45.64 15.4948-47.328 15.4948-49.41L15.4948-49.41C15.4948-51.492 17.1854-53.18 19.2648-53.18L65.8248-53.18C67.9042-53.18 69.5948-51.492 69.5948-49.41L69.5948-49.41ZM49.9548-36.23C49.9548-34.148 48.2642-32.46 46.1848-32.46L19.2648-32.46C17.1854-32.46 15.4948-34.148 15.4948-36.23L15.4948-36.23C15.4948-38.312 17.1854-40 19.2648-40L46.1848-40C48.2642-40 49.9548-38.312 49.9548-36.23L49.9548-36.23ZM41.1348-23.05C41.1348-20.968 39.4442-19.28 37.3648-19.28L19.2648-19.28C17.1854-19.28 15.4948-20.968 15.4948-23.05L15.4948-23.05C15.4948-25.132 17.1854-26.82 19.2648-26.82L37.3648-26.82C39.4442-26.82 41.1348-25.132 41.1348-23.05L41.1348-23.05Z"/>
  </g>
  <g id="Regular-S" transform="matrix(1 0 0 1 1407.56 696)">
   <path class="SFSymbolsPreviewWireframe" d="M1.12-55.518L1.12-15.039C1.12-6.836 5.27-2.734 13.57-2.734L53.61-2.734C58.98-2.734 61.32-3.32 64.79-6.689L79.49-20.953C82.76-24.127 83.45-26.764 83.45-31.451L83.45-55.518C83.45-63.721 79.3-67.773 71-67.773L13.57-67.773C5.23-67.773 1.12-63.721 1.12-55.518ZM8.15-55.176C8.15-58.838 10.16-60.742 13.67-60.742L70.9-60.742C74.41-60.742 76.42-58.838 76.42-55.127L76.42-32.672L60.69-32.672C55.61-32.672 53.02-30.084 53.02-25.006L53.02-9.814L13.67-9.814C10.16-9.814 8.15-11.719 8.15-15.381L8.15-55.176ZM59.61-24.176C59.61-25.543 60.2-26.129 61.57-26.129L75.1-26.129L59.61-11.133L59.61-24.176ZM69.44-49.5C69.44-47.567 67.87-46 65.94-46L17.94-46C16.01-46 14.44-47.567 14.44-49.5L14.44-49.5C14.44-51.433 16.01-53 17.94-53L65.94-53C67.87-53 69.44-51.433 69.44-49.5L69.44-49.5ZM49.44-36.5C49.44-34.567 47.87-33 45.94-33L17.94-33C16.01-33 14.44-34.567 14.44-36.5L14.44-36.5C14.44-38.433 16.01-40 17.94-40L45.94-40C47.87-40 49.44-38.433 49.44-36.5L49.44-36.5ZM40.44-23.5C40.44-21.567 38.87-20 36.94-20L17.94-20C16.01-20 14.44-21.567 14.44-23.5L14.44-23.5C14.44-25.433 16.01-27 17.94-27L36.94-27C38.87-27 40.44-25.433 40.44-23.5L40.44-23.5Z"/>
  </g>
  <g id="Light-S" transform="matrix(1 0 0 1 1111.47 696)">
   <path class="SFSymbolsPreviewWireframe" d="M0.650333-54.7473L0.650333-15.625C0.650333-8.228 4.578-4.48933 12.2963-4.48933L53.6843-4.48933C58.1803-4.48933 60.16-5.02533 63.0253-7.754L79.166-23.5717C81.909-26.166 82.537-28.3117 82.537-32.2257L82.537-54.7473C82.537-62.1043 78.6093-65.8487 70.8913-65.8487L12.2963-65.8487C4.55-65.8487 0.650333-62.131 0.650333-54.7473ZM6.079-54.4857C6.079-58.4553 8.317-60.5103 12.3957-60.5103L70.7917-60.5103C74.7943-60.5103 77.1083-58.4553 77.1083-54.452L77.1083-32.7717L60.439-32.7717C55.8393-32.7717 53.6117-30.513 53.6117-26.157L53.6117-9.848L12.3957-9.848C8.317-9.848 6.079-11.917 6.079-15.8867L6.079-54.4857ZM58.7367-25.56C58.7367-27.126 59.4173-27.7683 61.0617-27.7683L76.0303-27.7683L58.7367-10.901L58.7367-25.56ZM70.197-48C70.197-46.5273 69.001-45.3333 67.5303-45.3333L15.197-45.3333C13.7263-45.3333 12.5303-46.5273 12.5303-48L12.5303-48C12.5303-49.4727 13.7263-50.6667 15.197-50.6667L67.5303-50.6667C69.001-50.6667 70.197-49.4727 70.197-48L70.197-48ZM49.197-36C49.197-34.5273 48.001-33.3333 46.5303-33.3333L15.197-33.3333C13.7263-33.3333 12.5303-34.5273 12.5303-36L12.5303-36C12.5303-37.4727 13.7263-38.6667 15.197-38.6667L46.5303-38.6667C48.001-38.6667 49.197-37.4727 49.197-36L49.197-36ZM39.8637-24C39.8637-22.5273 38.6677-21.3333 37.197-21.3333L15.197-21.3333C13.7263-21.3333 12.5303-22.5273 12.5303-24L12.5303-24C12.5303-25.4727 13.7263-26.6667 15.197-26.6667L37.197-26.6667C38.6677-26.6667 39.8637-25.4727 39.8637-24L39.8637-24Z"/>
  </g>
  <g id="Thin-S" transform="matrix(1 0 0 1 815.58 696)">
   <path class="SFSymbolsPreviewWireframe" d="M0.0291613-53.7281L0.0291613-16.4C0.0291613-10.069 3.66277-6.8109 10.6118-6.8109L53.7826-6.8109C57.1227-6.8109 58.6258-7.28077 60.6914-9.16255L78.7375-27.0351C80.7835-28.8627 81.3295-30.3586 81.3295-33.2502L81.3295-53.7281C81.3295-59.9662 77.6959-63.3036 70.7476-63.3036L10.6118-63.3036C3.65065-63.3036 0.0291613-60.0281 0.0291613-53.7281ZM3.33994-53.5726C3.33994-57.9492 5.87948-60.2039 10.7103-60.2039L70.6484-60.2039C75.3026-60.2039 78.0187-57.9492 78.0187-53.5593L78.0187-32.9035L60.107-32.9035C56.1426-32.9035 54.3942-31.0804 54.3942-27.6793L54.3942-9.89297L10.7103-9.89297C5.87948-9.89297 3.33994-12.1789 3.33994-16.5555L3.33994-53.5726ZM57.5816-27.3905C57.5816-29.2196 58.3822-29.9365 60.3894-29.9365L77.2608-29.9365L57.5816-10.5942L57.5816-27.3905ZM71.1982-46.0161C71.1982-45.1523 70.4968-44.4516 69.6337-44.4516L11.5692-44.4516C10.706-44.4516 10.0046-45.1523 10.0046-46.0161L10.0046-46.0161C10.0046-46.88 10.706-47.5806 11.5692-47.5806L69.6337-47.5806C70.4968-47.5806 71.1982-46.88 71.1982-46.0161L71.1982-46.0161ZM48.8756-35.3387C48.8756-34.4749 48.1743-33.7742 47.3111-33.7742L11.5692-33.7742C10.706-33.7742 10.0046-34.4749 10.0046-35.3387L10.0046-35.3387C10.0046-36.2025 10.706-36.9032 11.5692-36.9032L47.3111-36.9032C48.1743-36.9032 48.8756-36.2025 48.8756-35.3387L48.8756-35.3387ZM39.1014-24.6613C39.1014-23.7975 38.4001-23.0968 37.5369-23.0968L11.5692-23.0968C10.706-23.0968 10.0046-23.7975 10.0046-24.6613L10.0046-24.6613C10.0046-25.5251 10.706-26.2258 11.5692-26.2258L37.5369-26.2258C38.4001-26.2258 39.1014-25.5251 39.1014-24.6613L39.1014-24.6613Z"/>
  </g>
  <g id="Ultralight-S" transform="matrix(1 0 0 1 519.289 696)">
   <path class="SFSymbolsPreviewWireframe" d="M-0.289-53.206L-0.289-16.797C-0.289-11.012 3.194-8 9.749-8L53.833-8C56.581-8 57.84-8.436 59.496-9.884L78.518-28.809C80.207-30.244 80.711-31.407 80.711-33.775L80.711-53.206C80.711-58.871 77.228-62 70.674-62L9.749-62C3.19-62-0.289-58.951-0.289-53.206ZM1.937-53.105C1.937-57.69 4.631-60.047 9.847-60.047L70.575-60.047C75.563-60.047 78.485-57.69 78.485-53.102L78.485-32.971L59.937-32.971C56.298-32.971 54.795-31.371 54.795-28.459L54.795-9.916L9.847-9.916C4.631-9.916 1.937-12.313 1.937-16.898L1.937-53.105ZM56.99-28.328C56.99-30.292 57.852-31.047 60.045-31.047L77.891-31.047L56.99-10.437L56.99-28.328ZM71.711-45C71.711-44.448 71.263-44 70.711-44L9.711-44C9.159-44 8.711-44.448 8.711-45L8.711-45C8.711-45.552 9.159-46 9.711-46L70.711-46C71.263-46 71.711-45.552 71.711-45L71.711-45ZM48.711-35C48.711-34.448 48.263-34 47.711-34L9.711-34C9.159-34 8.711-34.448 8.711-35L8.711-35C8.711-35.552 9.159-36 9.711-36L47.711-36C48.263-36 48.711-35.552 48.711-35L48.711-35ZM38.711-25C38.711-24.448 38.263-24 37.711-24L9.711-24C9.159-24 8.711-24.448 8.711-25L8.711-25C8.711-25.552 9.159-26 9.711-26L37.711-26C38.263-26 38.711-25.552 38.711-25L38.711-25Z"/>
  </g>
 </g>
</svg>
