<?xml version="1.0" encoding="UTF-8"?>
<!--Generator: Apple Native CoreSVG 232.5-->
<!DOCTYPE svg
PUBLIC "-//W3C//DTD SVG 1.1//EN"
       "http://www.w3.org/Graphics/SVG/1.1/DTD/svg11.dtd">
<svg version="1.1" xmlns="http://www.w3.org/2000/svg" xmlns:xlink="http://www.w3.org/1999/xlink" width="3300" height="2200">
 <!--glyph: "", point size: 100.0, font version: "19.2d2e1", template writer version: "128"-->
 <style>.monochrome-0 {-sfsymbols-motion-group:0}

.multicolor-0:tintColor {-sfsymbols-motion-group:0}

.hierarchical-0:primary {-sfsymbols-motion-group:0}

.SFSymbolsPreviewWireframe {fill:none;opacity:1.0;stroke:black;stroke-width:0.5}
</style>
 <g id="Notes">
  <rect height="2200" id="artboard" style="fill:white;opacity:1" width="3300" x="0" y="0"/>
  <line style="fill:none;stroke:black;opacity:1;stroke-width:0.5;" x1="263" x2="3036" y1="292" y2="292"/>
  <text style="stroke:none;fill:black;font-family:sans-serif;font-size:13;font-weight:bold;" transform="matrix(1 0 0 1 263 322)">Weight/Scale Variations</text>
  <text style="stroke:none;fill:black;font-family:sans-serif;font-size:13;text-anchor:middle;" transform="matrix(1 0 0 1 559.711 322)">Ultralight</text>
  <text style="stroke:none;fill:black;font-family:sans-serif;font-size:13;text-anchor:middle;" transform="matrix(1 0 0 1 856.422 322)">Thin</text>
  <text style="stroke:none;fill:black;font-family:sans-serif;font-size:13;text-anchor:middle;" transform="matrix(1 0 0 1 1153.13 322)">Light</text>
  <text style="stroke:none;fill:black;font-family:sans-serif;font-size:13;text-anchor:middle;" transform="matrix(1 0 0 1 1449.84 322)">Regular</text>
  <text style="stroke:none;fill:black;font-family:sans-serif;font-size:13;text-anchor:middle;" transform="matrix(1 0 0 1 1746.56 322)">Medium</text>
  <text style="stroke:none;fill:black;font-family:sans-serif;font-size:13;text-anchor:middle;" transform="matrix(1 0 0 1 2043.27 322)">Semibold</text>
  <text style="stroke:none;fill:black;font-family:sans-serif;font-size:13;text-anchor:middle;" transform="matrix(1 0 0 1 2339.98 322)">Bold</text>
  <text style="stroke:none;fill:black;font-family:sans-serif;font-size:13;text-anchor:middle;" transform="matrix(1 0 0 1 2636.69 322)">Heavy</text>
  <text style="stroke:none;fill:black;font-family:sans-serif;font-size:13;text-anchor:middle;" transform="matrix(1 0 0 1 2933.4 322)">Black</text>
  <line style="fill:none;stroke:black;opacity:1;stroke-width:0.5;" x1="263" x2="3036" y1="1903" y2="1903"/>
  <g transform="matrix(0.2 0 0 0.2 263 1933)">
   <path d="m46.2402 4.15039c21.5332 0 39.4531-17.8711 39.4531-39.4043s-17.9688-39.4043-39.502-39.4043c-21.4844 0-39.3555 17.8711-39.3555 39.4043s17.9199 39.4043 39.4043 39.4043Zm0-7.42188c-17.7246 0-31.8848-14.209-31.8848-31.9824s14.1113-31.9824 31.8359-31.9824c17.7734 0 32.0312 14.209 32.0312 31.9824s-14.209 31.9824-31.9824 31.9824Zm-17.9688-31.9824c0 2.14844 1.51367 3.61328 3.75977 3.61328h10.498v10.5957c0 2.19727 1.46484 3.71094 3.61328 3.71094 2.24609 0 3.71094-1.51367 3.71094-3.71094v-10.5957h10.5957c2.19727 0 3.71094-1.46484 3.71094-3.61328 0-2.19727-1.51367-3.71094-3.71094-3.71094h-10.5957v-10.5469c0-2.24609-1.46484-3.75977-3.71094-3.75977-2.14844 0-3.61328 1.51367-3.61328 3.75977v10.5469h-10.498c-2.24609 0-3.75977 1.51367-3.75977 3.71094Z"/>
  </g>
  <g transform="matrix(0.2 0 0 0.2 281.506 1933)">
   <path d="m58.5449 14.5508c27.2461 0 49.8047-22.6074 49.8047-49.8047 0-27.2461-22.6074-49.8047-49.8535-49.8047-27.1973 0-49.7559 22.5586-49.7559 49.8047 0 27.1973 22.6074 49.8047 49.8047 49.8047Zm0-8.30078c-23.0469 0-41.4551-18.457-41.4551-41.5039s18.3594-41.5039 41.4062-41.5039 41.5527 18.457 41.5527 41.5039-18.457 41.5039-41.5039 41.5039Zm-22.6562-41.5039c0 2.39258 1.66016 4.00391 4.15039 4.00391h14.3555v14.4043c0 2.44141 1.66016 4.15039 4.05273 4.15039 2.44141 0 4.15039-1.66016 4.15039-4.15039v-14.4043h14.4043c2.44141 0 4.15039-1.61133 4.15039-4.00391 0-2.44141-1.70898-4.15039-4.15039-4.15039h-14.4043v-14.3555c0-2.49023-1.70898-4.19922-4.15039-4.19922-2.39258 0-4.05273 1.70898-4.05273 4.19922v14.3555h-14.3555c-2.49023 0-4.15039 1.70898-4.15039 4.15039Z"/>
  </g>
  <g transform="matrix(0.2 0 0 0.2 304.924 1933)">
   <path d="m74.8535 28.3203c34.8145 0 63.623-28.8086 63.623-63.5742 0-34.8145-28.8574-63.623-63.6719-63.623-34.7656 0-63.5254 28.8086-63.5254 63.623 0 34.7656 28.8086 63.5742 63.5742 63.5742Zm0-9.08203c-30.1758 0-54.4434-24.3164-54.4434-54.4922 0-30.2246 24.2188-54.4922 54.3945-54.4922 30.2246 0 54.541 24.2676 54.541 54.4922 0 30.1758-24.2676 54.4922-54.4922 54.4922Zm-28.8574-54.4922c0 2.58789 1.85547 4.39453 4.58984 4.39453h19.7266v19.7754c0 2.68555 1.85547 4.58984 4.44336 4.58984 2.68555 0 4.54102-1.85547 4.54102-4.58984v-19.7754h19.7754c2.68555 0 4.58984-1.80664 4.58984-4.39453 0-2.73438-1.85547-4.58984-4.58984-4.58984h-19.7754v-19.7266c0-2.73438-1.85547-4.63867-4.54102-4.63867-2.58789 0-4.44336 1.9043-4.44336 4.63867v19.7266h-19.7266c-2.73438 0-4.58984 1.85547-4.58984 4.58984Z"/>
  </g>
  <text style="stroke:none;fill:black;font-family:sans-serif;font-size:13;font-weight:bold;" transform="matrix(1 0 0 1 263 1953)">Design Variations</text>
  <text style="stroke:none;fill:black;font-family:sans-serif;font-size:13;" transform="matrix(1 0 0 1 263 1971)">Symbols are supported in up to nine weights and three scales.</text>
  <text style="stroke:none;fill:black;font-family:sans-serif;font-size:13;" transform="matrix(1 0 0 1 263 1989)">For optimal layout with text and other symbols, vertically align</text>
  <text style="stroke:none;fill:black;font-family:sans-serif;font-size:13;" transform="matrix(1 0 0 1 263 2007)">symbols with the adjacent text.</text>
  <line style="fill:none;stroke:#00AEEF;stroke-width:0.5;opacity:1.0;" x1="776" x2="776" y1="1919" y2="1933"/>
  <g transform="matrix(0.2 0 0 0.2 776 1933)">
   <path d="m16.5527 0.78125c2.58789 0 3.85742-0.976562 4.78516-3.71094l6.29883-17.2363h28.8086l6.29883 17.2363c0.927734 2.73438 2.19727 3.71094 4.73633 3.71094 2.58789 0 4.24805-1.5625 4.24805-4.00391 0-0.830078-0.146484-1.61133-0.537109-2.63672l-22.9004-60.9863c-1.12305-2.97852-3.125-4.49219-6.25-4.49219-3.02734 0-5.07812 1.46484-6.15234 4.44336l-22.9004 61.084c-0.390625 1.02539-0.537109 1.80664-0.537109 2.63672 0 2.44141 1.5625 3.95508 4.10156 3.95508Zm13.4766-28.3691 11.8652-32.8613h0.244141l11.8652 32.8613Z"/>
  </g>
  <line style="fill:none;stroke:#00AEEF;stroke-width:0.5;opacity:1.0;" x1="792.836" x2="792.836" y1="1919" y2="1933"/>
  <text style="stroke:none;fill:black;font-family:sans-serif;font-size:13;font-weight:bold;" transform="matrix(1 0 0 1 776 1953)">Margins</text>
  <text style="stroke:none;fill:black;font-family:sans-serif;font-size:13;" transform="matrix(1 0 0 1 776 1971)">Leading and trailing margins on the left and right side of each symbol</text>
  <text style="stroke:none;fill:black;font-family:sans-serif;font-size:13;" transform="matrix(1 0 0 1 776 1989)">can be adjusted by modifying the x-location of the margin guidelines.</text>
  <text style="stroke:none;fill:black;font-family:sans-serif;font-size:13;" transform="matrix(1 0 0 1 776 2007)">Modifications are automatically applied proportionally to all</text>
  <text style="stroke:none;fill:black;font-family:sans-serif;font-size:13;" transform="matrix(1 0 0 1 776 2025)">scales and weights.</text>
  <g transform="matrix(0.2 0 0 0.2 1289 1933)">
   <path d="m14.209 9.32617 8.49609 8.54492c4.29688 4.3457 9.22852 4.05273 13.8672-1.07422l53.4668-58.9355-4.83398-4.88281-53.0762 58.3984c-1.75781 2.00195-3.41797 2.49023-5.76172 0.146484l-5.85938-5.81055c-2.34375-2.29492-1.80664-4.00391 0.195312-5.81055l57.373-54.0039-4.88281-4.83398-57.959 54.4434c-4.93164 4.58984-5.32227 9.47266-1.02539 13.8184Zm32.0801-90.9668c-2.09961 2.05078-2.24609 4.93164-1.07422 6.88477 1.17188 1.80664 3.4668 2.97852 6.68945 2.14844 7.32422-1.70898 14.9414-2.00195 22.0703 2.68555l-2.92969 7.27539c-1.70898 4.15039-0.830078 7.08008 1.85547 9.81445l11.4746 11.5723c2.44141 2.44141 4.49219 2.53906 7.32422 2.05078l5.32227-0.976562 3.32031 3.36914-0.195312 2.7832c-0.195312 2.49023 0.439453 4.39453 2.88086 6.78711l3.80859 3.71094c2.39258 2.39258 5.46875 2.53906 7.8125 0.195312l14.5508-14.5996c2.34375-2.34375 2.24609-5.32227-0.146484-7.71484l-3.85742-3.80859c-2.39258-2.39258-4.24805-3.17383-6.64062-2.97852l-2.88086 0.244141-3.22266-3.17383 1.2207-5.61523c0.634766-2.83203-0.146484-5.0293-3.07617-7.95898l-10.9863-10.9375c-16.6992-16.6016-38.8672-16.2109-53.3203-1.75781Zm7.4707 1.85547c12.1582-8.88672 28.6133-7.37305 39.7461 3.75977l12.1582 12.0605c1.17188 1.17188 1.36719 2.09961 1.02539 3.80859l-1.61133 7.42188 7.51953 7.42188 4.93164-0.292969c1.26953-0.0488281 1.66016 0.0488281 2.63672 1.02539l2.88086 2.88086-12.207 12.207-2.88086-2.88086c-0.976562-0.976562-1.12305-1.36719-1.07422-2.68555l0.341797-4.88281-7.4707-7.42188-7.61719 1.26953c-1.61133 0.341797-2.34375 0.195312-3.56445-0.976562l-10.0098-10.0098c-1.26953-1.17188-1.41602-2.00195-0.634766-3.85742l4.39453-10.4492c-7.8125-7.27539-17.9688-10.4004-28.125-7.42188-0.78125 0.195312-1.07422-0.439453-0.439453-0.976562Z"/>
  </g>
  <text style="stroke:none;fill:black;font-family:sans-serif;font-size:13;font-weight:bold;" transform="matrix(1 0 0 1 1289 1953)">Exporting</text>
  <text style="stroke:none;fill:black;font-family:sans-serif;font-size:13;" transform="matrix(1 0 0 1 1289 1971)">Symbols should be outlined when exporting to ensure the</text>
  <text style="stroke:none;fill:black;font-family:sans-serif;font-size:13;" transform="matrix(1 0 0 1 1289 1989)">design is preserved when submitting to Xcode.</text>
  <text id="template-version" style="stroke:none;fill:black;font-family:sans-serif;font-size:13;text-anchor:end;" transform="matrix(1 0 0 1 3036 1933)">Template v.5.0</text>
  <text style="stroke:none;fill:black;font-family:sans-serif;font-size:13;text-anchor:end;" transform="matrix(1 0 0 1 3036 1951)">Requires Xcode 15 or greater</text>
  <text id="descriptive-name" style="stroke:none;fill:black;font-family:sans-serif;font-size:13;text-anchor:end;" transform="matrix(1 0 0 1 3036 1969)">Generated from mosaic</text>
  <text style="stroke:none;fill:black;font-family:sans-serif;font-size:13;text-anchor:end;" transform="matrix(1 0 0 1 3036 1987)">Typeset at 100.0 points</text>
  <text style="stroke:none;fill:black;font-family:sans-serif;font-size:13;" transform="matrix(1 0 0 1 263 726)">Small</text>
  <text style="stroke:none;fill:black;font-family:sans-serif;font-size:13;" transform="matrix(1 0 0 1 263 1156)">Medium</text>
  <text style="stroke:none;fill:black;font-family:sans-serif;font-size:13;" transform="matrix(1 0 0 1 263 1586)">Large</text>
 </g>
 <g id="Guides">
  <g id="H-reference" style="fill:#27AAE1;stroke:none;" transform="matrix(1 0 0 1 339 696)">
   <path d="M0.993654 0L3.63775 0L29.3281-67.1323L30.0303-67.1323L30.0303-70.459L28.1226-70.459ZM11.6885-24.4799L46.9815-24.4799L46.2315-26.7285L12.4385-26.7285ZM55.1196 0L57.7637 0L30.6382-70.459L29.4326-70.459L29.4326-67.1323Z"/>
  </g>
  <line id="Baseline-S" style="fill:none;stroke:#27AAE1;opacity:1;stroke-width:0.5;" x1="263" x2="3036" y1="696" y2="696"/>
  <line id="Capline-S" style="fill:none;stroke:#27AAE1;opacity:1;stroke-width:0.5;" x1="263" x2="3036" y1="625.541" y2="625.541"/>
  <g id="H-reference" style="fill:#27AAE1;stroke:none;" transform="matrix(1 0 0 1 339 1126)">
   <path d="M0.993654 0L3.63775 0L29.3281-67.1323L30.0303-67.1323L30.0303-70.459L28.1226-70.459ZM11.6885-24.4799L46.9815-24.4799L46.2315-26.7285L12.4385-26.7285ZM55.1196 0L57.7637 0L30.6382-70.459L29.4326-70.459L29.4326-67.1323Z"/>
  </g>
  <line id="Baseline-M" style="fill:none;stroke:#27AAE1;opacity:1;stroke-width:0.5;" x1="263" x2="3036" y1="1126" y2="1126"/>
  <line id="Capline-M" style="fill:none;stroke:#27AAE1;opacity:1;stroke-width:0.5;" x1="263" x2="3036" y1="1055.54" y2="1055.54"/>
  <g id="H-reference" style="fill:#27AAE1;stroke:none;" transform="matrix(1 0 0 1 339 1556)">
   <path d="M0.993654 0L3.63775 0L29.3281-67.1323L30.0303-67.1323L30.0303-70.459L28.1226-70.459ZM11.6885-24.4799L46.9815-24.4799L46.2315-26.7285L12.4385-26.7285ZM55.1196 0L57.7637 0L30.6382-70.459L29.4326-70.459L29.4326-67.1323Z"/>
  </g>
  <line id="Baseline-L" style="fill:none;stroke:#27AAE1;opacity:1;stroke-width:0.5;" x1="263" x2="3036" y1="1556" y2="1556"/>
  <line id="Capline-L" style="fill:none;stroke:#27AAE1;opacity:1;stroke-width:0.5;" x1="263" x2="3036" y1="1485.54" y2="1485.54"/>
  <line id="left-margin-Regular-M" style="fill:none;stroke:#00AEEF;stroke-width:0.5;opacity:1.0;" x1="1392.39" x2="1392.39" y1="1030.79" y2="1150.12"/>
  <line id="right-margin-Regular-M" style="fill:none;stroke:#00AEEF;stroke-width:0.5;opacity:1.0;" x1="1507.3" x2="1507.3" y1="1030.79" y2="1150.12"/>
 </g>
 <g id="Symbols">
  <g id="Bold-L" transform="matrix(1 0 0 1 2265.36 1556)">
   <path class="monochrome-0 multicolor-0:tintColor hierarchical-0:primary SFSymbolsPreviewWireframe" d="M70.8232 26.851L27.6082 26.851Q21.3112 26.851 16.8802 22.422Q12.4512 17.991 12.4512 11.694L12.4512-82.154Q12.4512-88.517 16.8802-92.995Q21.3112-97.472 27.6082-97.472L70.8232-97.472L70.8232 26.851ZM55.6662 11.694L55.6662-82.154L27.6082-82.154Q27.6082-82.154 27.6082-82.154Q27.6082-82.154 27.6082-82.154L27.6082 11.694Q27.6082 11.694 27.6082 11.694Q27.6082 11.694 27.6082 11.694L55.6662 11.694ZM78.5632-39.261L78.5632-97.472L121.456-97.472Q127.819-97.472 132.297-92.995Q136.775-88.517 136.775-82.154L136.775-39.261L78.5632-39.261ZM93.8822-54.58L121.456-54.58L121.456-82.154Q121.456-82.154 121.456-82.154Q121.456-82.154 121.456-82.154L93.8822-82.154L93.8822-54.58ZM78.5632 26.851L78.5632-31.521L136.775-31.521L136.775 11.694Q136.775 17.991 132.297 22.422Q127.819 26.851 121.456 26.851L78.5632 26.851ZM93.8822 11.694L121.456 11.694Q121.456 11.694 121.456 11.694Q121.456 11.694 121.456 11.694L121.456-16.364L93.8822-16.364L93.8822 11.694Z"/>
  </g>
  <g id="Semibold-L" transform="matrix(1 0 0 1 1970.44 1556)">
   <path class="monochrome-0 multicolor-0:tintColor hierarchical-0:primary SFSymbolsPreviewWireframe" d="M68.6492 25.098L25.2252 25.098Q19.9832 25.098 16.2162 21.333Q12.4512 17.566 12.4512 12.324L12.4512-82.784Q12.4512-88.064 16.2162-91.856Q19.9832-95.65 25.2252-95.65L68.6492-95.65L68.6492 25.098ZM55.8752 12.324L55.8752-82.784L25.2252-82.784Q25.2252-82.784 25.2252-82.784Q25.2252-82.784 25.2252-82.784L25.2252 12.324Q25.2252 12.324 25.2252 12.324Q25.2252 12.324 25.2252 12.324L55.8752 12.324ZM77.2312-39.682L77.2312-95.65L120.333-95.65Q125.613-95.65 129.405-91.856Q133.199-88.064 133.199-82.784L133.199-39.682L77.2312-39.682ZM90.0962-52.547L120.333-52.547L120.333-82.784Q120.333-82.784 120.333-82.784Q120.333-82.784 120.333-82.784L90.0962-82.784L90.0962-52.547ZM77.2312 25.098L77.2312-31.1L133.199-31.1L133.199 12.324Q133.199 17.566 129.405 21.333Q125.613 25.098 120.333 25.098L77.2312 25.098ZM90.0962 12.324L120.333 12.324Q120.333 12.324 120.333 12.324Q120.333 12.324 120.333 12.324L120.333-18.326L90.0962-18.326L90.0962 12.324Z"/>
  </g>
  <g id="Medium-L" transform="matrix(1 0 0 1 1675.07 1556)">
   <path class="monochrome-0 multicolor-0:tintColor hierarchical-0:primary SFSymbolsPreviewWireframe" d="M67.0192 23.784L23.4372 23.784Q18.9862 23.784 15.7192 20.516Q12.4512 17.249 12.4512 12.798L12.4512-83.258Q12.4512-87.725 15.7192-91.003Q18.9862-94.283 23.4372-94.283L67.0192-94.283L67.0192 23.784ZM56.0332 12.798L56.0332-83.258L23.4372-83.258Q23.4372-83.258 23.4372-83.258Q23.4372-83.258 23.4372-83.258L23.4372 12.798Q23.4372 12.798 23.4372 12.798Q23.4372 12.798 23.4372 12.798L56.0332 12.798ZM76.2332-39.998L76.2332-94.283L119.493-94.283Q123.96-94.283 127.238-91.003Q130.518-87.725 130.518-83.258L130.518-39.998L76.2332-39.998ZM87.2562-51.021L119.493-51.021L119.493-83.258Q119.493-83.258 119.493-83.258Q119.493-83.258 119.493-83.258L87.2562-83.258L87.2562-51.021ZM76.2332 23.784L76.2332-30.784L130.518-30.784L130.518 12.798Q130.518 17.249 127.238 20.516Q123.96 23.784 119.493 23.784L76.2332 23.784ZM87.2562 12.798L119.493 12.798Q119.493 12.798 119.493 12.798Q119.493 12.798 119.493 12.798L119.493-19.798L87.2562-19.798L87.2562 12.798Z"/>
  </g>
  <g id="Regular-L" transform="matrix(1 0 0 1 1379.34 1556)">
   <path class="monochrome-0 multicolor-0:tintColor hierarchical-0:primary SFSymbolsPreviewWireframe" d="M65.8252 22.82L22.1262 22.82Q18.2562 22.82 15.3542 19.918Q12.4512 17.015 12.4512 13.145L12.4512-83.605Q12.4512-87.475 15.3542-90.377Q18.2562-93.28 22.1262-93.28L65.8252-93.28L65.8252 22.82ZM56.1502 13.145L56.1502-83.605L22.1262-83.605Q22.1262-83.605 22.1262-83.605Q22.1262-83.605 22.1262-83.605L22.1262 13.145Q22.1262 13.145 22.1262 13.145Q22.1262 13.145 22.1262 13.145L56.1502 13.145ZM75.5002-40.229L75.5002-93.28L118.876-93.28Q122.746-93.28 125.649-90.377Q128.551-87.475 128.551-83.605L128.551-40.229L75.5002-40.229ZM85.1752-49.904L118.876-49.904L118.876-83.605Q118.876-83.605 118.876-83.605Q118.876-83.605 118.876-83.605L85.1752-83.605L85.1752-49.904ZM75.5002 22.82L75.5002-30.554L128.551-30.554L128.551 13.145Q128.551 17.015 125.649 19.918Q122.746 22.82 118.876 22.82L75.5002 22.82ZM85.1752 13.145L118.876 13.145Q118.876 13.145 118.876 13.145Q118.876 13.145 118.876 13.145L118.876-20.879L85.1752-20.879L85.1752 13.145Z"/>
  </g>
  <g id="Light-L" transform="matrix(1 0 0 1 1085.86 1556)">
   <path class="monochrome-0 multicolor-0:tintColor hierarchical-0:primary SFSymbolsPreviewWireframe" d="M62.1032 19.595L21.7542 19.595Q17.9592 19.595 15.2052 16.841Q12.4512 14.087 12.4512 10.292L12.4512-80.752Q12.4512-84.547 15.2052-87.301Q17.9592-90.055 21.7542-90.055L62.1032-90.055L62.1032 19.595ZM54.7862 12.276L54.7862-82.736L21.7542-82.736Q20.8862-82.736 20.3282-82.178Q19.7702-81.62 19.7702-80.752L19.7702 10.292Q19.7702 11.16 20.3282 11.718Q20.8862 12.276 21.7542 12.276L54.7862 12.276ZM72.6472-40.601L72.6472-90.055L112.798-90.055Q116.593-90.055 119.347-87.301Q122.101-84.547 122.101-80.752L122.101-40.601L72.6472-40.601ZM79.9652-47.919L114.782-47.919L114.782-80.752Q114.782-81.62 114.224-82.178Q113.666-82.736 112.798-82.736L79.9652-82.736L79.9652-47.919ZM72.6472 19.595L72.6472-30.057L122.101-30.057L122.101 10.292Q122.101 14.087 119.347 16.841Q116.593 19.595 112.798 19.595L72.6472 19.595ZM79.9652 12.276L112.798 12.276Q113.666 12.276 114.224 11.718Q114.782 11.16 114.782 10.292L114.782-22.74L79.9652-22.74L79.9652 12.276Z"/>
  </g>
  <g id="Thin-L" transform="matrix(1 0 0 1 792.371 1556)">
   <path class="monochrome-0 multicolor-0:tintColor hierarchical-0:primary SFSymbolsPreviewWireframe" d="M58.3832 16.37L21.3812 16.37Q17.6642 16.37 15.0572 13.764Q12.4512 11.157 12.4512 7.44L12.4512-77.9Q12.4512-81.617 15.0572-84.224Q17.6642-86.83 21.3812-86.83L58.3832-86.83L58.3832 16.37ZM53.4212 11.408L53.4212-81.868L21.3812-81.868Q19.6462-81.868 18.5292-80.752Q17.4132-79.635 17.4132-77.9L17.4132 7.44Q17.4132 9.175 18.5292 10.292Q19.6462 11.408 21.3812 11.408L53.4212 11.408ZM69.7952-40.974L69.7952-86.83L106.721-86.83Q110.438-86.83 113.045-84.224Q115.651-81.617 115.651-77.9L115.651-40.974L69.7952-40.974ZM74.7552-45.934L110.689-45.934L110.689-77.9Q110.689-79.635 109.573-80.752Q108.456-81.868 106.721-81.868L74.7552-81.868L74.7552-45.934ZM69.7952 16.37L69.7952-29.562L115.651-29.562L115.651 7.44Q115.651 11.157 113.045 13.764Q110.438 16.37 106.721 16.37L69.7952 16.37ZM74.7552 11.408L106.721 11.408Q108.456 11.408 109.573 10.292Q110.689 9.175 110.689 7.44L110.689-24.6L74.7552-24.6L74.7552 11.408Z"/>
  </g>
  <g id="Ultralight-L" transform="matrix(1 0 0 1 497.595 1556)">
   <path class="monochrome-0 multicolor-0:tintColor hierarchical-0:primary SFSymbolsPreviewWireframe" d="M56.1502 14.435L21.1592 14.435Q17.4872 14.435 14.9682 11.918Q12.4512 9.399 12.4512 5.728L12.4512-76.187Q12.4512-79.861 14.9682-82.378Q17.4872-84.895 21.1592-84.895L56.1502-84.895L56.1502 14.435ZM52.6022 10.888L52.6022-81.347L21.1592-81.347Q18.9012-81.347 17.4502-79.896Q15.9992-78.445 15.9992-76.187L15.9992 5.728Q15.9992 7.985 17.4502 9.436Q18.9012 10.888 21.1592 10.888L52.6022 10.888ZM68.0822-41.196L68.0822-84.895L103.074-84.895Q106.747-84.895 109.264-82.378Q111.781-79.861 111.781-76.187L111.781-41.196L68.0822-41.196ZM71.6302-44.744L108.233-44.744L108.233-76.187Q108.233-78.445 106.782-79.896Q105.331-81.347 103.074-81.347L71.6302-81.347L71.6302-44.744ZM68.0822 14.435L68.0822-29.264L111.781-29.264L111.781 5.728Q111.781 9.399 109.264 11.918Q106.747 14.435 103.074 14.435L68.0822 14.435ZM71.6302 10.888L103.074 10.888Q105.331 10.888 106.782 9.436Q108.233 7.985 108.233 5.728L108.233-25.716L71.6302-25.716L71.6302 10.888Z"/>
  </g>
  <g id="Bold-M" transform="matrix(1 0 0 1 2278.28 1126)">
   <path class="monochrome-0 multicolor-0:tintColor hierarchical-0:primary SFSymbolsPreviewWireframe" d="M57.7012 14.02L28.2012 14.02Q21.5762 14.02 17.0132 9.458Q12.4512 4.895 12.4512-1.73L12.4512-68.73Q12.4512-75.355 17.0132-79.917Q21.5762-84.48 28.2012-84.48L57.7012-84.48L57.7012 14.02ZM41.9512-1.73L41.9512-68.73L28.2012-68.73Q28.2012-68.73 28.2012-68.73Q28.2012-68.73 28.2012-68.73L28.2012-1.73Q28.2012-1.73 28.2012-1.73Q28.2012-1.73 28.2012-1.73L41.9512-1.73ZM65.7012-39.23L65.7012-84.48L95.2012-84.48Q101.826-84.48 106.389-79.917Q110.951-75.355 110.951-68.73L110.951-39.23L65.7012-39.23ZM81.4512-54.98L95.2012-54.98L95.2012-68.73Q95.2012-68.73 95.2012-68.73Q95.2012-68.73 95.2012-68.73L81.4512-68.73L81.4512-54.98ZM65.7012 14.02L65.7012-31.23L110.951-31.23L110.951-1.73Q110.951 4.895 106.389 9.458Q101.826 14.02 95.2012 14.02L65.7012 14.02ZM81.4512-1.73L95.2012-1.73Q95.2012-1.73 95.2012-1.73Q95.2012-1.73 95.2012-1.73L95.2012-15.48L81.4512-15.48L81.4512-1.73Z"/>
  </g>
  <g id="Semibold-M" transform="matrix(1 0 0 1 1983.41 1126)">
   <path class="monochrome-0 multicolor-0:tintColor hierarchical-0:primary SFSymbolsPreviewWireframe" d="M55.4182 12.173L25.7012 12.173Q20.1632 12.173 16.3072 8.316Q12.4512 4.46 12.4512-1.077L12.4512-69.382Q12.4512-74.92 16.3072-78.776Q20.1632-82.632 25.7012-82.632L55.4182-82.632L55.4182 12.173ZM42.1682-1.077L42.1682-69.382L25.7012-69.382Q25.7012-69.382 25.7012-69.382Q25.7012-69.382 25.7012-69.382L25.7012-1.077Q25.7012-1.077 25.7012-1.077Q25.7012-1.077 25.7012-1.077L42.1682-1.077ZM64.2882-39.665L64.2882-82.632L94.0062-82.632Q99.5432-82.632 103.399-78.776Q107.256-74.92 107.256-69.382L107.256-39.665L64.2882-39.665ZM77.5382-52.915L94.0062-52.915L94.0062-69.382Q94.0062-69.382 94.0062-69.382Q94.0062-69.382 94.0062-69.382L77.5382-69.382L77.5382-52.915ZM64.2882 12.173L64.2882-30.795L107.256-30.795L107.256-1.077Q107.256 4.46 103.399 8.316Q99.5432 12.173 94.0062 12.173L64.2882 12.173ZM77.5382-1.077L94.0062-1.077Q94.0062-1.077 94.0062-1.077Q94.0062-1.077 94.0062-1.077L94.0062-17.545L77.5382-17.545L77.5382-1.077Z"/>
  </g>
  <g id="Medium-M" transform="matrix(1 0 0 1 1688.09 1126)">
   <path class="monochrome-0 multicolor-0:tintColor hierarchical-0:primary SFSymbolsPreviewWireframe" d="M53.7062 10.786L23.8262 10.786Q19.1032 10.786 15.7772 7.46Q12.4512 4.134 12.4512-0.589L12.4512-69.871Q12.4512-74.594 15.7772-77.92Q19.1032-81.246 23.8262-81.246L53.7062-81.246L53.7062 10.786ZM42.3312-0.589L42.3312-69.871L23.8262-69.871Q23.8262-69.871 23.8262-69.871Q23.8262-69.871 23.8262-69.871L23.8262-0.589Q23.8262-0.589 23.8262-0.589Q23.8262-0.589 23.8262-0.589L42.3312-0.589ZM63.2282-39.991L63.2282-81.246L93.1082-81.246Q97.8312-81.246 101.157-77.92Q104.483-74.594 104.483-69.871L104.483-39.991L63.2282-39.991ZM74.6032-51.366L93.1082-51.366L93.1082-69.871Q93.1082-69.871 93.1082-69.871Q93.1082-69.871 93.1082-69.871L74.6032-69.871L74.6032-51.366ZM63.2282 10.786L63.2282-30.469L104.483-30.469L104.483-0.589Q104.483 4.134 101.157 7.46Q97.8312 10.786 93.1082 10.786L63.2282 10.786ZM74.6032-0.589L93.1082-0.589Q93.1082-0.589 93.1082-0.589Q93.1082-0.589 93.1082-0.589L93.1082-19.094L74.6032-19.094L74.6032-0.589Z"/>
  </g>
  <g id="Regular-M" transform="matrix(1 0 0 1 1392.39 1126)">
   <path class="monochrome-0 multicolor-0:tintColor hierarchical-0:primary SFSymbolsPreviewWireframe" d="M52.4512 9.77L22.4512 9.77Q18.3262 9.77 15.3892 6.833Q12.4512 3.895 12.4512-0.23L12.4512-70.23Q12.4512-74.355 15.3892-77.292Q18.3262-80.23 22.4512-80.23L52.4512-80.23L52.4512 9.77ZM42.4512-0.23L42.4512-70.23L22.4512-70.23Q22.4512-70.23 22.4512-70.23Q22.4512-70.23 22.4512-70.23L22.4512-0.23Q22.4512-0.23 22.4512-0.23Q22.4512-0.23 22.4512-0.23L42.4512-0.23ZM62.4512-40.23L62.4512-80.23L92.4512-80.23Q96.5762-80.23 99.5132-77.292Q102.451-74.355 102.451-70.23L102.451-40.23L62.4512-40.23ZM72.4512-50.23L92.4512-50.23L92.4512-70.23Q92.4512-70.23 92.4512-70.23Q92.4512-70.23 92.4512-70.23L72.4512-70.23L72.4512-50.23ZM62.4512 9.77L62.4512-30.23L102.451-30.23L102.451-0.23Q102.451 3.895 99.5132 6.833Q96.5762 9.77 92.4512 9.77L62.4512 9.77ZM72.4512-0.23L92.4512-0.23Q92.4512-0.23 92.4512-0.23Q92.4512-0.23 92.4512-0.23L92.4512-20.23L72.4512-20.23L72.4512-0.23Z"/>
  </g>
  <g id="Light-M" transform="matrix(1 0 0 1 1098.18 1126)">
   <path class="monochrome-0 multicolor-0:tintColor hierarchical-0:primary SFSymbolsPreviewWireframe" d="M49.9512 7.27L21.4902 7.27Q17.7012 7.27 15.0762 4.645Q12.4512 2.02 12.4512-1.769L12.4512-68.691Q12.4512-72.48 15.0762-75.105Q17.7012-77.73 21.4902-77.73L49.9512-77.73L49.9512 7.27ZM42.4512-0.23L42.4512-70.23L21.4902-70.23Q20.8162-70.23 20.3842-69.797Q19.9512-69.365 19.9512-68.691L19.9512-1.769Q19.9512-1.095 20.3842-0.662Q20.8162-0.23 21.4902-0.23L42.4512-0.23ZM59.9512-40.23L59.9512-77.73L88.4122-77.73Q92.2012-77.73 94.8262-75.105Q97.4512-72.48 97.4512-68.691L97.4512-40.23L59.9512-40.23ZM67.4512-47.73L89.9512-47.73L89.9512-68.691Q89.9512-69.365 89.5182-69.797Q89.0862-70.23 88.4122-70.23L67.4512-70.23L67.4512-47.73ZM59.9512 7.27L59.9512-30.23L97.4512-30.23L97.4512-1.769Q97.4512 2.02 94.8262 4.645Q92.2012 7.27 88.4122 7.27L59.9512 7.27ZM67.4512-0.23L88.4122-0.23Q89.0862-0.23 89.5182-0.662Q89.9512-1.095 89.9512-1.769L89.9512-22.73L67.4512-22.73L67.4512-0.23Z"/>
  </g>
  <g id="Thin-M" transform="matrix(1 0 0 1 803.971 1126)">
   <path class="monochrome-0 multicolor-0:tintColor hierarchical-0:primary SFSymbolsPreviewWireframe" d="M47.4512 4.77L20.5292 4.77Q17.0762 4.77 14.7632 2.458Q12.4512 0.145 12.4512-3.307L12.4512-67.152Q12.4512-70.605 14.7632-72.917Q17.0762-75.23 20.5292-75.23L47.4512-75.23L47.4512 4.77ZM42.4512-0.23L42.4512-70.23L20.5292-70.23Q19.1822-70.23 18.3162-69.365Q17.4512-68.499 17.4512-67.152L17.4512-3.307Q17.4512-1.961 18.3162-1.095Q19.1822-0.23 20.5292-0.23L42.4512-0.23ZM57.4512-40.23L57.4512-75.23L84.3732-75.23Q87.8262-75.23 90.1392-72.917Q92.4512-70.605 92.4512-67.152L92.4512-40.23L57.4512-40.23ZM62.4512-45.23L87.4512-45.23L87.4512-67.152Q87.4512-68.499 86.5862-69.365Q85.7202-70.23 84.3732-70.23L62.4512-70.23L62.4512-45.23ZM57.4512 4.77L57.4512-30.23L92.4512-30.23L92.4512-3.307Q92.4512 0.145 90.1392 2.458Q87.8262 4.77 84.3732 4.77L57.4512 4.77ZM62.4512-0.23L84.3732-0.23Q85.7202-0.23 86.5862-1.095Q87.4512-1.961 87.4512-3.307L87.4512-25.23L62.4512-25.23L62.4512-0.23Z"/>
  </g>
  <g id="Ultralight-M" transform="matrix(1 0 0 1 508.76 1126)">
   <path class="monochrome-0 multicolor-0:tintColor hierarchical-0:primary SFSymbolsPreviewWireframe" d="M45.9512 3.27L19.9512 3.27Q16.7012 3.27 14.5762 1.145Q12.4512-0.98 12.4512-4.23L12.4512-66.23Q12.4512-69.48 14.5762-71.605Q16.7012-73.73 19.9512-73.73L45.9512-73.73L45.9512 3.27ZM42.4512-0.23L42.4512-70.23L19.9512-70.23Q18.2012-70.23 17.0762-69.105Q15.9512-67.98 15.9512-66.23L15.9512-4.23Q15.9512-2.48 17.0762-1.355Q18.2012-0.23 19.9512-0.23L42.4512-0.23ZM55.9512-40.23L55.9512-73.73L81.9512-73.73Q85.2012-73.73 87.3262-71.605Q89.4512-69.48 89.4512-66.23L89.4512-40.23L55.9512-40.23ZM59.4512-43.73L85.9512-43.73L85.9512-66.23Q85.9512-67.98 84.8262-69.105Q83.7012-70.23 81.9512-70.23L59.4512-70.23L59.4512-43.73ZM55.9512 3.27L55.9512-30.23L89.4512-30.23L89.4512-4.23Q89.4512-0.98 87.3262 1.145Q85.2012 3.27 81.9512 3.27L55.9512 3.27ZM59.4512-0.23L81.9512-0.23Q83.7012-0.23 84.8262-1.355Q85.9512-2.48 85.9512-4.23L85.9512-26.73L59.4512-26.73L59.4512-0.23Z"/>
  </g>
  <g id="Bold-S" transform="matrix(1 0 0 1 2291.04 696)">
   <path class="monochrome-0 multicolor-0:tintColor hierarchical-0:primary SFSymbolsPreviewWireframe" d="M46.1812 1.261L24.0882 1.261Q19.2562 1.261 15.8532-2.141Q12.4512-5.544 12.4512-10.376L12.4512-60.083Q12.4512-64.985 15.8532-68.353Q19.2562-71.721 24.0882-71.721L46.1812-71.721L46.1812 1.261ZM34.5432-10.376L34.5432-60.083L24.0882-60.083Q24.0882-60.083 24.0882-60.083Q24.0882-60.083 24.0882-60.083L24.0882-10.376Q24.0882-10.376 24.0882-10.376Q24.0882-10.376 24.0882-10.376L34.5432-10.376ZM51.7042-37.991L51.7042-71.721L73.7962-71.721Q78.6972-71.721 82.0652-68.353Q85.4332-64.985 85.4332-60.083L85.4332-37.991L51.7042-37.991ZM63.3412-49.629L73.7962-49.629L73.7962-60.083Q73.7962-60.083 73.7962-60.083Q73.7962-60.083 73.7962-60.083L63.3412-60.083L63.3412-49.629ZM51.7042 1.261L51.7042-32.468L85.4332-32.468L85.4332-10.376Q85.4332-5.544 82.0652-2.141Q78.6972 1.261 73.7962 1.261L51.7042 1.261ZM63.5392-10.376L73.7962-10.376Q73.7962-10.376 73.7962-10.376Q73.7962-10.376 73.7962-10.376L73.7962-20.732L63.5392-20.732L63.5392-10.376Z"/>
  </g>
  <g id="Semibold-S" transform="matrix(1 0 0 1 1995.78 696)">
   <path class="monochrome-0 multicolor-0:tintColor hierarchical-0:primary SFSymbolsPreviewWireframe" d="M44.3802-0.196L22.1172-0.196Q18.1422-0.196 15.2972-3.042Q12.4512-5.887 12.4512-9.862L12.4512-60.598Q12.4512-64.642 15.2972-67.453Q18.1422-70.264 22.1172-70.264L44.3802-70.264L44.3802-0.196ZM34.7152-9.862L34.7152-60.598L22.1172-60.598Q22.1172-60.598 22.1172-60.598Q22.1172-60.598 22.1172-60.598L22.1172-9.862Q22.1172-9.862 22.1172-9.862Q22.1172-9.862 22.1172-9.862L34.7152-9.862ZM50.5902-38.335L50.5902-70.264L72.8532-70.264Q76.8972-70.264 79.7082-67.453Q82.5192-64.642 82.5192-60.598L82.5192-38.335L50.5902-38.335ZM60.2552-48L72.8532-48L72.8532-60.598Q72.8532-60.598 72.8532-60.598Q72.8532-60.598 72.8532-60.598L60.2552-60.598L60.2552-48ZM50.5902-0.196L50.5902-32.125L82.5192-32.125L82.5192-9.862Q82.5192-5.887 79.7082-3.042Q76.8972-0.196 72.8532-0.196L50.5902-0.196ZM60.4522-9.862L72.8532-9.862Q72.8532-9.862 72.8532-9.862Q72.8532-9.862 72.8532-9.862L72.8532-22.361L60.4522-22.361L60.4522-9.862Z"/>
  </g>
  <g id="Medium-S" transform="matrix(1 0 0 1 1700.16 696)">
   <path class="monochrome-0 multicolor-0:tintColor hierarchical-0:primary SFSymbolsPreviewWireframe" d="M43.0292-1.29L20.6372-1.29Q17.3062-1.29 14.8782-3.717Q12.4512-6.145 12.4512-9.476L12.4512-60.984Q12.4512-64.385 14.8782-66.777Q17.3062-69.17 20.6372-69.17L43.0292-69.17L43.0292-1.29ZM34.8432-9.476L34.8432-60.984L20.6372-60.984Q20.6372-60.984 20.6372-60.984Q20.6372-60.984 20.6372-60.984L20.6372-9.476Q20.6372-9.476 20.6372-9.476Q20.6372-9.476 20.6372-9.476L34.8432-9.476ZM49.7532-38.592L49.7532-69.17L72.1452-69.17Q75.5462-69.17 77.9382-66.777Q80.3312-64.385 80.3312-60.984L80.3312-38.592L49.7532-38.592ZM57.9392-46.778L72.1452-46.778L72.1452-60.984Q72.1452-60.984 72.1452-60.984Q72.1452-60.984 72.1452-60.984L57.9392-60.984L57.9392-46.778ZM49.7532-1.29L49.7532-31.868L80.3312-31.868L80.3312-9.476Q80.3312-6.145 77.9382-3.717Q75.5462-1.29 72.1452-1.29L49.7532-1.29ZM58.1362-9.476L72.1452-9.476Q72.1452-9.476 72.1452-9.476Q72.1452-9.476 72.1452-9.476L72.1452-23.583L58.1362-23.583L58.1362-9.476Z"/>
  </g>
  <g id="Regular-S" transform="matrix(1 0 0 1 1404.26 696)">
   <path class="monochrome-0 multicolor-0:tintColor hierarchical-0:primary SFSymbolsPreviewWireframe" d="M42.0392-2.092L19.5522-2.092Q16.6922-2.092 14.5712-4.212Q12.4512-6.333 12.4512-9.193L12.4512-61.267Q12.4512-64.196 14.5712-66.282Q16.6922-68.368 19.5522-68.368L42.0392-68.368L42.0392-2.092ZM34.9382-9.193L34.9382-61.267L19.5522-61.267Q19.5522-61.267 19.5522-61.267Q19.5522-61.267 19.5522-61.267L19.5522-9.193Q19.5522-9.193 19.5522-9.193Q19.5522-9.193 19.5522-9.193L34.9382-9.193ZM49.1402-38.78L49.1402-68.368L71.6262-68.368Q74.5552-68.368 76.6412-66.282Q78.7272-64.196 78.7272-61.267L78.7272-38.78L49.1402-38.78ZM56.2412-45.881L71.6262-45.881L71.6262-61.267Q71.6262-61.267 71.6262-61.267Q71.6262-61.267 71.6262-61.267L56.2412-61.267L56.2412-45.881ZM49.1402-2.092L49.1402-31.679L78.7272-31.679L78.7272-9.193Q78.7272-6.333 76.6412-4.212Q74.5552-2.092 71.6262-2.092L49.1402-2.092ZM56.4382-9.193L71.6262-9.193Q71.6262-9.193 71.6262-9.193Q71.6262-9.193 71.6262-9.193L71.6262-24.48L56.4382-24.48L56.4382-9.193Z"/>
  </g>
  <g id="Light-S" transform="matrix(1 0 0 1 1109.52 696)">
   <path class="monochrome-0 multicolor-0:tintColor hierarchical-0:primary SFSymbolsPreviewWireframe" d="M40.0662-4.064L18.7932-4.064Q16.1982-4.064 14.3242-5.938Q12.4512-7.812 12.4512-10.407L12.4512-60.053Q12.4512-62.717 14.3242-64.556Q16.1982-66.395 18.7932-66.395L40.0662-66.395L40.0662-4.064ZM34.9372-9.193L34.9372-61.267L18.7932-61.267Q18.2612-61.267 17.9202-60.926Q17.5792-60.585 17.5792-60.053L17.5792-10.407Q17.5792-9.875 17.9202-9.534Q18.2612-9.193 18.7932-9.193L34.9372-9.193ZM47.1672-38.78L47.1672-66.395L68.4392-66.395Q71.1032-66.395 72.9422-64.556Q74.7812-62.717 74.7812-60.053L74.7812-38.78L47.1672-38.78ZM52.2952-43.909L69.6532-43.909L69.6532-60.053Q69.6532-60.585 69.3122-60.926Q68.9712-61.267 68.4392-61.267L52.2952-61.267L52.2952-43.909ZM47.1672-4.064L47.1672-31.679L74.7812-31.679L74.7812-10.407Q74.7812-7.812 72.9422-5.938Q71.1032-4.064 68.4392-4.064L47.1672-4.064ZM52.4922-9.193L68.4392-9.193Q68.9712-9.193 69.3122-9.534Q69.6532-9.875 69.6532-10.407L69.6532-26.452L52.4922-26.452L52.4922-9.193Z"/>
  </g>
  <g id="Thin-S" transform="matrix(1 0 0 1 814.778 696)">
   <path class="monochrome-0 multicolor-0:tintColor hierarchical-0:primary SFSymbolsPreviewWireframe" d="M38.0942-6.037L18.0352-6.037Q15.7062-6.037 14.0782-7.664Q12.4512-9.292 12.4512-11.621L12.4512-58.839Q12.4512-61.237 14.0782-62.83Q15.7062-64.423 18.0352-64.423L38.0942-64.423L38.0942-6.037ZM34.9382-9.193L34.9382-61.267L18.0352-61.267Q16.9732-61.267 16.2892-60.585Q15.6072-59.901 15.6072-58.839L15.6072-11.621Q15.6072-10.559 16.2892-9.875Q16.9732-9.193 18.0352-9.193L34.9382-9.193ZM45.1952-38.78L45.1952-64.423L65.2532-64.423Q67.6512-64.423 69.2442-62.83Q70.8372-61.237 70.8372-58.839L70.8372-38.78L45.1952-38.78ZM48.3512-41.936L67.6812-41.936L67.6812-58.839Q67.6812-59.901 66.9992-60.585Q66.3152-61.267 65.2532-61.267L48.3512-61.267L48.3512-41.936ZM45.1952-6.037L45.1952-31.679L70.8372-31.679L70.8372-11.621Q70.8372-9.292 69.2442-7.664Q67.6512-6.037 65.2532-6.037L45.1952-6.037ZM48.5482-9.193L65.2532-9.193Q66.3152-9.193 66.9992-9.875Q67.6812-10.559 67.6812-11.621L67.6812-28.425L48.5482-28.425L48.5482-9.193Z"/>
  </g>
  <g id="Ultralight-S" transform="matrix(1 0 0 1 519.25 696)">
   <path class="monochrome-0 multicolor-0:tintColor hierarchical-0:primary SFSymbolsPreviewWireframe" d="M36.9102-7.22L17.5792-7.22Q15.4092-7.22 13.9302-8.7Q12.4512-10.179 12.4512-12.349L12.4512-58.111Q12.4512-60.35 13.9302-61.795Q15.4092-63.239 17.5792-63.239L36.9102-63.239L36.9102-7.22ZM34.9372-9.193L34.9372-61.267L17.5792-61.267Q16.1982-61.267 15.3112-60.379Q14.4232-59.492 14.4232-58.111L14.4232-12.349Q14.4232-10.968 15.3112-10.081Q16.1982-9.193 17.5792-9.193L34.9372-9.193ZM44.0112-38.78L44.0112-63.239L63.3412-63.239Q65.5802-63.239 67.0252-61.795Q68.4702-60.35 68.4702-58.111L68.4702-38.78L44.0112-38.78ZM45.9832-40.753L66.4972-40.753L66.4972-58.111Q66.4972-59.492 65.6092-60.379Q64.7222-61.267 63.3412-61.267L45.9832-61.267L45.9832-40.753ZM44.0112-7.22L44.0112-31.679L68.4702-31.679L68.4702-12.349Q68.4702-10.179 67.0252-8.7Q65.5802-7.22 63.3412-7.22L44.0112-7.22ZM46.1802-9.193L63.3412-9.193Q64.7222-9.193 65.6092-10.081Q66.4972-10.968 66.4972-12.349L66.4972-29.608L46.1802-29.608L46.1802-9.193Z"/>
  </g>
 </g>
</svg>
