<?xml version="1.0" encoding="UTF-8"?>
<!--Generator: Apple Native CoreSVG 232.5-->
<!DOCTYPE svg
PUBLIC "-//W3C//DTD SVG 1.1//EN"
       "http://www.w3.org/Graphics/SVG/1.1/DTD/svg11.dtd">
<svg version="1.1" xmlns="http://www.w3.org/2000/svg" xmlns:xlink="http://www.w3.org/1999/xlink" width="3300" height="2200">
 <!--glyph: "", point size: 100.0, font version: "19.2d2e1", template writer version: "128"-->
 <style>.monochrome-0 {-sfsymbols-motion-group:0}

.multicolor-0:tintColor {-sfsymbols-motion-group:0}

.hierarchical-0:primary {-sfsymbols-motion-group:0}

.SFSymbolsPreviewWireframe {fill:none;opacity:1.0;stroke:black;stroke-width:0.5}
</style>
 <g id="Notes">
  <rect height="2200" id="artboard" style="fill:white;opacity:1" width="3300" x="0" y="0"/>
  <line style="fill:none;stroke:black;opacity:1;stroke-width:0.5;" x1="263" x2="3036" y1="292" y2="292"/>
  <text style="stroke:none;fill:black;font-family:sans-serif;font-size:13;font-weight:bold;" transform="matrix(1 0 0 1 263 322)">Weight/Scale Variations</text>
  <text style="stroke:none;fill:black;font-family:sans-serif;font-size:13;text-anchor:middle;" transform="matrix(1 0 0 1 559.711 322)">Ultralight</text>
  <text style="stroke:none;fill:black;font-family:sans-serif;font-size:13;text-anchor:middle;" transform="matrix(1 0 0 1 856.422 322)">Thin</text>
  <text style="stroke:none;fill:black;font-family:sans-serif;font-size:13;text-anchor:middle;" transform="matrix(1 0 0 1 1153.13 322)">Light</text>
  <text style="stroke:none;fill:black;font-family:sans-serif;font-size:13;text-anchor:middle;" transform="matrix(1 0 0 1 1449.84 322)">Regular</text>
  <text style="stroke:none;fill:black;font-family:sans-serif;font-size:13;text-anchor:middle;" transform="matrix(1 0 0 1 1746.56 322)">Medium</text>
  <text style="stroke:none;fill:black;font-family:sans-serif;font-size:13;text-anchor:middle;" transform="matrix(1 0 0 1 2043.27 322)">Semibold</text>
  <text style="stroke:none;fill:black;font-family:sans-serif;font-size:13;text-anchor:middle;" transform="matrix(1 0 0 1 2339.98 322)">Bold</text>
  <text style="stroke:none;fill:black;font-family:sans-serif;font-size:13;text-anchor:middle;" transform="matrix(1 0 0 1 2636.69 322)">Heavy</text>
  <text style="stroke:none;fill:black;font-family:sans-serif;font-size:13;text-anchor:middle;" transform="matrix(1 0 0 1 2933.4 322)">Black</text>
  <line style="fill:none;stroke:black;opacity:1;stroke-width:0.5;" x1="263" x2="3036" y1="1903" y2="1903"/>
  <g transform="matrix(0.2 0 0 0.2 263 1933)">
   <path d="m46.2402 4.15039c21.5332 0 39.4531-17.8711 39.4531-39.4043s-17.9688-39.4043-39.502-39.4043c-21.4844 0-39.3555 17.8711-39.3555 39.4043s17.9199 39.4043 39.4043 39.4043Zm0-7.42188c-17.7246 0-31.8848-14.209-31.8848-31.9824s14.1113-31.9824 31.8359-31.9824c17.7734 0 32.0312 14.209 32.0312 31.9824s-14.209 31.9824-31.9824 31.9824Zm-17.9688-31.9824c0 2.14844 1.51367 3.61328 3.75977 3.61328h10.498v10.5957c0 2.19727 1.46484 3.71094 3.61328 3.71094 2.24609 0 3.71094-1.51367 3.71094-3.71094v-10.5957h10.5957c2.19727 0 3.71094-1.46484 3.71094-3.61328 0-2.19727-1.51367-3.71094-3.71094-3.71094h-10.5957v-10.5469c0-2.24609-1.46484-3.75977-3.71094-3.75977-2.14844 0-3.61328 1.51367-3.61328 3.75977v10.5469h-10.498c-2.24609 0-3.75977 1.51367-3.75977 3.71094Z"/>
  </g>
  <g transform="matrix(0.2 0 0 0.2 281.506 1933)">
   <path d="m58.5449 14.5508c27.2461 0 49.8047-22.6074 49.8047-49.8047 0-27.2461-22.6074-49.8047-49.8535-49.8047-27.1973 0-49.7559 22.5586-49.7559 49.8047 0 27.1973 22.6074 49.8047 49.8047 49.8047Zm0-8.30078c-23.0469 0-41.4551-18.457-41.4551-41.5039s18.3594-41.5039 41.4062-41.5039 41.5527 18.457 41.5527 41.5039-18.457 41.5039-41.5039 41.5039Zm-22.6562-41.5039c0 2.39258 1.66016 4.00391 4.15039 4.00391h14.3555v14.4043c0 2.44141 1.66016 4.15039 4.05273 4.15039 2.44141 0 4.15039-1.66016 4.15039-4.15039v-14.4043h14.4043c2.44141 0 4.15039-1.61133 4.15039-4.00391 0-2.44141-1.70898-4.15039-4.15039-4.15039h-14.4043v-14.3555c0-2.49023-1.70898-4.19922-4.15039-4.19922-2.39258 0-4.05273 1.70898-4.05273 4.19922v14.3555h-14.3555c-2.49023 0-4.15039 1.70898-4.15039 4.15039Z"/>
  </g>
  <g transform="matrix(0.2 0 0 0.2 304.924 1933)">
   <path d="m74.8535 28.3203c34.8145 0 63.623-28.8086 63.623-63.5742 0-34.8145-28.8574-63.623-63.6719-63.623-34.7656 0-63.5254 28.8086-63.5254 63.623 0 34.7656 28.8086 63.5742 63.5742 63.5742Zm0-9.08203c-30.1758 0-54.4434-24.3164-54.4434-54.4922 0-30.2246 24.2188-54.4922 54.3945-54.4922 30.2246 0 54.541 24.2676 54.541 54.4922 0 30.1758-24.2676 54.4922-54.4922 54.4922Zm-28.8574-54.4922c0 2.58789 1.85547 4.39453 4.58984 4.39453h19.7266v19.7754c0 2.68555 1.85547 4.58984 4.44336 4.58984 2.68555 0 4.54102-1.85547 4.54102-4.58984v-19.7754h19.7754c2.68555 0 4.58984-1.80664 4.58984-4.39453 0-2.73438-1.85547-4.58984-4.58984-4.58984h-19.7754v-19.7266c0-2.73438-1.85547-4.63867-4.54102-4.63867-2.58789 0-4.44336 1.9043-4.44336 4.63867v19.7266h-19.7266c-2.73438 0-4.58984 1.85547-4.58984 4.58984Z"/>
  </g>
  <text style="stroke:none;fill:black;font-family:sans-serif;font-size:13;font-weight:bold;" transform="matrix(1 0 0 1 263 1953)">Design Variations</text>
  <text style="stroke:none;fill:black;font-family:sans-serif;font-size:13;" transform="matrix(1 0 0 1 263 1971)">Symbols are supported in up to nine weights and three scales.</text>
  <text style="stroke:none;fill:black;font-family:sans-serif;font-size:13;" transform="matrix(1 0 0 1 263 1989)">For optimal layout with text and other symbols, vertically align</text>
  <text style="stroke:none;fill:black;font-family:sans-serif;font-size:13;" transform="matrix(1 0 0 1 263 2007)">symbols with the adjacent text.</text>
  <line style="fill:none;stroke:#00AEEF;stroke-width:0.5;opacity:1.0;" x1="776" x2="776" y1="1919" y2="1933"/>
  <g transform="matrix(0.2 0 0 0.2 776 1933)">
   <path d="m16.5527 0.78125c2.58789 0 3.85742-0.976562 4.78516-3.71094l6.29883-17.2363h28.8086l6.29883 17.2363c0.927734 2.73438 2.19727 3.71094 4.73633 3.71094 2.58789 0 4.24805-1.5625 4.24805-4.00391 0-0.830078-0.146484-1.61133-0.537109-2.63672l-22.9004-60.9863c-1.12305-2.97852-3.125-4.49219-6.25-4.49219-3.02734 0-5.07812 1.46484-6.15234 4.44336l-22.9004 61.084c-0.390625 1.02539-0.537109 1.80664-0.537109 2.63672 0 2.44141 1.5625 3.95508 4.10156 3.95508Zm13.4766-28.3691 11.8652-32.8613h0.244141l11.8652 32.8613Z"/>
  </g>
  <line style="fill:none;stroke:#00AEEF;stroke-width:0.5;opacity:1.0;" x1="792.836" x2="792.836" y1="1919" y2="1933"/>
  <text style="stroke:none;fill:black;font-family:sans-serif;font-size:13;font-weight:bold;" transform="matrix(1 0 0 1 776 1953)">Margins</text>
  <text style="stroke:none;fill:black;font-family:sans-serif;font-size:13;" transform="matrix(1 0 0 1 776 1971)">Leading and trailing margins on the left and right side of each symbol</text>
  <text style="stroke:none;fill:black;font-family:sans-serif;font-size:13;" transform="matrix(1 0 0 1 776 1989)">can be adjusted by modifying the x-location of the margin guidelines.</text>
  <text style="stroke:none;fill:black;font-family:sans-serif;font-size:13;" transform="matrix(1 0 0 1 776 2007)">Modifications are automatically applied proportionally to all</text>
  <text style="stroke:none;fill:black;font-family:sans-serif;font-size:13;" transform="matrix(1 0 0 1 776 2025)">scales and weights.</text>
  <g transform="matrix(0.2 0 0 0.2 1289 1933)">
   <path d="m14.209 9.32617 8.49609 8.54492c4.29688 4.3457 9.22852 4.05273 13.8672-1.07422l53.4668-58.9355-4.83398-4.88281-53.0762 58.3984c-1.75781 2.00195-3.41797 2.49023-5.76172 0.146484l-5.85938-5.81055c-2.34375-2.29492-1.80664-4.00391 0.195312-5.81055l57.373-54.0039-4.88281-4.83398-57.959 54.4434c-4.93164 4.58984-5.32227 9.47266-1.02539 13.8184Zm32.0801-90.9668c-2.09961 2.05078-2.24609 4.93164-1.07422 6.88477 1.17188 1.80664 3.4668 2.97852 6.68945 2.14844 7.32422-1.70898 14.9414-2.00195 22.0703 2.68555l-2.92969 7.27539c-1.70898 4.15039-0.830078 7.08008 1.85547 9.81445l11.4746 11.5723c2.44141 2.44141 4.49219 2.53906 7.32422 2.05078l5.32227-0.976562 3.32031 3.36914-0.195312 2.7832c-0.195312 2.49023 0.439453 4.39453 2.88086 6.78711l3.80859 3.71094c2.39258 2.39258 5.46875 2.53906 7.8125 0.195312l14.5508-14.5996c2.34375-2.34375 2.24609-5.32227-0.146484-7.71484l-3.85742-3.80859c-2.39258-2.39258-4.24805-3.17383-6.64062-2.97852l-2.88086 0.244141-3.22266-3.17383 1.2207-5.61523c0.634766-2.83203-0.146484-5.0293-3.07617-7.95898l-10.9863-10.9375c-16.6992-16.6016-38.8672-16.2109-53.3203-1.75781Zm7.4707 1.85547c12.1582-8.88672 28.6133-7.37305 39.7461 3.75977l12.1582 12.0605c1.17188 1.17188 1.36719 2.09961 1.02539 3.80859l-1.61133 7.42188 7.51953 7.42188 4.93164-0.292969c1.26953-0.0488281 1.66016 0.0488281 2.63672 1.02539l2.88086 2.88086-12.207 12.207-2.88086-2.88086c-0.976562-0.976562-1.12305-1.36719-1.07422-2.68555l0.341797-4.88281-7.4707-7.42188-7.61719 1.26953c-1.61133 0.341797-2.34375 0.195312-3.56445-0.976562l-10.0098-10.0098c-1.26953-1.17188-1.41602-2.00195-0.634766-3.85742l4.39453-10.4492c-7.8125-7.27539-17.9688-10.4004-28.125-7.42188-0.78125 0.195312-1.07422-0.439453-0.439453-0.976562Z"/>
  </g>
  <text style="stroke:none;fill:black;font-family:sans-serif;font-size:13;font-weight:bold;" transform="matrix(1 0 0 1 1289 1953)">Exporting</text>
  <text style="stroke:none;fill:black;font-family:sans-serif;font-size:13;" transform="matrix(1 0 0 1 1289 1971)">Symbols should be outlined when exporting to ensure the</text>
  <text style="stroke:none;fill:black;font-family:sans-serif;font-size:13;" transform="matrix(1 0 0 1 1289 1989)">design is preserved when submitting to Xcode.</text>
  <text id="template-version" style="stroke:none;fill:black;font-family:sans-serif;font-size:13;text-anchor:end;" transform="matrix(1 0 0 1 3036 1933)">Template v.5.0</text>
  <text style="stroke:none;fill:black;font-family:sans-serif;font-size:13;text-anchor:end;" transform="matrix(1 0 0 1 3036 1951)">Requires Xcode 15 or greater</text>
  <text id="descriptive-name" style="stroke:none;fill:black;font-family:sans-serif;font-size:13;text-anchor:end;" transform="matrix(1 0 0 1 3036 1969)">Generated from AToZ</text>
  <text style="stroke:none;fill:black;font-family:sans-serif;font-size:13;text-anchor:end;" transform="matrix(1 0 0 1 3036 1987)">Typeset at 100.0 points</text>
  <text style="stroke:none;fill:black;font-family:sans-serif;font-size:13;" transform="matrix(1 0 0 1 263 726)">Small</text>
  <text style="stroke:none;fill:black;font-family:sans-serif;font-size:13;" transform="matrix(1 0 0 1 263 1156)">Medium</text>
  <text style="stroke:none;fill:black;font-family:sans-serif;font-size:13;" transform="matrix(1 0 0 1 263 1586)">Large</text>
 </g>
 <g id="Guides">
  <g id="H-reference" style="fill:#27AAE1;stroke:none;" transform="matrix(1 0 0 1 339 696)">
   <path d="M0.993654 0L3.63775 0L29.3281-67.1323L30.0303-67.1323L30.0303-70.459L28.1226-70.459ZM11.6885-24.4799L46.9815-24.4799L46.2315-26.7285L12.4385-26.7285ZM55.1196 0L57.7637 0L30.6382-70.459L29.4326-70.459L29.4326-67.1323Z"/>
  </g>
  <line id="Baseline-S" style="fill:none;stroke:#27AAE1;opacity:1;stroke-width:0.5;" x1="263" x2="3036" y1="696" y2="696"/>
  <line id="Capline-S" style="fill:none;stroke:#27AAE1;opacity:1;stroke-width:0.5;" x1="263" x2="3036" y1="625.541" y2="625.541"/>
  <g id="H-reference" style="fill:#27AAE1;stroke:none;" transform="matrix(1 0 0 1 339 1126)">
   <path d="M0.993654 0L3.63775 0L29.3281-67.1323L30.0303-67.1323L30.0303-70.459L28.1226-70.459ZM11.6885-24.4799L46.9815-24.4799L46.2315-26.7285L12.4385-26.7285ZM55.1196 0L57.7637 0L30.6382-70.459L29.4326-70.459L29.4326-67.1323Z"/>
  </g>
  <line id="Baseline-M" style="fill:none;stroke:#27AAE1;opacity:1;stroke-width:0.5;" x1="263" x2="3036" y1="1126" y2="1126"/>
  <line id="Capline-M" style="fill:none;stroke:#27AAE1;opacity:1;stroke-width:0.5;" x1="263" x2="3036" y1="1055.54" y2="1055.54"/>
  <g id="H-reference" style="fill:#27AAE1;stroke:none;" transform="matrix(1 0 0 1 339 1556)">
   <path d="M0.993654 0L3.63775 0L29.3281-67.1323L30.0303-67.1323L30.0303-70.459L28.1226-70.459ZM11.6885-24.4799L46.9815-24.4799L46.2315-26.7285L12.4385-26.7285ZM55.1196 0L57.7637 0L30.6382-70.459L29.4326-70.459L29.4326-67.1323Z"/>
  </g>
  <line id="Baseline-L" style="fill:none;stroke:#27AAE1;opacity:1;stroke-width:0.5;" x1="263" x2="3036" y1="1556" y2="1556"/>
  <line id="Capline-L" style="fill:none;stroke:#27AAE1;opacity:1;stroke-width:0.5;" x1="263" x2="3036" y1="1485.54" y2="1485.54"/>
  <line id="left-margin-Ultralight-S" style="fill:none;stroke:#00AEEF;stroke-width:0.5;opacity:1.0;" x1="503.469" x2="503.469" y1="600.785" y2="720.121"/>
  <line id="right-margin-Ultralight-S" style="fill:none;stroke:#00AEEF;stroke-width:0.5;opacity:1.0;" x1="615.953" x2="615.953" y1="600.785" y2="720.121"/>
  <line id="left-margin-Regular-S" style="fill:none;stroke:#00AEEF;stroke-width:0.5;opacity:1.0;" x1="1388.83" x2="1388.83" y1="600.785" y2="720.121"/>
  <line id="right-margin-Regular-S" style="fill:none;stroke:#00AEEF;stroke-width:0.5;opacity:1.0;" x1="1510.86" x2="1510.86" y1="600.785" y2="720.121"/>
  <line id="left-margin-Black-S" style="fill:none;stroke:#00AEEF;stroke-width:0.5;opacity:1.0;" x1="2866.26" x2="2866.26" y1="600.785" y2="720.121"/>
  <line id="right-margin-Black-S" style="fill:none;stroke:#00AEEF;stroke-width:0.5;opacity:1.0;" x1="3000.54" x2="3000.54" y1="600.785" y2="720.121"/>
 </g>
 <g id="Symbols">
  <g id="Black-S" transform="matrix(1 0 0 1 2866.26 696)">
   <path class="monochrome-0 multicolor-0:tintColor hierarchical-0:primary SFSymbolsPreviewWireframe" d="M68.79-60.254L119.79-60.254C122.43-60.254 124.51-63.281 124.51-66.602C124.51-70.069 122.47-72.949 119.79-72.949L68.79-72.949C66.15-72.949 64.07-69.971 64.07-66.602C64.07-63.379 66.19-60.254 68.79-60.254ZM68.79-40.186L119.79-40.186C122.43-40.186 124.51-43.213 124.51-46.533C124.51-50 122.47-52.881 119.79-52.881L68.79-52.881C66.15-52.881 64.07-49.902 64.07-46.533C64.07-43.311 66.19-40.186 68.79-40.186ZM68.79-20.069L119.79-20.069C122.43-20.069 124.51-23.096 124.51-26.416C124.51-29.883 122.47-32.764 119.79-32.764L68.79-32.764C66.15-32.764 64.07-29.785 64.07-26.416C64.07-23.194 66.19-20.069 68.79-20.069ZM68.79 0L101.2 0C103.85 0 105.93-3.028 105.93-6.348C105.93-9.815 103.89-12.695 101.2-12.695L68.79-12.695C66.15-12.695 64.07-9.717 64.07-6.348C64.07-3.125 66.19 0 68.79 0ZM47.6 1.172L54.74-10.791C56.33-13.477 55.39-16.846 52.74-16.846L48.96-16.846L48.96-56.592L52.74-56.592C55.39-56.592 56.33-59.961 54.74-62.647L47.6-74.61C46.58-76.319 44.73-76.27 43.71-74.61L36.54-62.647C34.91-59.912 35.86-56.592 38.61-56.592L42.24-56.592L42.24-16.846L38.61-16.846C35.86-16.846 34.91-13.526 36.54-10.791L43.71 1.172C44.73 2.832 46.58 2.881 47.6 1.172ZM8.22-43C6.74-43 5.74-43.917 5.74-45.282C5.74-45.662 5.83-46.155 6.05-46.759L15.77-73.382C16.41-75.172 17.49-76 19.24-76C20.97-76 22.03-75.195 22.69-73.405L32.43-46.759C32.65-46.132 32.74-45.707 32.74-45.282C32.74-43.962 31.7-43 30.26-43C28.93-43 28.2-43.626 27.76-45.058L25.33-52.016L13.11-52.016L10.7-45.081C10.23-43.626 9.5-43 8.22-43ZM14.37-56.111L24.06-56.111L19.26-70.273L19.13-70.273L14.37-56.111ZM9.25 2C7.74 2 6.74 1.017 6.74-0.47C6.74-1.225 6.96-1.819 7.53-2.642L23.98-26.403L23.98-26.563L9.18-26.563C7.83-26.563 6.91-27.432 6.91-28.782C6.91-30.131 7.83-31 9.18-31L27.4-31C28.97-31 29.98-29.994 29.98-28.462C29.98-27.684 29.74-27.181 29.17-26.335L12.81-2.597L12.81-2.437L28.45-2.437C29.82-2.437 30.74-1.568 30.74-0.218C30.74 1.131 29.8 2 28.45 2L9.25 2Z"/>
  </g>
  <g id="Regular-S" transform="matrix(1 0 0 1 1388.83 696)">
   <path class="monochrome-0 multicolor-0:tintColor hierarchical-0:primary SFSymbolsPreviewWireframe" d="M58.42-62.158L109.46-62.158C111-62.158 112.26-63.574 112.26-65.429C112.26-67.285 111-68.701 109.46-68.701L58.42-68.701C56.92-68.701 55.7-67.285 55.7-65.429C55.7-63.574 56.92-62.158 58.42-62.158ZM58.42-42.089L109.46-42.089C111-42.089 112.26-43.554 112.26-45.41C112.26-47.216 111-48.681 109.46-48.681L58.42-48.681C56.92-48.681 55.7-47.216 55.7-45.41C55.7-43.554 56.92-42.089 58.42-42.089ZM58.42-22.07L109.46-22.07C111-22.07 112.26-23.535 112.26-25.39C112.26-27.197 111-28.662 109.46-28.662L58.42-28.662C56.92-28.662 55.7-27.197 55.7-25.39C55.7-23.535 56.92-22.07 58.42-22.07ZM58.42-2.05L89.19-2.05C90.69-2.05 91.94-3.515 91.94-5.371C91.94-7.177 90.69-8.642 89.19-8.642L58.42-8.642C56.92-8.642 55.7-7.177 55.7-5.371C55.7-3.515 56.92-2.05 58.42-2.05ZM37.94-0.341L44.55-10.937C45.93-13.183 45.2-16.064 42.69-16.064L38.27-16.064L38.27-54.785L42.69-54.785C45.12-54.785 46.01-57.568 44.55-59.863L37.94-70.507C37.05-71.972 35.31-71.923 34.42-70.507L27.89-59.863C26.43-57.568 27.28-54.785 29.67-54.785L34.17-54.785L34.17-16.064L29.67-16.064C27.28-16.064 26.43-13.281 27.89-10.937L34.42-0.341C35.31 1.172 37.05 1.172 37.94-0.341ZM2.37-42C1.06-42 0.17-42.778 0.17-43.936C0.17-44.259 0.25-44.677 0.45-45.189L9.08-67.779C9.65-69.298 10.62-70 12.17-70C13.7-70 14.65-69.317 15.24-67.798L23.89-45.189C24.09-44.658 24.17-44.297 24.17-43.936C24.17-42.816 23.25-42 21.97-42C20.79-42 20.14-42.532 19.74-43.746L17.58-49.65L6.72-49.65L4.58-43.765C4.16-42.532 3.51-42 2.37-42ZM7.84-53.124L16.46-53.124L12.19-65.14L12.07-65.14L7.84-53.124ZM2.68 0C1.17 0 0.17-0.834 0.17-2.096C0.17-2.736 0.39-3.24 0.96-3.939L17.41-24.1L17.41-24.236L2.61-24.236C1.26-24.236 0.34-24.973 0.34-26.118C0.34-27.263 1.26-28 2.61-28L20.83-28C22.4-28 23.41-27.146 23.41-25.846C23.41-25.186 23.17-24.76 22.6-24.042L6.24-3.9L6.24-3.764L21.88-3.764C23.25-3.764 24.17-3.027 24.17-1.882C24.17-0.737 23.23 0 21.88 0L2.68 0Z"/>
  </g>
  <g id="Ultralight-S" transform="matrix(1 0 0 1 503.469 696)">
   <path class="monochrome-0 multicolor-0:tintColor hierarchical-0:primary SFSymbolsPreviewWireframe" d="M49.368-64.293L101.782-64.293C102.357-64.293 102.718-64.755 102.718-65.385C102.718-66.014 102.357-66.477 101.782-66.477L49.368-66.477C48.835-66.477 48.438-66.014 48.438-65.385C48.438-64.755 48.835-64.293 49.368-64.293ZM49.368-44.179L101.782-44.179C102.357-44.179 102.718-44.645 102.718-45.274C102.718-45.9 102.357-46.366 101.782-46.366L49.368-46.366C48.835-46.366 48.438-45.9 48.438-45.274C48.438-44.645 48.835-44.179 49.368-44.179ZM49.368-24.069L101.782-24.069C102.357-24.069 102.718-24.489 102.718-25.164C102.718-25.79 102.357-26.256 101.782-26.256L49.368-26.256C48.835-26.256 48.438-25.79 48.438-25.164C48.438-24.489 48.835-24.069 49.368-24.069ZM49.368-3.958L80.595-3.958C81.167-3.958 81.528-4.379 81.528-5.054C81.528-5.68 81.167-6.146 80.595-6.146L49.368-6.146C48.835-6.146 48.438-5.68 48.438-5.054C48.438-4.379 48.835-3.958 49.368-3.958ZM31.958-1.841L37.501-10.393C38.258-11.549 37.78-13.159 36.554-13.159L31.594-13.159L31.594-57.283L36.554-57.283C37.774-57.283 38.263-58.886 37.501-60.045L31.958-68.601C31.275-69.657 30.066-69.608 29.422-68.601L23.924-60.045C23.122-58.886 23.609-57.283 24.825-57.283L29.791-57.283L29.791-13.159L24.825-13.159C23.609-13.159 23.122-11.556 23.924-10.393L29.422-1.841C30.066-0.827 31.275-0.781 31.958-1.841ZM4.092-50C3.158-50 2.531-50.528 2.531-51.314C2.531-51.533 2.587-51.816 2.726-52.164L8.843-67.493C9.247-68.523 9.93-69 11.031-69C12.118-69 12.787-68.536 13.205-67.506L19.336-52.164C19.475-51.803 19.531-51.559 19.531-51.314C19.531-50.554 18.876-50 17.97-50C17.134-50 16.674-50.361 16.396-51.185L14.863-55.191L7.171-55.191L5.652-51.198C5.36-50.361 4.9-50 4.092-50ZM7.965-57.548L14.069-57.548L11.045-65.702L10.961-65.702L7.965-57.548ZM4.308-3C3.242-3 2.531-3.566 2.531-4.422C2.531-4.857 2.686-5.199 3.087-5.673L14.74-19.353L14.74-19.446L4.262-19.446C3.304-19.446 2.655-19.946 2.655-20.723C2.655-21.5 3.304-22 4.262-22L17.166-22C18.279-22 18.99-21.421 18.99-20.538C18.99-20.091 18.82-19.801 18.418-19.314L6.827-5.647L6.827-5.554L17.908-5.554C18.882-5.554 19.531-5.054 19.531-4.277C19.531-3.5 18.866-3 17.908-3L4.308-3Z"/>
  </g>
 </g>
</svg>
