<?xml version="1.0" encoding="UTF-8"?>
<!--Generator: Apple Native CoreSVG 232.5-->
<!DOCTYPE svg
PUBLIC "-//W3C//DTD SVG 1.1//EN"
       "http://www.w3.org/Graphics/SVG/1.1/DTD/svg11.dtd">
<svg version="1.1" xmlns="http://www.w3.org/2000/svg" xmlns:xlink="http://www.w3.org/1999/xlink" width="3300" height="2200">
 <!--glyph: "", point size: 100.0, font version: "19.2d2e1", template writer version: "128"-->
 <style>.monochrome-0 {-sfsymbols-motion-group:0}

.multicolor-0:tintColor {-sfsymbols-motion-group:0}

.hierarchical-0:primary {-sfsymbols-motion-group:0}

.SFSymbolsPreviewWireframe {fill:none;opacity:1.0;stroke:black;stroke-width:0.5}
</style>
 <g id="Notes">
  <rect height="2200" id="artboard" style="fill:white;opacity:1" width="3300" x="0" y="0"/>
  <line style="fill:none;stroke:black;opacity:1;stroke-width:0.5;" x1="263" x2="3036" y1="292" y2="292"/>
  <text style="stroke:none;fill:black;font-family:sans-serif;font-size:13;font-weight:bold;" transform="matrix(1 0 0 1 263 322)">Weight/Scale Variations</text>
  <text style="stroke:none;fill:black;font-family:sans-serif;font-size:13;text-anchor:middle;" transform="matrix(1 0 0 1 559.711 322)">Ultralight</text>
  <text style="stroke:none;fill:black;font-family:sans-serif;font-size:13;text-anchor:middle;" transform="matrix(1 0 0 1 856.422 322)">Thin</text>
  <text style="stroke:none;fill:black;font-family:sans-serif;font-size:13;text-anchor:middle;" transform="matrix(1 0 0 1 1153.13 322)">Light</text>
  <text style="stroke:none;fill:black;font-family:sans-serif;font-size:13;text-anchor:middle;" transform="matrix(1 0 0 1 1449.84 322)">Regular</text>
  <text style="stroke:none;fill:black;font-family:sans-serif;font-size:13;text-anchor:middle;" transform="matrix(1 0 0 1 1746.56 322)">Medium</text>
  <text style="stroke:none;fill:black;font-family:sans-serif;font-size:13;text-anchor:middle;" transform="matrix(1 0 0 1 2043.27 322)">Semibold</text>
  <text style="stroke:none;fill:black;font-family:sans-serif;font-size:13;text-anchor:middle;" transform="matrix(1 0 0 1 2339.98 322)">Bold</text>
  <text style="stroke:none;fill:black;font-family:sans-serif;font-size:13;text-anchor:middle;" transform="matrix(1 0 0 1 2636.69 322)">Heavy</text>
  <text style="stroke:none;fill:black;font-family:sans-serif;font-size:13;text-anchor:middle;" transform="matrix(1 0 0 1 2933.4 322)">Black</text>
  <line style="fill:none;stroke:black;opacity:1;stroke-width:0.5;" x1="263" x2="3036" y1="1903" y2="1903"/>
  <g transform="matrix(0.2 0 0 0.2 263 1933)">
   <path d="m46.2402 4.15039c21.5332 0 39.4531-17.8711 39.4531-39.4043s-17.9688-39.4043-39.502-39.4043c-21.4844 0-39.3555 17.8711-39.3555 39.4043s17.9199 39.4043 39.4043 39.4043Zm0-7.42188c-17.7246 0-31.8848-14.209-31.8848-31.9824s14.1113-31.9824 31.8359-31.9824c17.7734 0 32.0312 14.209 32.0312 31.9824s-14.209 31.9824-31.9824 31.9824Zm-17.9688-31.9824c0 2.14844 1.51367 3.61328 3.75977 3.61328h10.498v10.5957c0 2.19727 1.46484 3.71094 3.61328 3.71094 2.24609 0 3.71094-1.51367 3.71094-3.71094v-10.5957h10.5957c2.19727 0 3.71094-1.46484 3.71094-3.61328 0-2.19727-1.51367-3.71094-3.71094-3.71094h-10.5957v-10.5469c0-2.24609-1.46484-3.75977-3.71094-3.75977-2.14844 0-3.61328 1.51367-3.61328 3.75977v10.5469h-10.498c-2.24609 0-3.75977 1.51367-3.75977 3.71094Z"/>
  </g>
  <g transform="matrix(0.2 0 0 0.2 281.506 1933)">
   <path d="m58.5449 14.5508c27.2461 0 49.8047-22.6074 49.8047-49.8047 0-27.2461-22.6074-49.8047-49.8535-49.8047-27.1973 0-49.7559 22.5586-49.7559 49.8047 0 27.1973 22.6074 49.8047 49.8047 49.8047Zm0-8.30078c-23.0469 0-41.4551-18.457-41.4551-41.5039s18.3594-41.5039 41.4062-41.5039 41.5527 18.457 41.5527 41.5039-18.457 41.5039-41.5039 41.5039Zm-22.6562-41.5039c0 2.39258 1.66016 4.00391 4.15039 4.00391h14.3555v14.4043c0 2.44141 1.66016 4.15039 4.05273 4.15039 2.44141 0 4.15039-1.66016 4.15039-4.15039v-14.4043h14.4043c2.44141 0 4.15039-1.61133 4.15039-4.00391 0-2.44141-1.70898-4.15039-4.15039-4.15039h-14.4043v-14.3555c0-2.49023-1.70898-4.19922-4.15039-4.19922-2.39258 0-4.05273 1.70898-4.05273 4.19922v14.3555h-14.3555c-2.49023 0-4.15039 1.70898-4.15039 4.15039Z"/>
  </g>
  <g transform="matrix(0.2 0 0 0.2 304.924 1933)">
   <path d="m74.8535 28.3203c34.8145 0 63.623-28.8086 63.623-63.5742 0-34.8145-28.8574-63.623-63.6719-63.623-34.7656 0-63.5254 28.8086-63.5254 63.623 0 34.7656 28.8086 63.5742 63.5742 63.5742Zm0-9.08203c-30.1758 0-54.4434-24.3164-54.4434-54.4922 0-30.2246 24.2188-54.4922 54.3945-54.4922 30.2246 0 54.541 24.2676 54.541 54.4922 0 30.1758-24.2676 54.4922-54.4922 54.4922Zm-28.8574-54.4922c0 2.58789 1.85547 4.39453 4.58984 4.39453h19.7266v19.7754c0 2.68555 1.85547 4.58984 4.44336 4.58984 2.68555 0 4.54102-1.85547 4.54102-4.58984v-19.7754h19.7754c2.68555 0 4.58984-1.80664 4.58984-4.39453 0-2.73438-1.85547-4.58984-4.58984-4.58984h-19.7754v-19.7266c0-2.73438-1.85547-4.63867-4.54102-4.63867-2.58789 0-4.44336 1.9043-4.44336 4.63867v19.7266h-19.7266c-2.73438 0-4.58984 1.85547-4.58984 4.58984Z"/>
  </g>
  <text style="stroke:none;fill:black;font-family:sans-serif;font-size:13;font-weight:bold;" transform="matrix(1 0 0 1 263 1953)">Design Variations</text>
  <text style="stroke:none;fill:black;font-family:sans-serif;font-size:13;" transform="matrix(1 0 0 1 263 1971)">Symbols are supported in up to nine weights and three scales.</text>
  <text style="stroke:none;fill:black;font-family:sans-serif;font-size:13;" transform="matrix(1 0 0 1 263 1989)">For optimal layout with text and other symbols, vertically align</text>
  <text style="stroke:none;fill:black;font-family:sans-serif;font-size:13;" transform="matrix(1 0 0 1 263 2007)">symbols with the adjacent text.</text>
  <line style="fill:none;stroke:#00AEEF;stroke-width:0.5;opacity:1.0;" x1="776" x2="776" y1="1919" y2="1933"/>
  <g transform="matrix(0.2 0 0 0.2 776 1933)">
   <path d="m16.5527 0.78125c2.58789 0 3.85742-0.976562 4.78516-3.71094l6.29883-17.2363h28.8086l6.29883 17.2363c0.927734 2.73438 2.19727 3.71094 4.73633 3.71094 2.58789 0 4.24805-1.5625 4.24805-4.00391 0-0.830078-0.146484-1.61133-0.537109-2.63672l-22.9004-60.9863c-1.12305-2.97852-3.125-4.49219-6.25-4.49219-3.02734 0-5.07812 1.46484-6.15234 4.44336l-22.9004 61.084c-0.390625 1.02539-0.537109 1.80664-0.537109 2.63672 0 2.44141 1.5625 3.95508 4.10156 3.95508Zm13.4766-28.3691 11.8652-32.8613h0.244141l11.8652 32.8613Z"/>
  </g>
  <line style="fill:none;stroke:#00AEEF;stroke-width:0.5;opacity:1.0;" x1="792.836" x2="792.836" y1="1919" y2="1933"/>
  <text style="stroke:none;fill:black;font-family:sans-serif;font-size:13;font-weight:bold;" transform="matrix(1 0 0 1 776 1953)">Margins</text>
  <text style="stroke:none;fill:black;font-family:sans-serif;font-size:13;" transform="matrix(1 0 0 1 776 1971)">Leading and trailing margins on the left and right side of each symbol</text>
  <text style="stroke:none;fill:black;font-family:sans-serif;font-size:13;" transform="matrix(1 0 0 1 776 1989)">can be adjusted by modifying the x-location of the margin guidelines.</text>
  <text style="stroke:none;fill:black;font-family:sans-serif;font-size:13;" transform="matrix(1 0 0 1 776 2007)">Modifications are automatically applied proportionally to all</text>
  <text style="stroke:none;fill:black;font-family:sans-serif;font-size:13;" transform="matrix(1 0 0 1 776 2025)">scales and weights.</text>
  <g transform="matrix(0.2 0 0 0.2 1289 1933)">
   <path d="m14.209 9.32617 8.49609 8.54492c4.29688 4.3457 9.22852 4.05273 13.8672-1.07422l53.4668-58.9355-4.83398-4.88281-53.0762 58.3984c-1.75781 2.00195-3.41797 2.49023-5.76172 0.146484l-5.85938-5.81055c-2.34375-2.29492-1.80664-4.00391 0.195312-5.81055l57.373-54.0039-4.88281-4.83398-57.959 54.4434c-4.93164 4.58984-5.32227 9.47266-1.02539 13.8184Zm32.0801-90.9668c-2.09961 2.05078-2.24609 4.93164-1.07422 6.88477 1.17188 1.80664 3.4668 2.97852 6.68945 2.14844 7.32422-1.70898 14.9414-2.00195 22.0703 2.68555l-2.92969 7.27539c-1.70898 4.15039-0.830078 7.08008 1.85547 9.81445l11.4746 11.5723c2.44141 2.44141 4.49219 2.53906 7.32422 2.05078l5.32227-0.976562 3.32031 3.36914-0.195312 2.7832c-0.195312 2.49023 0.439453 4.39453 2.88086 6.78711l3.80859 3.71094c2.39258 2.39258 5.46875 2.53906 7.8125 0.195312l14.5508-14.5996c2.34375-2.34375 2.24609-5.32227-0.146484-7.71484l-3.85742-3.80859c-2.39258-2.39258-4.24805-3.17383-6.64062-2.97852l-2.88086 0.244141-3.22266-3.17383 1.2207-5.61523c0.634766-2.83203-0.146484-5.0293-3.07617-7.95898l-10.9863-10.9375c-16.6992-16.6016-38.8672-16.2109-53.3203-1.75781Zm7.4707 1.85547c12.1582-8.88672 28.6133-7.37305 39.7461 3.75977l12.1582 12.0605c1.17188 1.17188 1.36719 2.09961 1.02539 3.80859l-1.61133 7.42188 7.51953 7.42188 4.93164-0.292969c1.26953-0.0488281 1.66016 0.0488281 2.63672 1.02539l2.88086 2.88086-12.207 12.207-2.88086-2.88086c-0.976562-0.976562-1.12305-1.36719-1.07422-2.68555l0.341797-4.88281-7.4707-7.42188-7.61719 1.26953c-1.61133 0.341797-2.34375 0.195312-3.56445-0.976562l-10.0098-10.0098c-1.26953-1.17188-1.41602-2.00195-0.634766-3.85742l4.39453-10.4492c-7.8125-7.27539-17.9688-10.4004-28.125-7.42188-0.78125 0.195312-1.07422-0.439453-0.439453-0.976562Z"/>
  </g>
  <text style="stroke:none;fill:black;font-family:sans-serif;font-size:13;font-weight:bold;" transform="matrix(1 0 0 1 1289 1953)">Exporting</text>
  <text style="stroke:none;fill:black;font-family:sans-serif;font-size:13;" transform="matrix(1 0 0 1 1289 1971)">Symbols should be outlined when exporting to ensure the</text>
  <text style="stroke:none;fill:black;font-family:sans-serif;font-size:13;" transform="matrix(1 0 0 1 1289 1989)">design is preserved when submitting to Xcode.</text>
  <text id="template-version" style="stroke:none;fill:black;font-family:sans-serif;font-size:13;text-anchor:end;" transform="matrix(1 0 0 1 3036 1933)">Template v.5.0</text>
  <text style="stroke:none;fill:black;font-family:sans-serif;font-size:13;text-anchor:end;" transform="matrix(1 0 0 1 3036 1951)">Requires Xcode 15 or greater</text>
  <text id="descriptive-name" style="stroke:none;fill:black;font-family:sans-serif;font-size:13;text-anchor:end;" transform="matrix(1 0 0 1 3036 1969)">Generated from keyboard_double_arrow_up-keyboard_double_arrow_up_symbol</text>
  <text style="stroke:none;fill:black;font-family:sans-serif;font-size:13;text-anchor:end;" transform="matrix(1 0 0 1 3036 1987)">Typeset at 100.0 points</text>
  <text style="stroke:none;fill:black;font-family:sans-serif;font-size:13;" transform="matrix(1 0 0 1 263 726)">Small</text>
  <text style="stroke:none;fill:black;font-family:sans-serif;font-size:13;" transform="matrix(1 0 0 1 263 1156)">Medium</text>
  <text style="stroke:none;fill:black;font-family:sans-serif;font-size:13;" transform="matrix(1 0 0 1 263 1586)">Large</text>
 </g>
 <g id="Guides">
  <g id="H-reference" style="fill:#27AAE1;stroke:none;" transform="matrix(1 0 0 1 339 696)">
   <path d="M0.993654 0L3.63775 0L29.3281-67.1323L30.0303-67.1323L30.0303-70.459L28.1226-70.459ZM11.6885-24.4799L46.9815-24.4799L46.2315-26.7285L12.4385-26.7285ZM55.1196 0L57.7637 0L30.6382-70.459L29.4326-70.459L29.4326-67.1323Z"/>
  </g>
  <line id="Baseline-S" style="fill:none;stroke:#27AAE1;opacity:1;stroke-width:0.5;" x1="263" x2="3036" y1="696" y2="696"/>
  <line id="Capline-S" style="fill:none;stroke:#27AAE1;opacity:1;stroke-width:0.5;" x1="263" x2="3036" y1="625.541" y2="625.541"/>
  <g id="H-reference" style="fill:#27AAE1;stroke:none;" transform="matrix(1 0 0 1 339 1126)">
   <path d="M0.993654 0L3.63775 0L29.3281-67.1323L30.0303-67.1323L30.0303-70.459L28.1226-70.459ZM11.6885-24.4799L46.9815-24.4799L46.2315-26.7285L12.4385-26.7285ZM55.1196 0L57.7637 0L30.6382-70.459L29.4326-70.459L29.4326-67.1323Z"/>
  </g>
  <line id="Baseline-M" style="fill:none;stroke:#27AAE1;opacity:1;stroke-width:0.5;" x1="263" x2="3036" y1="1126" y2="1126"/>
  <line id="Capline-M" style="fill:none;stroke:#27AAE1;opacity:1;stroke-width:0.5;" x1="263" x2="3036" y1="1055.54" y2="1055.54"/>
  <g id="H-reference" style="fill:#27AAE1;stroke:none;" transform="matrix(1 0 0 1 339 1556)">
   <path d="M0.993654 0L3.63775 0L29.3281-67.1323L30.0303-67.1323L30.0303-70.459L28.1226-70.459ZM11.6885-24.4799L46.9815-24.4799L46.2315-26.7285L12.4385-26.7285ZM55.1196 0L57.7637 0L30.6382-70.459L29.4326-70.459L29.4326-67.1323Z"/>
  </g>
  <line id="Baseline-L" style="fill:none;stroke:#27AAE1;opacity:1;stroke-width:0.5;" x1="263" x2="3036" y1="1556" y2="1556"/>
  <line id="Capline-L" style="fill:none;stroke:#27AAE1;opacity:1;stroke-width:0.5;" x1="263" x2="3036" y1="1485.54" y2="1485.54"/>
  <line id="left-margin-Regular-M" style="fill:none;stroke:#00AEEF;stroke-width:0.5;opacity:1.0;" x1="1409.49" x2="1409.49" y1="1030.79" y2="1150.12"/>
  <line id="right-margin-Regular-M" style="fill:none;stroke:#00AEEF;stroke-width:0.5;opacity:1.0;" x1="1490.2" x2="1490.2" y1="1030.79" y2="1150.12"/>
 </g>
 <g id="Symbols">
  <g id="Bold-L" transform="matrix(1 0 0 1 2288.02 1556)">
   <path class="monochrome-0 multicolor-0:tintColor hierarchical-0:primary SFSymbolsPreviewWireframe" d="M51.9572-20.395L25.3512 6.373Q23.0932 8.63 20.0302 8.549Q16.9662 8.469 14.7082 6.211Q12.4512 3.954 12.4512 0.89Q12.4512-2.174 14.7082-4.431L46.4752-36.197Q47.6032-37.326 49.0552-37.971Q50.5062-38.616 51.9572-38.616Q53.4082-38.616 54.8602-37.971Q56.3112-37.326 57.4402-36.197L89.2062-4.431Q91.4632-2.174 91.4632 0.89Q91.4632 3.954 89.2062 6.211Q86.9482 8.63 83.8852 8.63Q80.8212 8.63 78.4022 6.211L51.9572-20.395ZM51.9572-64.9L25.3512-38.132Q23.0932-35.875 20.0302-35.956Q16.9662-36.036 14.7082-38.132Q12.4512-40.39 12.4512-43.454Q12.4512-46.517 14.7082-48.775L46.4752-80.702Q47.6032-81.831 49.0552-82.476Q50.5062-83.121 51.9572-83.121Q53.4082-83.121 54.8602-82.476Q56.3112-81.831 57.4402-80.702L89.2062-48.775Q91.4632-46.517 91.4632-43.454Q91.4632-40.39 89.2062-38.132Q86.9482-35.875 83.8852-35.875Q80.8212-35.875 78.5632-38.132L51.9572-64.9Z"/>
  </g>
  <g id="Semibold-L" transform="matrix(1 0 0 1 1992.5 1556)">
   <path class="monochrome-0 multicolor-0:tintColor hierarchical-0:primary SFSymbolsPreviewWireframe" d="M50.7652-22.849L23.3182 4.69Q21.4112 6.597 18.8382 6.551Q16.2642 6.506 14.3572 4.599Q12.4512 2.692 12.4512 0.119Q12.4512-2.454 14.3572-4.361L46.1942-36.197Q47.1822-37.186 48.3532-37.691Q49.5242-38.196 50.7652-38.196Q52.0062-38.196 53.1772-37.691Q54.3482-37.186 55.3362-36.197L87.1732-4.361Q89.0792-2.454 89.0792 0.119Q89.0792 2.692 87.1732 4.599Q85.2662 6.597 82.6932 6.597Q80.1192 6.597 78.1212 4.599L50.7652-22.849ZM50.7652-65.741L23.3182-38.203Q21.4112-36.296 18.8382-36.341Q16.2642-36.387 14.3572-38.203Q12.4512-40.11 12.4512-42.683Q12.4512-45.256 14.3572-47.163L46.1942-79.09Q47.1822-80.079 48.3532-80.583Q49.5242-81.088 50.7652-81.088Q52.0062-81.088 53.1772-80.583Q54.3482-80.079 55.3362-79.09L87.1732-47.163Q89.0792-45.256 89.0792-42.683Q89.0792-40.11 87.1732-38.203Q85.2662-36.296 82.6932-36.296Q80.1192-36.296 78.2122-38.203L50.7652-65.741Z"/>
  </g>
  <g id="Medium-L" transform="matrix(1 0 0 1 1696.68 1556)">
   <path class="monochrome-0 multicolor-0:tintColor hierarchical-0:primary SFSymbolsPreviewWireframe" d="M49.8712-24.689L21.7932 3.428Q20.1482 5.072 17.9442 5.053Q15.7392 5.033 14.0942 3.389Q12.4512 1.745 12.4512-0.46Q12.4512-2.664 14.0942-4.309L45.9832-36.197Q46.8672-37.081 47.8272-37.481Q48.7882-37.88 49.8712-37.88Q50.9542-37.88 51.9152-37.481Q52.8752-37.081 53.7592-36.197L85.6482-4.309Q87.2912-2.664 87.2912-0.46Q87.2912 1.745 85.6482 3.389Q84.0032 5.072 81.7992 5.072Q79.5942 5.072 77.9112 3.389L49.8712-24.689ZM49.8712-66.372L21.7932-38.255Q20.1482-36.611 17.9442-36.63Q15.7392-36.65 14.0942-38.255Q12.4512-39.899 12.4512-42.104Q12.4512-44.309 14.0942-45.953L45.9832-77.881Q46.8672-78.764 47.8272-79.164Q48.7882-79.563 49.8712-79.563Q50.9542-79.563 51.9152-79.164Q52.8752-78.764 53.7592-77.881L85.6482-45.953Q87.2912-44.309 87.2912-42.104Q87.2912-39.899 85.6482-38.255Q84.0032-36.611 81.7992-36.611Q79.5942-36.611 77.9492-38.255L49.8712-66.372Z"/>
  </g>
  <g id="Regular-L" transform="matrix(1 0 0 1 1400.63 1556)">
   <path class="monochrome-0 multicolor-0:tintColor hierarchical-0:primary SFSymbolsPreviewWireframe" d="M49.2162-26.039L20.6752 2.503Q19.2232 3.954 17.2892 3.954Q15.3542 3.954 13.9022 2.503Q12.4512 1.051 12.4512-0.884Q12.4512-2.819 13.9022-4.27L45.8302-36.197Q46.6362-37.004 47.4422-37.326Q48.2492-37.649 49.2162-37.649Q50.1842-37.649 50.9902-37.326Q51.7962-37.004 52.6022-36.197L84.5302-4.27Q85.9812-2.819 85.9812-0.884Q85.9812 1.051 84.5302 2.503Q83.0792 3.954 81.1442 3.954Q79.2082 3.954 77.7572 2.503L49.2162-26.039ZM49.2162-66.835L20.6752-38.294Q19.2232-36.842 17.2892-36.842Q15.3542-36.842 13.9022-38.294Q12.4512-39.745 12.4512-41.68Q12.4512-43.615 13.9022-45.066L45.8302-76.994Q46.6362-77.8 47.4422-78.122Q48.2492-78.445 49.2162-78.445Q50.1842-78.445 50.9902-78.122Q51.7962-77.8 52.6022-76.994L84.5302-45.066Q85.9812-43.615 85.9812-41.68Q85.9812-39.745 84.5302-38.294Q83.0792-36.842 81.1442-36.842Q79.2082-36.842 77.7572-38.294L49.2162-66.835Z"/>
  </g>
  <g id="Light-L" transform="matrix(1 0 0 1 1105.67 1556)">
   <path class="monochrome-0 multicolor-0:tintColor hierarchical-0:primary SFSymbolsPreviewWireframe" d="M47.4792-27.651L18.7522 1.138Q17.6732 2.217 16.2032 2.217Q14.7332 2.217 13.5922 1.138Q12.4512-0.003 12.4512-1.442Q12.4512-2.881 13.5922-4.022L44.2172-34.647Q44.9612-35.391 45.7362-35.745Q46.5122-36.098 47.4792-36.098Q48.4472-36.098 49.2222-35.745Q49.9972-35.391 50.7412-34.647L81.3662-4.022Q82.4452-2.943 82.4762-1.473Q82.5072-0.003 81.3662 1.138Q80.2252 2.279 78.7862 2.279Q77.3472 2.279 76.2062 1.138L47.4792-27.651ZM47.4792-67.889L18.7522-39.1Q17.6732-38.021 16.2032-37.99Q14.7332-37.959 13.5922-39.1Q12.4512-40.241 12.4512-41.68Q12.4512-43.119 13.5922-44.26L44.2172-74.885Q44.9612-75.629 45.7362-75.983Q46.5122-76.336 47.4792-76.336Q48.4472-76.336 49.2222-75.983Q49.9972-75.629 50.7412-74.885L81.3662-44.26Q82.4452-43.181 82.4762-41.711Q82.5072-40.241 81.3662-39.1Q80.2252-37.959 78.7862-37.959Q77.3472-37.959 76.2062-39.1L47.4792-67.889Z"/>
  </g>
  <g id="Thin-L" transform="matrix(1 0 0 1 810.708 1556)">
   <path class="monochrome-0 multicolor-0:tintColor hierarchical-0:primary SFSymbolsPreviewWireframe" d="M45.7432-29.264L16.8302-0.226Q16.1232 0.481 15.1182 0.481Q14.1132 0.481 13.2822-0.226Q12.4512-1.057 12.4512-2Q12.4512-2.943 13.2822-3.774L42.6052-33.097Q43.2872-33.779 44.0312-34.163Q44.7762-34.548 45.7432-34.548Q46.7112-34.548 47.4552-34.163Q48.1992-33.779 48.8812-33.097L78.2042-3.774Q78.9112-3.067 78.9732-2.062Q79.0352-1.057 78.2042-0.226Q77.3732 0.605 76.4302 0.605Q75.4872 0.605 74.6562-0.226L45.7432-29.264ZM45.7432-68.944L16.8302-39.906Q16.1232-39.199 15.1182-39.137Q14.1132-39.075 13.2822-39.906Q12.4512-40.737 12.4512-41.68Q12.4512-42.623 13.2822-43.454L42.6052-72.776Q43.2872-73.459 44.0312-73.843Q44.7762-74.228 45.7432-74.228Q46.7112-74.228 47.4552-73.843Q48.1992-73.459 48.8812-72.776L78.2042-43.454Q78.9112-42.747 78.9732-41.742Q79.0352-40.737 78.2042-39.906Q77.3732-39.075 76.4302-39.075Q75.4872-39.075 74.6562-39.906L45.7432-68.944Z"/>
  </g>
  <g id="Ultralight-L" transform="matrix(1 0 0 1 515.046 1556)">
   <path class="monochrome-0 multicolor-0:tintColor hierarchical-0:primary SFSymbolsPreviewWireframe" d="M44.7012-30.231L15.6762-1.045Q15.1922-0.561 14.4672-0.561Q13.7412-0.561 13.0962-1.045Q12.4512-1.69 12.4512-2.335Q12.4512-2.98 13.0962-3.625L41.6372-32.166Q42.2822-32.811 43.0082-33.214Q43.7342-33.617 44.7012-33.617Q45.6692-33.617 46.3942-33.214Q47.1202-32.811 47.7652-32.166L76.3062-3.625Q76.7902-3.141 76.8702-2.416Q76.9512-1.69 76.3062-1.045Q75.6612-0.4 75.0162-0.4Q74.3712-0.4 73.7262-1.045L44.7012-30.231ZM44.7012-69.576L15.6762-40.39Q15.1922-39.906 14.4672-39.826Q13.7412-39.745 13.0962-40.39Q12.4512-41.035 12.4512-41.68Q12.4512-42.325 13.0962-42.97L41.6372-71.511Q42.2822-72.156 43.0082-72.559Q43.7342-72.962 44.7012-72.962Q45.6692-72.962 46.3942-72.559Q47.1202-72.156 47.7652-71.511L76.3062-42.97Q76.7902-42.486 76.8702-41.761Q76.9512-41.035 76.3062-40.39Q75.6612-39.745 75.0162-39.745Q74.3712-39.745 73.7262-40.39L44.7012-69.576Z"/>
  </g>
  <g id="Bold-M" transform="matrix(1 0 0 1 2296.78 1126)">
   <path class="monochrome-0 multicolor-0:tintColor hierarchical-0:primary SFSymbolsPreviewWireframe" d="M43.2012-20.23L25.7012-2.73Q23.4512-0.48 20.2012-0.48Q16.9512-0.48 14.7012-2.855Q12.4512-5.105 12.4512-8.355Q12.4512-11.605 14.7012-13.855L37.5762-36.73Q38.7012-37.855 40.2012-38.48Q41.7012-39.105 43.2012-39.105Q44.7012-39.105 46.2012-38.48Q47.7012-37.855 48.8262-36.73L71.7012-13.855Q73.9512-11.605 73.9512-8.417Q73.9512-5.23 71.7012-2.855Q69.4512-0.48 66.2012-0.48Q62.9512-0.48 60.5762-2.855L43.2012-20.23ZM43.2012-54.105L25.7012-36.605Q23.4512-34.355 20.2012-34.355Q16.9512-34.355 14.7012-36.605Q12.4512-38.855 12.4512-42.105Q12.4512-45.355 14.7012-47.605L37.5762-70.605Q38.7012-71.73 40.2012-72.355Q41.7012-72.98 43.2012-72.98Q44.7012-72.98 46.2012-72.355Q47.7012-71.73 48.8262-70.605L71.7012-47.605Q73.9512-45.355 73.9512-42.105Q73.9512-38.855 71.7012-36.605Q69.4512-34.355 66.2012-34.355Q62.9512-34.355 60.7012-36.605L43.2012-54.105Z"/>
  </g>
  <g id="Semibold-M" transform="matrix(1 0 0 1 2001.3 1126)">
   <path class="monochrome-0 multicolor-0:tintColor hierarchical-0:primary SFSymbolsPreviewWireframe" d="M41.9512-22.784L23.5812-4.469Q21.7122-2.599 18.9782-2.572Q16.2452-2.545 14.3212-4.54Q12.4512-6.409 12.4512-9.17Q12.4512-11.931 14.3212-13.801L37.2502-36.73Q38.2122-37.692 39.4402-38.181Q40.6682-38.67 41.9512-38.67Q43.2342-38.67 44.4622-38.181Q45.6902-37.692 46.6522-36.73L69.5812-13.801Q71.4512-11.931 71.4782-9.233Q71.5052-6.534 69.5812-4.54Q67.7122-2.599 64.9512-2.599Q62.1902-2.599 60.2502-4.54L41.9512-22.784ZM41.9512-54.974L23.5812-36.659Q21.7122-34.79 18.9782-34.763Q16.2452-34.735 14.3212-36.659Q12.4512-38.529 12.4512-41.29Q12.4512-44.051 14.3212-45.92L37.2502-68.92Q38.2122-69.882 39.4402-70.371Q40.6682-70.861 41.9512-70.861Q43.2342-70.861 44.4622-70.371Q45.6902-69.882 46.6522-68.92L69.5812-45.92Q71.4512-44.051 71.4782-41.317Q71.5052-38.583 69.5812-36.659Q67.7122-34.79 64.9512-34.79Q62.1902-34.79 60.3212-36.659L41.9512-54.974Z"/>
  </g>
  <g id="Medium-M" transform="matrix(1 0 0 1 1705.52 1126)">
   <path class="monochrome-0 multicolor-0:tintColor hierarchical-0:primary SFSymbolsPreviewWireframe" d="M41.0132-24.7L21.9912-5.773Q20.4072-4.189 18.0602-4.142Q15.7142-4.094 14.0352-5.803Q12.4512-7.388 12.4512-9.782Q12.4512-12.176 14.0352-13.76L37.0052-36.73Q37.8442-37.57 38.8692-37.957Q39.8932-38.344 41.0132-38.344Q42.1332-38.344 43.1572-37.957Q44.1822-37.57 45.0212-36.73L67.9912-13.76Q69.5752-12.176 69.6232-9.844Q69.6712-7.513 67.9912-5.803Q66.4072-4.189 64.0132-4.189Q61.6192-4.189 60.0052-5.803L41.0132-24.7ZM41.0132-55.627L21.9912-36.7Q20.4072-35.116 18.0602-35.068Q15.7142-35.021 14.0352-36.7Q12.4512-38.284 12.4512-40.678Q12.4512-43.072 14.0352-44.657L37.0052-67.657Q37.8442-68.496 38.8692-68.883Q39.8932-69.271 41.0132-69.271Q42.1332-69.271 43.1572-68.883Q44.1822-68.496 45.0212-67.657L67.9912-44.657Q69.5752-43.072 69.6232-40.726Q69.6712-38.379 67.9912-36.7Q66.4072-35.116 64.0132-35.116Q61.6192-35.116 60.0352-36.7L41.0132-55.627Z"/>
  </g>
  <g id="Regular-M" transform="matrix(1 0 0 1 1409.49 1126)">
   <path class="monochrome-0 multicolor-0:tintColor hierarchical-0:primary SFSymbolsPreviewWireframe" d="M40.3262-26.105L20.8262-6.73Q19.4512-5.355 17.3882-5.292Q15.3262-5.23 13.8262-6.73Q12.4512-8.105 12.4512-10.23Q12.4512-12.355 13.8262-13.73L36.8262-36.73Q37.5762-37.48 38.4512-37.792Q39.3262-38.105 40.3262-38.105Q41.3262-38.105 42.2012-37.792Q43.0762-37.48 43.8262-36.73L66.8262-13.73Q68.2012-12.355 68.2642-10.292Q68.3262-8.23 66.8262-6.73Q65.4512-5.355 63.3262-5.355Q61.2012-5.355 59.8262-6.73L40.3262-26.105ZM40.3262-56.105L20.8262-36.73Q19.4512-35.355 17.3882-35.292Q15.3262-35.23 13.8262-36.73Q12.4512-38.105 12.4512-40.23Q12.4512-42.355 13.8262-43.73L36.8262-66.73Q37.5762-67.48 38.4512-67.792Q39.3262-68.105 40.3262-68.105Q41.3262-68.105 42.2012-67.792Q43.0762-67.48 43.8262-66.73L66.8262-43.73Q68.2012-42.355 68.2642-40.292Q68.3262-38.23 66.8262-36.73Q65.4512-35.355 63.3262-35.355Q61.2012-35.355 59.8262-36.73L40.3262-56.105Z"/>
  </g>
  <g id="Light-M" transform="matrix(1 0 0 1 1113.95 1126)">
   <path class="monochrome-0 multicolor-0:tintColor hierarchical-0:primary SFSymbolsPreviewWireframe" d="M39.1722-27.884L18.8072-7.595Q17.7682-6.557 16.2342-6.494Q14.7012-6.432 13.5372-7.595Q12.4512-8.682 12.4512-10.23Q12.4512-11.778 13.5372-12.864L36.0092-35.336Q36.7102-36.038 37.4892-36.326Q38.2682-36.614 39.1722-36.614Q40.0762-36.614 40.8552-36.326Q41.6342-36.038 42.3352-35.336L64.8072-12.864Q65.8452-11.826 65.9082-10.292Q65.9702-8.759 64.8072-7.595Q63.7202-6.509 62.1722-6.509Q60.6242-6.509 59.5372-7.595L39.1722-27.884ZM39.1722-57.884L18.8072-37.595Q17.7682-36.557 16.2342-36.494Q14.7012-36.432 13.5372-37.595Q12.4512-38.682 12.4512-40.23Q12.4512-41.778 13.5372-42.864L36.0092-65.336Q36.7102-66.038 37.4892-66.326Q38.2682-66.614 39.1722-66.614Q40.0762-66.614 40.8552-66.326Q41.6342-66.038 42.3352-65.336L64.8072-42.864Q65.8452-41.826 65.9082-40.292Q65.9702-38.759 64.8072-37.595Q63.7202-36.509 62.1722-36.509Q60.6242-36.509 59.5372-37.595L39.1722-57.884Z"/>
  </g>
  <g id="Thin-M" transform="matrix(1 0 0 1 818.418 1126)">
   <path class="monochrome-0 multicolor-0:tintColor hierarchical-0:primary SFSymbolsPreviewWireframe" d="M38.0182-29.663L16.7872-8.461Q16.0852-7.759 15.0802-7.696Q14.0762-7.634 13.2492-8.461Q12.4512-9.259 12.4512-10.23Q12.4512-11.201 13.2492-11.999L35.1912-33.941Q35.8452-34.595 36.5282-34.86Q37.2102-35.124 38.0182-35.124Q38.8262-35.124 39.5082-34.86Q40.1912-34.595 40.8452-33.941L62.7872-11.999Q63.4892-11.297 63.5522-10.292Q63.6142-9.288 62.7872-8.461Q61.9892-7.663 61.0182-7.663Q60.0472-7.663 59.2492-8.461L38.0182-29.663ZM38.0182-59.663L16.7872-38.461Q16.0852-37.759 15.0802-37.696Q14.0762-37.634 13.2492-38.461Q12.4512-39.259 12.4512-40.23Q12.4512-41.201 13.2492-41.999L35.1912-63.941Q35.8452-64.595 36.5282-64.86Q37.2102-65.124 38.0182-65.124Q38.8262-65.124 39.5082-64.86Q40.1912-64.595 40.8452-63.941L62.7872-41.999Q63.4892-41.297 63.5522-40.292Q63.6142-39.288 62.7872-38.461Q61.9892-37.663 61.0182-37.663Q60.0472-37.663 59.2492-38.461L38.0182-59.663Z"/>
  </g>
  <g id="Ultralight-M" transform="matrix(1 0 0 1 522.414 1126)">
   <path class="monochrome-0 multicolor-0:tintColor hierarchical-0:primary SFSymbolsPreviewWireframe" d="M37.3262-30.73L15.5762-8.98Q15.0762-8.48 14.3882-8.417Q13.7012-8.355 13.0762-8.98Q12.4512-9.605 12.4512-10.23Q12.4512-10.855 13.0762-11.48L34.7012-33.105Q35.3262-33.73 35.9512-33.98Q36.5762-34.23 37.3262-34.23Q38.0762-34.23 38.7012-33.98Q39.3262-33.73 39.9512-33.105L61.5762-11.48Q62.0762-10.98 62.1382-10.292Q62.2012-9.605 61.5762-8.98Q60.9512-8.355 60.3262-8.355Q59.7012-8.355 59.0762-8.98L37.3262-30.73ZM37.3262-60.73L15.5762-38.98Q15.0762-38.48 14.3882-38.417Q13.7012-38.355 13.0762-38.98Q12.4512-39.605 12.4512-40.23Q12.4512-40.855 13.0762-41.48L34.7012-63.105Q35.3262-63.73 35.9512-63.98Q36.5762-64.23 37.3262-64.23Q38.0762-64.23 38.7012-63.98Q39.3262-63.73 39.9512-63.105L61.5762-41.48Q62.0762-40.98 62.1382-40.292Q62.2012-39.605 61.5762-38.98Q60.9512-38.355 60.3262-38.355Q59.7012-38.355 59.0762-38.98L37.3262-60.73Z"/>
  </g>
  <g id="Bold-S" transform="matrix(1 0 0 1 2302.99 696)">
   <path class="monochrome-0 multicolor-0:tintColor hierarchical-0:primary SFSymbolsPreviewWireframe" d="M37.0092-20.831L22.4132-6.136Q20.6372-4.36 18.2702-4.41Q15.9032-4.459 14.2272-6.234Q12.4512-8.009 12.4512-10.327Q12.4512-12.645 14.2272-14.42L32.8672-33.06Q33.6562-33.849 34.7902-34.342Q35.9242-34.835 37.0092-34.835Q38.0942-34.835 39.2282-34.342Q40.3622-33.849 41.1512-33.06L59.7912-14.42Q61.5672-12.645 61.5172-10.376Q61.4682-8.108 59.7912-6.333Q58.0162-4.459 55.6982-4.459Q53.3812-4.459 51.5072-6.333L37.0092-20.831ZM37.0092-51.996L22.4132-37.301Q20.6372-35.526 18.2702-35.575Q15.9032-35.624 14.2272-37.301Q12.4512-39.076 12.4512-41.394Q12.4512-43.712 14.2272-45.487L32.8672-64.226Q33.6562-65.015 34.7902-65.508Q35.9242-66.001 37.0092-66.001Q38.0942-66.001 39.2282-65.508Q40.3622-65.015 41.1512-64.226L59.7912-45.487Q61.5672-43.712 61.5172-41.394Q61.4682-39.076 59.7912-37.4Q58.0162-35.624 55.6982-35.624Q53.3812-35.624 51.6062-37.4L37.0092-51.996Z"/>
  </g>
  <g id="Semibold-S" transform="matrix(1 0 0 1 2007.26 696)">
   <path class="monochrome-0 multicolor-0:tintColor hierarchical-0:primary SFSymbolsPreviewWireframe" d="M36.0222-22.846L20.7392-7.508Q19.2642-6.033 17.3052-6.06Q15.3452-6.088 13.9262-7.563Q12.4512-9.039 12.4512-10.97Q12.4512-12.902 13.9262-14.377L32.6092-33.06Q33.2692-33.721 34.1892-34.107Q35.1092-34.492 36.0222-34.492Q36.9352-34.492 37.8552-34.107Q38.7752-33.721 39.4352-33.06L58.1182-14.377Q59.5932-12.902 59.5662-11.02Q59.5382-9.137 58.1182-7.662Q56.6432-6.131 54.7112-6.131Q52.7802-6.131 51.2492-7.662L36.0222-22.846ZM36.0222-52.682L20.7392-37.344Q19.2642-35.869 17.3052-35.897Q15.3452-35.925 13.9262-37.344Q12.4512-38.819 12.4512-40.751Q12.4512-42.683 13.9262-44.158L32.6092-62.897Q33.2692-63.557 34.1892-63.943Q35.1092-64.329 36.0222-64.329Q36.9352-64.329 37.8552-63.943Q38.7752-63.557 39.4352-62.897L58.1182-44.158Q59.5932-42.683 59.5662-40.772Q59.5382-38.862 58.1182-37.443Q56.6432-35.968 54.7112-35.968Q52.7802-35.968 51.3052-37.443L36.0222-52.682Z"/>
  </g>
  <g id="Medium-S" transform="matrix(1 0 0 1 1711.28 696)">
   <path class="monochrome-0 multicolor-0:tintColor hierarchical-0:primary SFSymbolsPreviewWireframe" d="M35.2832-24.358L19.4862-8.537Q18.2362-7.287 16.5822-7.299Q14.9282-7.311 13.7012-8.561Q12.4512-9.81 12.4512-11.453Q12.4512-13.095 13.7012-14.345L32.4162-33.06Q32.9802-33.624 33.7392-33.93Q34.4982-34.235 35.2832-34.235Q36.0682-34.235 36.8272-33.93Q37.5862-33.624 38.1502-33.06L56.8652-14.345Q58.1152-13.095 58.1032-11.502Q58.0912-9.909 56.8652-8.659Q55.6152-7.386 53.9722-7.386Q52.3302-7.386 51.0572-8.659L35.2832-24.358ZM35.2832-53.197L19.4862-37.376Q18.2362-36.126 16.5822-36.138Q14.9282-36.15 13.7012-37.376Q12.4512-38.626 12.4512-40.268Q12.4512-41.911 13.7012-43.161L32.4162-61.899Q32.9802-62.463 33.7392-62.769Q34.4982-63.074 35.2832-63.074Q36.0682-63.074 36.8272-62.769Q37.5862-62.463 38.1502-61.899L56.8652-43.161Q58.1152-41.911 58.1032-40.306Q58.0912-38.701 56.8652-37.475Q55.6152-36.225 53.9722-36.225Q52.3302-36.225 51.0802-37.475L35.2832-53.197Z"/>
  </g>
  <g id="Regular-S" transform="matrix(1 0 0 1 1415.1 696)">
   <path class="monochrome-0 multicolor-0:tintColor hierarchical-0:primary SFSymbolsPreviewWireframe" d="M34.7402-25.466L18.5662-9.292Q17.4812-8.207 16.0512-8.207Q14.6212-8.207 13.5362-9.292Q12.4512-10.376 12.4512-11.807Q12.4512-13.237 13.5362-14.321L32.2742-33.06Q32.7672-33.553 33.4092-33.8Q34.0502-34.046 34.7402-34.046Q35.4302-34.046 36.0712-33.8Q36.7122-33.553 37.2062-33.06L55.9442-14.321Q57.0292-13.237 57.0292-11.856Q57.0292-10.475 55.9442-9.39Q54.8602-8.305 53.4292-8.305Q51.9992-8.305 50.9152-9.39L34.7402-25.466ZM34.7402-53.574L18.5662-37.4Q17.4812-36.315 16.0512-36.315Q14.6212-36.315 13.5362-37.4Q12.4512-38.485 12.4512-39.915Q12.4512-41.345 13.5362-42.43L32.2742-61.168Q32.7672-61.661 33.4092-61.908Q34.0502-62.155 34.7402-62.155Q35.4302-62.155 36.0712-61.908Q36.7122-61.661 37.2062-61.168L55.9442-42.43Q57.0292-41.345 57.0292-39.964Q57.0292-38.583 55.9442-37.498Q54.8602-36.413 53.4292-36.413Q51.9992-36.413 50.9152-37.498L34.7402-53.574Z"/>
  </g>
  <g id="Light-S" transform="matrix(1 0 0 1 1119.32 696)">
   <path class="monochrome-0 multicolor-0:tintColor hierarchical-0:primary SFSymbolsPreviewWireframe" d="M33.8302-26.87L16.9732-9.975Q16.1532-9.155 15.1412-9.155Q14.1282-9.155 13.3092-9.975Q12.4512-10.832 12.4512-11.807Q12.4512-12.781 13.3092-13.639L31.6302-31.96Q32.0852-32.415 32.6502-32.643Q33.2152-32.87 33.8302-32.87Q34.4452-32.87 35.0102-32.643Q35.5752-32.415 36.0302-31.96L54.3512-13.639Q55.1712-12.819 55.1712-11.856Q55.1712-10.892 54.3512-10.073Q53.4942-9.216 52.5192-9.216Q51.5452-9.216 50.6872-10.073L33.8302-26.87ZM33.8302-54.978L16.9732-38.083Q16.1532-37.263 15.1412-37.263Q14.1282-37.263 13.3092-38.083Q12.4512-38.94 12.4512-39.915Q12.4512-40.889 13.3092-41.747L31.6302-60.068Q32.0852-60.523 32.6502-60.751Q33.2152-60.979 33.8302-60.979Q34.4452-60.979 35.0102-60.751Q35.5752-60.523 36.0302-60.068L54.3512-41.747Q55.1712-40.927 55.1712-39.964Q55.1712-39.001 54.3512-38.181Q53.4942-37.324 52.5192-37.324Q51.5452-37.324 50.6872-38.181L33.8302-54.978Z"/>
  </g>
  <g id="Thin-S" transform="matrix(1 0 0 1 823.54 696)">
   <path class="monochrome-0 multicolor-0:tintColor hierarchical-0:primary SFSymbolsPreviewWireframe" d="M32.9202-28.273L15.3802-10.657Q14.8262-10.103 14.2312-10.103Q13.6352-10.103 13.0812-10.657Q12.4512-11.287 12.4512-11.807Q12.4512-12.326 13.0812-12.956L30.9852-30.86Q31.4032-31.277 31.8922-31.486Q32.3812-31.695 32.9202-31.695Q33.4592-31.695 33.9482-31.486Q34.4372-31.277 34.8552-30.86L52.7592-12.956Q53.3132-12.402 53.3132-11.856Q53.3132-11.31 52.7592-10.756Q52.1292-10.126 51.6092-10.126Q51.0902-10.126 50.4602-10.756L32.9202-28.273ZM32.9202-56.381L15.3802-38.765Q14.8262-38.212 14.2312-38.212Q13.6352-38.212 13.0812-38.765Q12.4512-39.395 12.4512-39.915Q12.4512-40.434 13.0812-41.064L30.9852-58.968Q31.4032-59.386 31.8922-59.594Q32.3812-59.803 32.9202-59.803Q33.4592-59.803 33.9482-59.594Q34.4372-59.386 34.8552-58.968L52.7592-41.064Q53.3132-40.51 53.3132-39.964Q53.3132-39.418 52.7592-38.864Q52.1292-38.234 51.6092-38.234Q51.0902-38.234 50.4602-38.864L32.9202-56.381Z"/>
  </g>
  <g id="Ultralight-S" transform="matrix(1 0 0 1 527.387 696)">
   <path class="monochrome-0 multicolor-0:tintColor hierarchical-0:primary SFSymbolsPreviewWireframe" d="M32.3732-29.115L14.4232-11.067Q14.0292-10.672 13.6842-10.672Q13.3382-10.672 12.9442-11.067Q12.4512-11.56 12.4512-11.807Q12.4512-12.053 12.9442-12.546L30.5982-30.2Q30.9922-30.595 31.4362-30.792Q31.8802-30.989 32.3732-30.989Q32.8662-30.989 33.3102-30.792Q33.7542-30.595 34.1482-30.2L51.8022-12.546Q52.1972-12.152 52.1972-11.856Q52.1972-11.56 51.8022-11.165Q51.3092-10.672 51.0622-10.672Q50.8162-10.672 50.3232-11.165L32.3732-29.115ZM32.3732-57.223L14.4232-39.175Q14.0292-38.78 13.6842-38.78Q13.3382-38.78 12.9442-39.175Q12.4512-39.668 12.4512-39.915Q12.4512-40.161 12.9442-40.654L30.5982-58.308Q30.9922-58.703 31.4362-58.9Q31.8802-59.097 32.3732-59.097Q32.8662-59.097 33.3102-58.9Q33.7542-58.703 34.1482-58.308L51.8022-40.654Q52.1972-40.26 52.1972-39.964Q52.1972-39.668 51.8022-39.274Q51.3092-38.78 51.0622-38.78Q50.8162-38.78 50.3232-39.274L32.3732-57.223Z"/>
  </g>
 </g>
</svg>
