<svg width="32" height="32" viewBox="0 0 32 32" fill="none" xmlns="http://www.w3.org/2000/svg">
<path d="M6.75 8C6.75 7.30964 7.30964 6.75 8 6.75H13.3458C14.0361 6.75 14.5958 7.30965 14.5958 8V12.9719C14.5958 13.6623 14.0361 14.2219 13.3458 14.2219H8C7.30964 14.2219 6.75 13.6623 6.75 12.9719V8ZM17.7785 8C17.7785 7.30964 18.3381 6.75 19.0285 6.75H24.3743C25.0646 6.75 25.6243 7.30964 25.6243 8V12.9719C25.6243 13.6623 25.0646 14.2219 24.3743 14.2219H19.0285C18.3381 14.2219 17.7785 13.6623 17.7785 12.9719V8ZM6.75 19.0285C6.75 18.3381 7.30964 17.7785 8 17.7785H13.3458C14.0361 17.7785 14.5958 18.3381 14.5958 19.0285V24.0004C14.5958 24.6908 14.0361 25.2504 13.3458 25.2504H8C7.30964 25.2504 6.75 24.6908 6.75 24.0004V19.0285ZM17.7785 19.0285C17.7785 18.3381 18.3381 17.7785 19.0285 17.7785H24.3743C25.0646 17.7785 25.6243 18.3381 25.6243 19.0285V24.0004C25.6243 24.6908 25.0646 25.2504 24.3743 25.2504H19.0285C18.3381 25.2504 17.7785 24.6908 17.7785 24.0004V19.0285Z" stroke="#A1A1AA" stroke-width="1.5"/>
</svg>
